<svg xmlns="http://www.w3.org/2000/svg" width="893" height="951" version="1"><path fill="#fefefe" d="M446 950h-3c-3 0-9-4-11-8-2-5-2 4-2-109V731h-1a387191 387191 0 0 0-225 46c-2 0-4-2-4-5l12-40 12-40c1-4 0-8-2-11l-111-90A9326 9326 0 0 1 1 500l25-17 27-17 3-5v-5a22751 22751 0 0 0-39-138c0-2 2-4 5-4a3746 3746 0 0 1 123 21l6-3 16-29c13-27 14-28 15-28l55 50a28084 28084 0 0 0 61 53c2-1 5-3 5-6a19474 19474 0 0 0-50-252 1326 1326 0 0 1 91 43h3c2-1 5-2 6-4A11066 11066 0 0 0 440 0h5l45 79c50 87 46 81 50 82h5a2522 2522 0 0 0 91-43 36068 36068 0 0 1-48 253l4 4 4 1a5716 5716 0 0 0 111-105l16 27 16 29 6 3 2 1 60-12 61-11c3 0 5 1 5 4a4459 4459 0 0 1-37 142c0 2 2 4 4 6a474 474 0 0 0 52 34l1 1-1 1a7819 7819 0 0 1-218 181c-2 2-3 6-3 8l13 41c14 46 14 43 11 46l-3 1-113-21-111-21v102c0 113 0 104-2 108l-3 5c-3 3-5 4-8 4h-9z"/></svg>