<svg xmlns="http://www.w3.org/2000/svg" viewBox="164 187.6 285.5 417"><style>.st2{fill:#afc6d2}.st3{opacity:.5;fill:#b5b6b6}.st4{fill:#646464}.st5{fill:#84b6db}.st6{fill:#ecf0f2}.st7{fill:none;stroke:#8ec2e0;stroke-width:2;stroke-miterlimit:10}.st8{fill:#d02027}.st9{fill:#51656b}.st10{fill:#ef3e42}.st11{fill:#68bdc6}.st12{fill:#939393}.st13{fill:#a5a5a5}.st14{fill:#3b9f47}.st15{fill:#47535c}.st16{fill:none;stroke:#dd905d;stroke-width:4;stroke-miterlimit:10}.st17{fill:#dd905d}.st18{fill:#745448}.st19{opacity:.1;fill:#010101}.st20,.st21{opacity:.4;fill:#fff}.st21{opacity:.3}.st22,.st23{opacity:.2;fill:#fff}.st23{opacity:.1}.st24{opacity:.4;fill:#010101}.st25{fill:none}.st26{fill:#fdfdfe}.st27{fill:none;stroke:#ededee;stroke-miterlimit:10}.st28{fill:#68798a}.st29{fill:#ee3034}.st30{fill:#fef8fb}.st31{fill:#7d7d7d}.st32{fill:#bbb}.st33{fill:#787878}.st34{fill:#c9c9c9}.st35{fill:#afc6d1}.st36{fill:none;stroke:#6e8fa9;stroke-width:.5;stroke-miterlimit:10}.st37{fill:#fffbfd}.st38{fill:#536b75}.st39,.st40{opacity:.59;fill:#c9c9c9}.st40{opacity:.5}.st41{fill:#ada198}.st42{fill:#baafa7}.st43{fill:#235c82}.st44{fill:url(#SVGID_1_)}.st45{fill:#1b3947;stroke:#c4c4c4;stroke-width:.15;stroke-miterlimit:10}.st46{fill:#a09790}.st47,.st48,.st49{fill:#465064;stroke:#c4c4c4;stroke-width:.15;stroke-miterlimit:10}.st48,.st49{fill:#235c82}.st49{fill:none;stroke-width:5e-2}.st50{fill:#837c78}.st51{opacity:.15;fill:#010101}.st52{stroke:#c4c4c4;stroke-width:.1;stroke-miterlimit:10}.st52,.st53{fill:#1b3947}.st54{opacity:.35;fill:#010101}.st55,.st56{fill:none;stroke:#a09790;stroke-width:.1;stroke-miterlimit:10}.st56{stroke:#c4c4c4;stroke-width:.15}</style><path fill="#404040" d="M387.4 346.6h31.5l1.5-.5h-34.5z"/><g fill="#A8A29C"><path d="M417.4 328.3h-9.2v-5.9h2.5v-5h-2.5v-49.6c1.6 0 2.9-1.1 2.9-2.5h-15.8c0 1.4 1.3 2.5 2.9 2.5v49.6h-2.5v5h2.5v5.9H389l.1 5.4h28.3v-5.4zM399.9 353.3h-4c0 184.7-10.2 251.3-10.2 251.3h14.2V353.3zM406.4 566.9v37.7h14.2s-10.2-66.6-10.2-251.3h-4v213.6z"/></g><g fill="#AFC6D2"><path d="M384 343.6h38.3v1H384zM384 341.3h38.3v.8H384zM384 337.3h38.3v1H384zM399.9 566.9h6.5v37.7h-6.5zM399.9 353.3h6.5v213.6h-6.5z"/></g><path class="st3" d="M399.9 353.3v251.3h6.5V353.3z"/><path class="st4" d="M384 342.2v1.4h38.3v-1.5H384zM384 339.5v1.8h38.3v-3.1H384z"/><path class="st0" d="M384 345.4l1.9.7h34.5l1.9-.7v-.8H384z"/><path class="st5" d="M417.3 333.7H389c-1.7 3-5 3.6-5 3.6h38.3s-3.2-.7-5-3.6z"/><path class="st6" d="M408.2 262.8h-.8v-31.3h-1.7v-13.2h-.8v-10.8h-3.4v10.8h-.8v13.2H399v31.3h-.8c-1.6 0-2.9 1.1-2.9 2.5h15.8c0-1.4-1.3-2.5-2.9-2.5z"/><path class="st8" d="M389 332.6h28.4v1H389z"/><path class="st6" d="M389 328.3h28.4v4.3H389zM395.6 317.5h2.5v5h-2.5zM408.2 317.5h2.5v5h-2.5z"/><path class="st9" d="M399 231.5h8.4v1.3H399zM400.6 218.3h5.1v1.3h-5.1z"/><path class="st10" d="M401.4 217h3.4v1.3h-3.4z"/><path class="st9" d="M401.4 206.2h3.4v1.3h-3.4z"/><path class="st10" d="M402.1 204.9h2.1v1.3h-2.1z"/><path class="st6" d="M402.1 193.5h2.1v11.4h-2.1z"/><path class="st10" d="M400.6 230.2h5.1v1.3h-5.1zM402.7 187.6h.9v5.9h-.9z"/><path class="st6" d="M384 350c0 1.9 1.6 3.4 3.4 3.4H418.7c1.9 0 3.4-1.5 3.4-3.4s-1.5-3.4-3.4-3.4h-31.6c-1.6 0-3.1 1.5-3.1 3.4z"/><g><path class="st11" d="M233.1 584.6V451.8h-3.3v-46.1h-5.5v-5.5h-5.8v-12h-4.4v-14.1h-3.3V367h-9.5v-28.2h-2.2V367h-9.5v7.1h-3.3v14.1h-4.4v12H176v5.5h-5.5v46.1h-3.3v132.8z"/><path class="st12" d="M178.5 400.2h2.2v184.4h-2.2zM195 367h2.2v217.6H195zM203.2 367h2.2v217.6h-2.2zM219.7 400.2h2.2v184.4h-2.2z"/><path class="st13" d="M213.6 584.6h-2.2V376.3h-22.5v208.3h-2.2V373.8h26.9z"/><path class="st13" d="M187.8 381.4h24.7v2.4h-24.7zM181.9 396.9h36.6v2.4h-36.6zM181.9 389.3h36.6v2.4h-36.6zM230.1 584.6h-2.2V407.1h-55.5v177.5h-2.2V404.7h59.9z"/><path class="st13" d="M171.3 412.4H229v2.4h-57.7zM171.3 420.2H229v2.4h-57.7zM171.3 428H229v2.4h-57.7zM171.3 435.7H229v2.4h-57.7zM171.3 443.5H229v2.4h-57.7zM234.2 584.6H232V453.7h-63.7v130.9h-2.2V451.3h68.1z"/><path class="st13" d="M167.2 459.1h65.9v2.4h-65.9zM167.2 466.8h65.9v2.4h-65.9zM167.2 474.6h65.9v2.4h-65.9zM167.2 482.4h65.9v2.4h-65.9zM167.2 490.1h65.9v2.4h-65.9zM167.2 497.9h65.9v2.4h-65.9zM167.2 505.7h65.9v2.4h-65.9zM167.2 513.4h65.9v2.4h-65.9zM167.2 521.2h65.9v2.4h-65.9zM167.2 529h65.9v2.4h-65.9zM167.2 536.8h65.9v2.4h-65.9zM167.2 544.5h65.9v2.4h-65.9zM167.2 552.3h65.9v2.4h-65.9zM167.2 560.1h65.9v2.4h-65.9zM167.2 567.8h65.9v2.4h-65.9zM167.2 575.6h65.9v2.4h-65.9zM167.2 583.4h65.9v2.4h-65.9zM233.1 591.1v2.5M167.2 593.6v-2.5M233.1 598.9v2.4M167.2 601.3v-2.4M167.2 570.3h65.9v2.4h-65.9z"/><path class="st13" d="M167.2 554.7h65.9V578h-65.9z"/><path class="st13" d="M167.2 560.1h65.9v2.4h-65.9zM167.2 567.8h65.9v2.4h-65.9zM167.2 575.6h65.9v2.4h-65.9zM167.2 583.4h65.9v2.4h-65.9z"/><path class="st12" d="M199.1 308.7h2.2v43.4h-2.2z"/><path class="st13" d="M189 367h21.8v7.7H189zM221.9 400.2h2.5v4.5h-2.5zM176 400.2h2.5v4.5H176z"/><path class="st13" d="M234.2 585.8h-68.1V450.5h3.3v-46.1h5.5V399h5.9v-12h4.4v-14.1h3.3v-7.1h9.5v-38.3h4.4v38.3h9.5v7.1h3.3V387h4.4v12h5.9v5.5h5.5v46.1h3.3v135.2zm-65.9-2.4H232V453h-3.3v-46.1h-5.5v-5.5h-5.9v-12H213v-14.1h-3.3v-7.1h-19v7.1h-3.3v14.1H183v12h-5.9v5.5h-5.5V453h-3.3v130.4z"/><path class="st14" d="M192.9 338.8h14.5v14.5h-14.5z"/></g><g><path class="st15" d="M361.4 370.7h-2.9v7.8h-3v7.9h-2.1v8.3h-2.7v7.8h-2.3v6h-9.3v-6h-2.4v-7.8H334v-8.3h-2.1v-7.9h-3v-7.8H326V554h35.4z"/><path class="st17" d="M356.4 377.6h5.1v5h-5.1zM326 377.6h5.9v5H326zM353.4 387.1h8v5h-8zM350.7 396.5h10.7v5h-10.7zM341.2 405.9h20.2v5h-20.2zM326 415.4h35.4v5H326zM326 424.8h35.4v5H326zM326 434.3h35.4v5H326zM326 443.7h35.4v5H326zM326 453.1h35.4v5H326zM326 462.6h35.4v5H326zM326 472h35.4v5H326zM326 481.5h35.4v5H326zM326 490.9h35.4v5H326zM326 500.3h35.4v5H326zM326 509.8h35.4v5H326zM326 519.2h35.4v5H326zM326 528.7h35.4v5H326zM326 538.1h35.4v5H326zM326 547.5h35.4v5H326zM326 557h35.4v5H326z"/><path class="st17" d="M326 537.6h35.4v20.7H326z"/><path class="st17" d="M326 542h35.4v5H326zM326 549.9h35.4v5H326zM326 396.5h10.7v5H326zM326 405.9h15.2v5H326zM326 387.1h8v5h-8z"/><g><path class="st17" d="M325.1 370.7h2.5V554h-2.5zM329.8 378.5h2.5v175.4h-2.5zM334.9 394.7h2.5V554h-2.5zM339.9 409.7h2.5V554h-2.5zM345 409.7h2.5V554H345zM350 394.7h2.5V554H350zM355.1 378.5h2.5v175.4h-2.5zM359.9 370.7h2.5V554h-2.5z"/></g><g><path class="st17" d="M351.9 394.7h3.9v1.8h-3.9zM326.7 370.7h2.2v7.8h-2.2zM331.6 390.8h2.7v7.8h-2.7z"/><path class="st17" d="M334 394.7h1.5v3.3H334zM336.7 402.5h2.3v4.9h-2.3zM348.4 402.5h2.9v4.2h-2.9zM353.4 391.6h2v4.4h-2zM358.6 370.7h2.5v8.6h-2.5z"/></g><path class="st18" d="M326 367.6v3.1h2.9v7.8h3v8.6h2.1v7.6h2.7v7.8h2.4v6h9.3v-6h2.3v-7.8h2.7v-7.8h2.1v-8.4h3v-7.8h2.9v-3.1z"/><path class="st15" d="M333.3 372.5h20.8v2.5h-20.8zM335.9 380.4h15.6v2.5h-15.6zM338.5 388.3h10.4v2.5h-10.4zM341.1 396.2h5.2v2.5h-5.2z"/><path class="st17" d="M361.4 367.6h8.3v186.3h-8.3z"/><path class="st19" d="M369.7 412.8l-8.3-8.6V554h8.3z"/><path class="st17" d="M296.9 367.6h7.3v186.3h-7.3zM311.4 367.6h7.3v186.3h-7.3zM318.7 367.6h7.3v186.3h-7.3z"/><path class="st17" d="M304.2 367.6h7.3v186.3h-7.3z"/><path class="st20" d="M296.9 367.6h7.3v186.3h-7.3z"/><path class="st21" d="M304.2 367.6h7.3v186.3h-7.3z"/><path class="st22" d="M311.4 367.6h7.3v186.3h-7.3z"/><path class="st23" d="M318.7 367.6h7.3v186.3h-7.3z"/><g><path class="st15" d="M318.7 380.8h3.6v4.4h-3.6zM318.7 391.5h3.6v4.4h-3.6zM318.7 402.1h3.6v4.4h-3.6zM318.7 412.8h3.6v4.4h-3.6zM318.7 423.4h3.6v4.4h-3.6zM318.7 434.1h3.6v4.4h-3.6zM318.7 444.7h3.6v4.4h-3.6zM318.7 455.4h3.6v4.4h-3.6zM318.7 466h3.6v4.4h-3.6zM318.7 476.7h3.6v4.4h-3.6zM318.7 487.3h3.6v4.4h-3.6zM318.7 498h3.6v4.4h-3.6zM318.7 508.6h3.6v4.4h-3.6zM318.7 519.3h3.6v4.4h-3.6zM318.7 529.9h3.6v4.4h-3.6zM318.7 540.6h3.6v4.4h-3.6zM318.7 551.2h3.6v4.4h-3.6zM318.7 561.9h3.6v4.4h-3.6z"/><path class="st15" d="M318.7 536.1h3.6v21.3h-3.6z"/><path class="st15" d="M318.7 542.3h3.6v4.4h-3.6zM311.4 380.8h3.6v4.4h-3.6zM311.4 391.5h3.6v4.4h-3.6zM311.4 402.1h3.6v4.4h-3.6zM311.4 412.8h3.6v4.4h-3.6zM311.4 423.4h3.6v4.4h-3.6zM311.4 434.1h3.6v4.4h-3.6zM311.4 444.7h3.6v4.4h-3.6zM311.4 455.4h3.6v4.4h-3.6zM311.4 466h3.6v4.4h-3.6zM311.4 476.7h3.6v4.4h-3.6zM311.4 487.3h3.6v4.4h-3.6zM311.4 498h3.6v4.4h-3.6zM311.4 508.6h3.6v4.4h-3.6zM311.4 519.3h3.6v4.4h-3.6zM311.4 529.9h3.6v4.4h-3.6zM311.4 540.6h3.6v4.4h-3.6zM311.4 551.2h3.6v4.4h-3.6zM311.4 561.9h3.6v4.4h-3.6z"/><path class="st15" d="M311.4 536.1h3.6v21.3h-3.6z"/><path class="st15" d="M311.4 542.3h3.6v4.4h-3.6zM304.2 380.8h3.6v4.4h-3.6zM304.2 391.5h3.6v4.4h-3.6zM304.2 402.1h3.6v4.4h-3.6zM304.2 412.8h3.6v4.4h-3.6zM304.2 423.4h3.6v4.4h-3.6zM304.2 434.1h3.6v4.4h-3.6zM304.2 444.7h3.6v4.4h-3.6zM304.2 455.4h3.6v4.4h-3.6zM304.2 466h3.6v4.4h-3.6zM304.2 476.7h3.6v4.4h-3.6zM304.2 487.3h3.6v4.4h-3.6zM304.2 498h3.6v4.4h-3.6zM304.2 508.6h3.6v4.4h-3.6zM304.2 519.3h3.6v4.4h-3.6zM304.2 529.9h3.6v4.4h-3.6zM304.2 540.6h3.6v4.4h-3.6zM304.2 551.2h3.6v4.4h-3.6zM304.2 561.9h3.6v4.4h-3.6z"/><path class="st15" d="M304.2 536.1h3.6v21.3h-3.6z"/><path class="st15" d="M304.2 542.3h3.6v4.4h-3.6zM296.9 380.8h3.6v4.4h-3.6zM296.9 391.5h3.6v4.4h-3.6zM296.9 402.1h3.6v4.4h-3.6zM296.9 412.8h3.6v4.4h-3.6zM296.9 423.4h3.6v4.4h-3.6zM296.9 434.1h3.6v4.4h-3.6zM296.9 444.7h3.6v4.4h-3.6zM296.9 455.4h3.6v4.4h-3.6zM296.9 466h3.6v4.4h-3.6zM296.9 476.7h3.6v4.4h-3.6zM296.9 487.3h3.6v4.4h-3.6zM296.9 498h3.6v4.4h-3.6zM296.9 508.6h3.6v4.4h-3.6zM296.9 519.3h3.6v4.4h-3.6zM296.9 529.9h3.6v4.4h-3.6zM296.9 540.6h3.6v4.4h-3.6zM296.9 551.2h3.6v4.4h-3.6zM296.9 561.9h3.6v4.4h-3.6z"/><path class="st15" d="M296.9 536.1h3.6v21.3h-3.6z"/><path class="st15" d="M296.9 542.3h3.6v4.4h-3.6z"/></g><path class="st24" d="M361.4 367.6h8.3v186.3h-8.3z"/><g><path class="st15" d="M366.1 380.8h3.6v4.4h-3.6zM366.1 391.5h3.6v4.4h-3.6zM366.1 402.1h3.6v4.4h-3.6zM366.1 412.8h3.6v4.4h-3.6zM366.1 423.4h3.6v4.4h-3.6zM366.1 434.1h3.6v4.4h-3.6zM366.1 444.7h3.6v4.4h-3.6zM366.1 455.4h3.6v4.4h-3.6zM366.1 466h3.6v4.4h-3.6zM366.1 476.7h3.6v4.4h-3.6zM366.1 487.3h3.6v4.4h-3.6zM366.1 498h3.6v4.4h-3.6zM366.1 508.6h3.6v4.4h-3.6zM366.1 519.3h3.6v4.4h-3.6zM366.1 529.9h3.6v4.4h-3.6zM366.1 540.6h3.6v4.4h-3.6zM366.1 551.2h3.6v4.4h-3.6zM366.1 561.9h3.6v4.4h-3.6z"/><path class="st15" d="M366.1 536.1h3.6v21.3h-3.6z"/><path class="st15" d="M366.1 542.3h3.6v4.4h-3.6z"/></g><path class="st25" d="M304.2 367.6V554M311.4 367.6V554M318.7 367.6V554M325.9 367.6h.3v186.3h-.3zM361.3 367.6h.3v186.3h-.3z"/><path class="st19" d="M326 367.6l27.4 27.1h-2.7v7.8h-2.3v6h-9.3v-6h-2.4v-7.8H334v-7.6h-2.1v-8.6h-3v-7.8H326z"/></g><g><path class="st26" d="M230.1 321.9h73.2v267h-73.2z"/><path class="st27" d="M230.1 321.9v267M234.7 321.9v267M239.3 321.9v267M243.8 321.9v267M248.4 321.9v267M253 321.9v267M257.6 321.9v267M262.2 321.9v267M266.7 321.9v267M271.3 321.9v267M275.9 321.9v267M280.5 321.9v267M285 321.9v267M289.6 321.9v267M294.2 321.9v267M298.8 321.9v267M303.4 321.9v267"/><g><path class="st28" d="M233.1 331.3h67.2v3.9h-67.2zM233.1 339.5h67.2v3.9h-67.2zM233.1 347.7h67.2v3.9h-67.2zM233.1 355.9h67.2v3.9h-67.2zM233.1 364.1h67.2v3.9h-67.2zM233.1 372.4h67.2v3.9h-67.2zM233.1 380.6h67.2v3.9h-67.2zM233.1 388.8h67.2v3.9h-67.2zM233.1 397h67.2v3.9h-67.2zM233.1 405.2h67.2v3.9h-67.2zM233.1 413.4h67.2v3.9h-67.2zM233.1 421.6h67.2v3.9h-67.2zM233.1 429.9h67.2v3.9h-67.2zM233.1 438.1h67.2v3.9h-67.2zM233.1 446.3h67.2v3.9h-67.2zM233.1 454.5h67.2v3.9h-67.2zM233.1 462.7h67.2v3.9h-67.2zM233.1 470.9h67.2v3.9h-67.2zM233.1 479.1h67.2v3.9h-67.2zM233.1 487.4h67.2v3.9h-67.2zM233.1 495.6h67.2v3.9h-67.2zM233.1 503.8h67.2v3.9h-67.2zM233.1 512h67.2v3.9h-67.2zM233.1 520.2h67.2v3.9h-67.2zM233.1 528.4h67.2v3.9h-67.2zM233.1 536.6h67.2v3.9h-67.2zM233.1 544.9h67.2v3.9h-67.2zM233.1 553.1h67.2v3.9h-67.2zM233.1 561.3h67.2v3.9h-67.2zM233.1 569.5h67.2v3.9h-67.2zM233.1 577.7h67.2v3.9h-67.2zM233.1 585.9h67.2v3.9h-67.2zM233.1 594.1h67.2v3.9h-67.2z"/><path class="st28" d="M233.1 590.6h67.2v3.9h-67.2zM233.1 573.1h67.2v3.9h-67.2zM233.1 581.3h67.2v3.9h-67.2z"/><path class="st28" d="M233.1 589.5h67.2v3.9h-67.2z"/><path class="st28" d="M233.1 590.7h67.2v3.9h-67.2zM233.1 573.2h67.2v3.9h-67.2zM233.1 581.4h67.2v3.9h-67.2z"/><path class="st28" d="M233.1 575.6h67.2v3.9h-67.2z"/></g><path class="st29" d="M238.3 317.5h6v4.4h-6zM246.3 317.5h6v4.4h-6z"/><path class="st30" d="M239.7 315.5h3.3v2h-3.3zM247.7 315.5h3.3v2h-3.3z"/><path class="st31" d="M269.6 275.1h3.5v46.7h-3.5zM284.1 286.8h2.7v35.1h-2.7z"/><path class="st29" d="M284.1 280.5h2.7v6.2h-2.7z"/><path class="st32" d="M270.5 258.9h1.6v16.2h-1.6z"/></g><g><path class="st33" d="M445.8 594.3v-.2h-10.7v-93.7h-7.6v8.5s-8.7 2.8-17.4 3.4v72.5l-4.8-.6v.1s-6.6.3-10.3.8v-.2c-3.2.4-4.5.4-4.5.4v-54.2c-5.3-.4-13.5-1.5-15.3-3.6v-5.9h-5.7V594h-9.1v.2H357v10.3h92.5v-10.3h-3.7z"/><path class="st34" d="M445.8 594.3v-86.9s-4.1-6.3-10.7-7.1v93.9h10.7zM369.4 521.7s-5 .6-9.1 5v67.6h9.1v-72.6zM394.9 584.9v-53.4s-1.9-.1-4.5-.3v54.2c0-.1 1.3-.2 4.5-.5zM410 512.4c-1.6.1-3.3.2-4.8.1v71.8l4.8.6v-72.5z"/><path class="st35" d="M356.9 594.3h92.5v3.8h-92.5z"/><path class="st36" d="M410 512.4v81.9M411.2 512.3v82M412.4 512.2v82.1M413.6 512v82.3M414.8 511.8v82.5M416 511.7v82.6M417.2 511.5v82.8M418.4 511.2v83.1M419.6 511v83.3M420.8 510.7v83.6M422 510.5v83.8M423.2 510.2v84.1M424.4 509.9v84.4M425.5 509.5v84.8M426.7 509.2v85.1M427.9 500.4v93.9M429.1 500.4v93.9M430.3 500.4v93.9M431.5 500.4v93.9M432.7 500.4v93.9M433.9 500.4v93.9"/><g><path class="st36" d="M370.7 521.7v72.4M372 521.7v72.4M373.3 521.7v72.4M374.6 521.7v72.4M376 528.3l-.1 65.8M377.3 528.9l-.1 65.2M378.6 529.3l-.1 64.8M379.9 529.6l-.1 64.5M381.2 529.9l-.1 64.2M382.5 530.2l-.1 63.9M383.8 530.4v63.7M385.1 530.6v63.5M386.4 530.7v63.4M387.8 530.9l-.1 63.2M389.1 531l-.1 63.1M390.4 531.1l-.1 63"/></g><g><path class="st37" d="M426 589.2c-7.4-4.8-22.8-4.8-22.8-4.8-18.2.5-22.5 4.8-22.5 4.8H426z"/><path class="st38" d="M407.6 594.1c10.3-.6 17.8-4.6 18.4-4.9h-45.3c5.9 3.6 18.4 4.9 18.4 4.9h8.5z"/></g><path class="st39" d="M427.5 500.4h7.6v93.9h-7.6z"/><path class="st40" d="M369.4 521.7h5.7v72.7h-5.7z"/><g><path class="st36" d="M356.9 598.1v6.5M362.7 598.1v6.5M368.4 598.1v6.5M374.2 598.1v6.5M380 598.1v6.5M385.8 598.1v6.5M391.6 598.1v6.5M397.4 598.1v6.5M403.1 598.1v6.5M408.9 598.1v6.5M414.7 598.1v6.5M420.5 598.1v6.5M426.3 598.1v6.5M432.1 598.1v6.5M437.8 598.1v6.5M443.6 598.1v6.5M449.4 598.1v6.5"/></g></g><g><path class="st6" d="M375.8 562.5s-22.2-47.2-101.5-47.2c-77.2 0-100.2 47.2-100.2 47.2h201.7z"/><path class="st41" d="M378.9 556.5l-5.4 6h-198l-5.4-6H164v48.1h221v-48.1z"/><path class="st42" d="M166.7 575.2h3.7v2h-3.7zM166.7 582.3h3.7v2h-3.7z"/><path class="st43" d="M183.8 578h12.9v26.6h-12.9zM198.9 578h14.7v26.6h-14.7zM215.7 578h12.9v26.6h-12.9zM252.8 578h12.9v26.6h-12.9zM267.9 578h14.7v26.6h-14.7zM284.7 578h12.9v26.6h-12.9zM320.4 578h12.9v26.6h-12.9zM335.5 578h14.7v26.6h-14.7zM352.4 578h12.9v26.6h-12.9z"/><linearGradient gradientUnits="userSpaceOnUse" x1="274.526" y1="562.526" x2="274.526" y2="521.136"><stop offset="0" stop-color="#898989"/><stop offset="1" stop-color="#353535"/></linearGradient><path class="st44" d="M369.2 562.5s-22.1-41.4-94.7-41.4-94.7 41.4-94.7 41.4h189.4z"/><path class="st6" d="M364.7 562.5s-23.6-36.2-89.4-36.2-89.4 36.2-89.4 36.2h178.8z"/><path class="st45" d="M231 585.2h10.9v1.4H231zM231 590.6h10.9v1.4H231zM231 595.9h10.9v1.4H231zM306.9 585.2h10.9v1.4h-10.9zM306.9 590.6h10.9v1.4h-10.9zM306.9 595.9h10.9v1.4h-10.9z"/><path class="st46" d="M252.8 570.1h12.9v3.2h-12.9zM284.7 570.1h12.9v3.2h-12.9zM267.9 570.1h14.7v3.2h-14.7zM320.4 570.1h12.9v3.2h-12.9zM352.4 570.1h12.9v3.2h-12.9zM335.5 570.1h14.7v3.2h-14.7zM299.8 570.1h18.5v3.2h-18.5zM231.5 570.1H250v3.2h-18.5zM183.8 570.1h12.9v3.2h-12.9zM215.7 570.1h12.9v3.2h-12.9zM198.9 570.1h14.7v3.2h-14.7zM164 562.5h221v5.4H164z"/><path class="st47" d="M267.9 578h14.7v1.7h-14.7z"/><path class="st48" d="M267.9 579.7h14.7v1.7h-14.7z"/><path class="st47" d="M267.9 581.4h14.7v1.7h-14.7z"/><path class="st48" d="M267.9 583.2h14.7v1.7h-14.7z"/><path class="st47" d="M267.9 584.9h14.7v1.7h-14.7z"/><path class="st48" d="M267.9 586.6h14.7v1.7h-14.7z"/><path class="st47" d="M267.9 588.3h14.7v1.7h-14.7z"/><path class="st48" d="M267.9 590.1h14.7v1.7h-14.7z"/><path class="st47" d="M267.9 591.8h14.7v1.7h-14.7z"/><path class="st48" d="M267.9 593.5h14.7v1.7h-14.7z"/><path class="st47" d="M267.9 595.3h14.7v1.7h-14.7z"/><path class="st48" d="M267.9 597h14.7v1.7h-14.7z"/><path class="st47" d="M267.9 598.7h14.7v1.7h-14.7z"/><path class="st48" d="M267.9 600.4h14.7v1.7h-14.7z"/><path class="st47" d="M284.7 578h12.9v1.7h-12.9z"/><path class="st48" d="M284.7 579.7h12.9v1.7h-12.9z"/><path class="st47" d="M284.7 581.4h12.9v1.7h-12.9z"/><path class="st48" d="M284.7 583.2h12.9v1.7h-12.9z"/><path class="st47" d="M284.7 584.9h12.9v1.7h-12.9z"/><path class="st48" d="M284.7 586.6h12.9v1.7h-12.9z"/><path class="st47" d="M284.7 588.3h12.9v1.7h-12.9z"/><path class="st48" d="M284.7 590.1h12.9v1.7h-12.9z"/><path class="st47" d="M284.7 591.8h12.9v1.7h-12.9z"/><path class="st48" d="M284.7 593.5h12.9v1.7h-12.9z"/><path class="st47" d="M284.7 595.3h12.9v1.7h-12.9z"/><path class="st48" d="M284.7 597h12.9v1.7h-12.9z"/><path class="st47" d="M284.7 598.7h12.9v1.7h-12.9z"/><path class="st48" d="M284.7 600.4h12.9v1.7h-12.9z"/><path class="st47" d="M252.8 578h12.9v1.7h-12.9z"/><path class="st48" d="M252.8 579.7h12.9v1.7h-12.9z"/><path class="st47" d="M252.8 581.4h12.9v1.7h-12.9z"/><path class="st48" d="M252.8 583.2h12.9v1.7h-12.9z"/><path class="st47" d="M252.8 584.9h12.9v1.7h-12.9z"/><path class="st48" d="M252.8 586.6h12.9v1.7h-12.9z"/><path class="st47" d="M252.8 588.3h12.9v1.7h-12.9z"/><path class="st48" d="M252.8 590.1h12.9v1.7h-12.9z"/><path class="st47" d="M252.8 591.8h12.9v1.7h-12.9z"/><path class="st48" d="M252.8 593.5h12.9v1.7h-12.9z"/><path class="st47" d="M252.8 595.3h12.9v1.7h-12.9z"/><path class="st48" d="M252.8 597h12.9v1.7h-12.9z"/><path class="st47" d="M252.8 598.7h12.9v1.7h-12.9z"/><path class="st48" d="M252.8 600.4h12.9v1.7h-12.9z"/><path class="st49" d="M252.8 578v24.2M255 578v24.2M257.1 578v24.2M259.3 578v24.2M261.4 578v24.2M263.6 578v24.2M265.8 578v24.2M284.7 578v24.2M286.9 578v24.2M289 578v24.2M291.2 578v24.2M293.4 578v24.2M295.5 578v24.2M297.7 578v24.2M267.9 578v24.2M270 578v24.2M272.1 578v24.2M274.2 578v24.2M276.3 578v24.2M278.3 578v24.2M280.4 578v24.2M282.5 578v24.2"/><path class="st43" d="M183.8 578h12.9v26.6h-12.9zM198.9 578h14.7v26.6h-14.7zM215.7 578h12.9v26.6h-12.9z"/><path class="st47" d="M198.9 578h14.7v1.7h-14.7z"/><path class="st48" d="M198.9 579.7h14.7v1.7h-14.7z"/><path class="st47" d="M198.9 581.4h14.7v1.7h-14.7z"/><path class="st48" d="M198.9 583.2h14.7v1.7h-14.7z"/><path class="st47" d="M198.9 584.9h14.7v1.7h-14.7z"/><path class="st48" d="M198.9 586.6h14.7v1.7h-14.7z"/><path class="st47" d="M198.9 588.3h14.7v1.7h-14.7z"/><path class="st48" d="M198.9 590.1h14.7v1.7h-14.7z"/><path class="st47" d="M198.9 591.8h14.7v1.7h-14.7z"/><path class="st48" d="M198.9 593.5h14.7v1.7h-14.7z"/><path class="st47" d="M198.9 595.3h14.7v1.7h-14.7z"/><path class="st48" d="M198.9 597h14.7v1.7h-14.7z"/><path class="st47" d="M198.9 598.7h14.7v1.7h-14.7z"/><path class="st48" d="M198.9 600.4h14.7v1.7h-14.7z"/><path class="st47" d="M215.7 578h12.9v1.7h-12.9z"/><path class="st48" d="M215.7 579.7h12.9v1.7h-12.9z"/><path class="st47" d="M215.7 581.4h12.9v1.7h-12.9z"/><path class="st48" d="M215.7 583.2h12.9v1.7h-12.9z"/><path class="st47" d="M215.7 584.9h12.9v1.7h-12.9z"/><path class="st48" d="M215.7 586.6h12.9v1.7h-12.9z"/><path class="st47" d="M215.7 588.3h12.9v1.7h-12.9z"/><path class="st48" d="M215.7 590.1h12.9v1.7h-12.9z"/><path class="st47" d="M215.7 591.8h12.9v1.7h-12.9z"/><path class="st48" d="M215.7 593.5h12.9v1.7h-12.9z"/><path class="st47" d="M215.7 595.3h12.9v1.7h-12.9z"/><path class="st48" d="M215.7 597h12.9v1.7h-12.9z"/><path class="st47" d="M215.7 598.7h12.9v1.7h-12.9z"/><path class="st48" d="M215.7 600.4h12.9v1.7h-12.9z"/><path class="st47" d="M183.8 578h12.9v1.7h-12.9z"/><path class="st48" d="M183.8 579.7h12.9v1.7h-12.9z"/><path class="st47" d="M183.8 581.4h12.9v1.7h-12.9z"/><path class="st48" d="M183.8 583.2h12.9v1.7h-12.9z"/><path class="st47" d="M183.8 584.9h12.9v1.7h-12.9z"/><path class="st48" d="M183.8 586.6h12.9v1.7h-12.9z"/><path class="st47" d="M183.8 588.3h12.9v1.7h-12.9z"/><path class="st48" d="M183.8 590.1h12.9v1.7h-12.9z"/><path class="st47" d="M183.8 591.8h12.9v1.7h-12.9z"/><path class="st48" d="M183.8 593.5h12.9v1.7h-12.9z"/><path class="st47" d="M183.8 595.3h12.9v1.7h-12.9z"/><path class="st48" d="M183.8 597h12.9v1.7h-12.9z"/><path class="st47" d="M183.8 598.7h12.9v1.7h-12.9z"/><path class="st48" d="M183.8 600.4h12.9v1.7h-12.9z"/><path class="st43" d="M320.4 578h12.9v26.6h-12.9zM335.5 578h14.7v26.6h-14.7zM352.4 578h12.9v26.6h-12.9z"/><path class="st47" d="M335.5 578h14.7v1.7h-14.7z"/><path class="st48" d="M335.5 579.7h14.7v1.7h-14.7z"/><path class="st47" d="M335.5 581.4h14.7v1.7h-14.7z"/><path class="st48" d="M335.5 583.2h14.7v1.7h-14.7z"/><path class="st47" d="M335.5 584.9h14.7v1.7h-14.7z"/><path class="st48" d="M335.5 586.6h14.7v1.7h-14.7z"/><path class="st47" d="M335.5 588.3h14.7v1.7h-14.7z"/><path class="st48" d="M335.5 590.1h14.7v1.7h-14.7z"/><path class="st47" d="M335.5 591.8h14.7v1.7h-14.7z"/><path class="st48" d="M335.5 593.5h14.7v1.7h-14.7z"/><path class="st47" d="M335.5 595.3h14.7v1.7h-14.7z"/><path class="st48" d="M335.5 597h14.7v1.7h-14.7z"/><path class="st47" d="M335.5 598.7h14.7v1.7h-14.7zM352.4 578h12.9v1.7h-12.9z"/><path class="st48" d="M352.4 579.7h12.9v1.7h-12.9z"/><path class="st47" d="M352.4 581.4h12.9v1.7h-12.9z"/><path class="st48" d="M352.4 583.2h12.9v1.7h-12.9z"/><path class="st47" d="M352.4 584.9h12.9v1.7h-12.9z"/><path class="st48" d="M352.4 586.6h12.9v1.7h-12.9z"/><path class="st47" d="M352.4 588.3h12.9v1.7h-12.9z"/><path class="st48" d="M352.4 590.1h12.9v1.7h-12.9z"/><path class="st47" d="M352.4 591.8h12.9v1.7h-12.9z"/><path class="st48" d="M352.4 593.5h12.9v1.7h-12.9z"/><path class="st47" d="M352.4 595.3h12.9v1.7h-12.9z"/><path class="st48" d="M352.4 597h12.9v1.7h-12.9z"/><path class="st47" d="M352.4 598.7h12.9v1.7h-12.9zM320.4 578h12.9v1.7h-12.9z"/><path class="st48" d="M320.4 579.7h12.9v1.7h-12.9z"/><path class="st47" d="M320.4 581.4h12.9v1.7h-12.9z"/><path class="st48" d="M320.4 583.2h12.9v1.7h-12.9z"/><path class="st47" d="M320.4 584.9h12.9v1.7h-12.9z"/><path class="st48" d="M320.4 586.6h12.9v1.7h-12.9z"/><path class="st47" d="M320.4 588.3h12.9v1.7h-12.9z"/><path class="st48" d="M320.4 590.1h12.9v1.7h-12.9z"/><path class="st47" d="M320.4 591.8h12.9v1.7h-12.9z"/><path class="st48" d="M320.4 593.5h12.9v1.7h-12.9z"/><path class="st47" d="M320.4 595.3h12.9v1.7h-12.9z"/><path class="st48" d="M320.4 597h12.9v1.7h-12.9z"/><path class="st47" d="M320.4 598.7h12.9v1.7h-12.9z"/><path class="st49" d="M320.4 578v24.2M322.6 578v24.2M324.8 578v24.2M326.9 578v24.2M329.1 578v24.2M331.2 578v24.2M333.4 578v24.2M352.4 578v24.2M354.5 578v24.2M356.7 578v24.2M358.8 578v24.2M361 578v24.2M363.1 578v24.2M365.3 578v24.2M335.5 578v24.2M337.6 578v24.2M339.7 578v24.2M341.8 578v24.2M343.9 578v24.2M346 578v24.2M348 578v24.2M350.1 578v24.2"/><path class="st50" d="M164 602.2h221v2.4H164z"/><path class="st42" d="M174 578h9.8v24.2H174zM365.3 578h9.8v24.2h-9.8z"/><path class="st51" d="M183.8 578l6.4 24.2h-6.4z"/><path class="st19" d="M375.1 578l6.4 24.2h-6.4z"/><path class="st52" d="M166.7 573.2h3.7v2h-3.7zM166.7 580.3h3.7v2h-3.7z"/><path class="st42" d="M378.1 575.2h3.7v2h-3.7zM378.1 582.3h3.7v2h-3.7z"/><path class="st53" d="M179.5 580.3h4.3v1.8h-4.3zM179.5 584.7h4.3v1.8h-4.3zM179.5 589.2h4.3v1.8h-4.3zM179.5 593.6h4.3v1.8h-4.3zM179.5 598.1h4.3v1.8h-4.3z"/><path class="st54" d="M183.8 578h12.9v3.3h-12.9zM215.7 578h12.9v3.5h-12.9zM198.9 578h14.7v3.5h-14.7zM252.8 578h12.9v3.3h-12.9zM284.7 578h12.9v3.5h-12.9z"/><path class="st55" d="M174 582h5.5M174 584.7h5.5M174 580.3h5.5M174 589.2h5.5M174 591h5.5M174 593.6h5.5M174 595.4h5.5M174 598.1h5.5M174 599.9h5.5M174 586.5h5.5"/><path class="st54" d="M268 578h14.6v3.5H268zM320.4 578h12.9v3.3h-12.9zM335.5 578h14.7v3.3h-14.7zM352.4 578h12.9v3.5h-12.9z"/><path class="st49" d="M181.6 580.3v1.7"/><path class="st56" d="M183.8 582h-4.3v-1.7h4.3"/><path class="st49" d="M181.6 598.1v1.8M183.8 599.9h-4.3M181.6 593.6v1.8"/><path class="st56" d="M183.8 595.4h-4.3v-1.8h4.3M183.8 599.9h-4.3v-1.8h4.3"/><path class="st49" d="M181.6 589.2v1.8"/><path class="st56" d="M183.8 591h-4.3v-1.8h4.3M183.8 586.5h-4.3v-1.8h4.3"/><path class="st55" d="M369.6 582h5.5"/><path class="st49" d="M181.6 584.7v1.8"/><path class="st55" d="M369.6 584.7h5.5M369.6 580.3h5.5M369.6 589.2h5.5M369.6 591h5.5M369.6 593.6h5.5M369.6 595.4h5.5M369.6 598.1h5.5M369.6 599.9h5.5M369.6 586.5h5.5"/><path class="st52" d="M378.1 573.2h3.7v2h-3.7zM378.1 580.3h3.7v2h-3.7z"/><g><path transform="rotate(-180 367.443 581.143)" class="st53" d="M365.3 580.3h4.3v1.8h-4.3z"/><path transform="rotate(-180 367.443 585.607)" class="st53" d="M365.3 584.7h4.3v1.8h-4.3z"/><path transform="rotate(-180 367.443 590.07)" class="st53" d="M365.3 589.2h4.3v1.8h-4.3z"/><path transform="rotate(-180 367.443 594.533)" class="st53" d="M365.3 593.6h4.3v1.8h-4.3z"/><path transform="rotate(-180 367.443 598.996)" class="st53" d="M365.3 598.1h4.3v1.8h-4.3z"/></g><path class="st49" d="M367.4 580.3v1.7"/><path class="st56" d="M365.3 582h4.3v-1.7h-4.3"/><path class="st49" d="M367.4 598.1v1.8M365.3 599.9h4.3M367.4 593.6v1.8"/><path class="st56" d="M365.3 595.4h4.3v-1.8h-4.3M365.3 599.9h4.3v-1.8h-4.3"/><path class="st49" d="M367.4 589.2v1.8"/><path class="st56" d="M365.3 591h4.3v-1.8h-4.3"/><path class="st49" d="M367.4 584.7v1.8"/><path class="st56" d="M365.3 586.5h4.3v-1.8h-4.3"/></g></svg>