<svg xmlns="http://www.w3.org/2000/svg" width="600" height="600" version="1" viewBox="0 0 6000 6000"><g fill="#fff"><path d="M2835 5787c-474-245-875-555-1155-892-41-49-77-92-81-95-8-7-110-149-140-195a4632 4632 0 0 1-482-945 5586 5586 0 0 1-281-1075l-20-115c-8-32-34-256-51-440-36-378-55-800-62-1402l-5-428h4875l-6 363c-14 826-40 1310-97 1752-38 301-70 470-145 785-150 629-502 1355-862 1777a3427 3427 0 0 1-701 630c-245 169-567 344-631 342-24 0-78-22-156-62zm139-353c29 5 37 3 45-13 6-11 11-28 11-38 0-11 15-34 34-52 28-27 40-32 72-29 34 3 39 6 42 31 4 37 28 45 56 18 12-11 27-21 33-21 16 0 93-82 177-189l74-94-69-49c-78-55-118-108-126-167-7-51 10-60 64-33 21 11 61 25 90 31 44 11 60 10 113-5 78-22 132-72 184-174 62-120 103-169 163-192 28-10 31-15 26-39-10-52 7-117 43-164l34-45-25-12c-22-10-29-7-65 26-23 21-47 35-53 33-9-3-11-33-8-105 3-84-1-112-19-169-44-130-114-206-219-238l-63-19-45 24c-51 27-73 65-73 125 0 33 13 72 29 85 7 6 50 73 70 109 15 28 41 123 41 153 0 20 1 20 19-3 28-36 48-80 55-121 5-27 12-38 25-38 10 0 23-11 29-25 16-34-2-68-68-131-54-51-62-77-29-94 52-29 153 43 197 140s31 289-25 350c-10 11-16 11-25 2-7-7-20-12-30-12-14 0-17 5-12 24 7 30-18 56-56 56-16 0-35 3-44 6-21 8-52 61-61 103l-7 33 38-26c51-35 102-35 135 0 20 22 24 34 22 81-4 84-46 152-130 209-30 20-48 24-111 24-61 0-83-5-121-25-86-47-131-148-131-292 0-63-15-138-31-157-5-5-13 3-20 17-28 62-113 11-217-130-25-35-49-63-53-63-3 0-12 7-20 16-10 12-28 15-73 13-89-3-93-2-99 29-18 91 58 189 184 234 109 40 239 130 239 165 0 16-18 16-76 2-56-14-109-1-145 37-37 39-34 118 6 175 35 50 75 79 193 140 106 55 162 102 162 135 0 61-72 154-119 154-45 0-101-57-101-104 0-52-29-78-83-74-38 3-42 5-39 28 2 14 12 34 23 46 16 18 27 64 15 64-3 0-21-9-40-21-29-17-41-19-72-10-34 9-84 46-84 61 0 3 14 14 31 24 29 17 33 17 69 1 22-10 46-15 55-12 34 14 27 37-24 85-41 39-51 54-51 81 0 29 2 32 15 21 9-8 28-10 49-6zm-642-498c40-41 48-44 110-51 76-7 108 4 108 38 0 22 3 22 87-20 88-43 157-63 218-63h33l-15-31c-25-50-13-159 22-204 15-20 25-37 24-38-41-21-143-68-170-77-44-16-85 2-125 56-27 35-27 35-10 72 10 20 31 53 48 74 16 21 28 44 25 52-7 19-84 36-161 36-106 0-196-53-196-116 0-26-34-54-66-54-21 0-64 42-64 61 0 5 11 9 24 9 30 0 49 22 44 52-3 21-7 23-55 20-56-4-73 10-73 62 0 23 4 25 48 28l47 3 3 55c1 30 5 61 7 68 9 24 45 11 87-32zm382-578c-3-13-10-27-14-33-4-5-11-38-15-72l-7-61-161-4c-229-5-310-35-323-120-13-78-92-122-143-81-24 20-24 20-5 46 10 15 25 27 32 27 6 0 12 11 12 25 0 24-2 25-66 23-59-1-69 1-85 21-11 13-19 38-19 57 0 33 1 34 43 34 24 0 48-5 55-12 9-9 15-9 24 0s8 20-5 47c-16 34-16 36 4 56 30 30 89 8 89-33 0-27 29-68 49-68 33 0 61 30 61 66 0 19 2 34 3 34l38-17c19-9 61-19 95-21 53-4 68 0 130 31 39 20 96 42 128 51 32 8 61 17 64 20 13 14 23 4 16-16zm542-148c14 0 33 4 43 10 17 9 18 7 4-33-17-47-13-264 6-326 6-19 16-81 22-139 10-92 9-109-6-150l-18-45-23 46a424 424 0 0 1-262 191c-136 40-216 114-276 257l-15 36 37-18c20-11 47-19 59-19 20 0 23 5 23 41v41l38-6c20-4 60-18 88-32 28-13 54-24 57-24s9 17 13 38c9 51 48 110 102 154l46 37 18-29c12-21 26-30 44-30zm-1576-195a35904 35904 0 0 0 350-278l113-90 190-150 312-248c317-251 340-269 354-269 7 0 28 12 47 28 38 31 123 99 349 277l180 143c11 10 49 40 85 67s74 57 85 67l180 143c88 70 201 159 250 200l261 207 170 135 59-114c32-62 56-114 54-116l-59-47-65-52-75-61-116-93a40768 40768 0 0 1-650-514l-244-193-119-95-65-53-179-142-149-116-91 72-307 242a19327 19327 0 0 0-290 230l-76 60-170 135-359 285-233 186c-144 114-196 161-195 175 1 10 26 63 54 117l52 97 41-33 256-202zm932-21c42-7 60-23 81-76l16-38-38-10c-57-15-91-51-91-97 0-59-8-76-46-103-38-25-37-25-65 23-8 15-5 27 17 58 22 32 24 41 14 54-7 8-16 15-21 15s-36-27-70-60c-33-33-65-60-69-60-5 0-21 11-36 23l-28 24 22 30c15 22 33 32 61 37 37 6 58 27 45 47-3 5-25 9-48 9-35 0-47 5-60 25-19 29-21 64-3 69 56 18 86 14 116-15 57-54 121-35 121 37 0 22 3 25 23 20 12-3 39-9 59-12zm303-290c28-8 97-38 155-67 110-55 130-75 145-148 4-19 23-52 44-73 24-26 29-36 16-30-28 12-122 10-175-5-25-7-67-11-95-8-40 4-54 10-75 36-16 18-36 31-49 31-27 0-85 26-101 44-8 10 0 12 39 8 45-4 51-2 67 22 9 15 19 49 22 76 6 61-13 93-63 111-19 7-35 17-35 21 0 9 24 5 105-18zm-132-88c50-17 52-21 18-36-24-10-43-9-105 5-43 10-73 21-70 27 18 29 81 31 157 4zm-1623-46l118-93 143-114 104-83a45170 45170 0 0 0 625-495l70-55 220-175 246-194 64-51 94-75c111-92 146-117 159-112a19694 19694 0 0 1 653 514c121 94 397 312 419 331l210 167c263 207 287 226 395 314a5304 5304 0 0 0 194 153c22 17 22 17 59-85 57-160 58-146-16-203a33749 33749 0 0 1-663-524l-244-193-119-95-65-53-271-214-310-246a2369 2369 0 0 0-246-189c-8 0-182 133-339 260l-130 104-100 79a72187 72187 0 0 1-550 437 43154 43154 0 0 1-606 479l-50 41-119 95-102 80c-2 1 8 30 63 178 28 74 25 73 94 17zm3539-765c60-51 91-56 119-20l20 25 10-28c6-15 16-54 23-86 6-33 17-76 24-95l34-91c12-30 21-69 21-87 0-30-7-37-67-76-82-53-95-74-91-152l3-60 53-7c64-10 103-29 132-65 59-75 63-144 20-305-48-175-48-186-8-260 33-59 35-68 27-114-4-27-8-102-8-167l-1-118-23 27c-17 19-29 25-41 21-15-6-17-16-13-55a661 661 0 0 1 62-212c4-14 26-62 47-107 67-140 60-219-23-286-97-77-226-20-269 120-19 61-19 63 0 178l20 121c0 2 5 4 10 4 6 0 10-37 10-92 0-80 3-95 22-115 38-41 116-29 144 22 15 28 16 40 6 91-25 127-43 213-62 298-11 50-20 112-20 138 0 51 38 336 46 350 8 13-26 22-39 9-17-17-62-13-79 7-35 40-39 58-19 104 16 37 20 40 26 23 21-56 105-74 137-31 19 27 48 151 48 209 0 85-58 156-134 164-54 6-80-10-90-57-3-16-28-57-55-91a704 704 0 0 1-159-434c-8-135-5-132-105-134-64-1-103 17-159 74l-46 48-32-27c-18-15-38-25-44-23-18 6-19 103-1 141 10 20 53 64 108 107 51 40 113 94 138 120 58 59 121 154 117 176-2 10-23 21-56 29-68 18-97 39-122 90-42 85-18 194 52 230 29 15 187 22 208 9 5-3 31 0 59 6 59 12 125 70 136 118 8 35-17 120-47 164-15 20-28 27-54 27-36 0-40-5-74-98-18-47-56-54-88-16-19 21-21 29-11 33 21 7 79 52 79 62 0 5-18 9-40 9-45 0-80 27-80 60 0 17 7 20 49 20 28 0 52 4 55 9s-1 22-9 37c-8 16-15 34-15 40 0 8 37 28 61 33 3 1 29-19 58-44zm-3042-289c25-30 77-36 91-10 13 23 25 13 60-50 44-77 140-155 279-225 34-18 65-36 67-40 3-4-19-30-48-57-56-52-86-99-86-134 0-18 6-20 71-20 102 0 154-34 185-121 16-43 21-49 47-49 110 0 189-65 235-195 12-33 24-78 27-100 4-22 13-58 22-80 11-30 13-60 8-125l-7-85 36-34c37-36 47-76 25-98-19-19-94 45-118 100-11 26-24 47-29 47-16 0-42-70-42-113 0-78 57-197 120-250 66-56 177-59 283-6 55 27 57 27 46 6-6-12-18-30-27-40-8-9-12-20-8-25 4-4 60-7 124-7 111 0 120-1 170-30 29-16 70-45 90-64l37-35-63-7c-34-5-124-29-200-56a533 533 0 0 0-222-47c-77 0-91 3-147 33a525 525 0 0 0-239 297 410 410 0 0 0 48 365c15 25 28 51 28 57 0 13-24 22-63 22-53 0-77 11-92 41l-15 31c0 2 24 2 52 0 48-3 57 0 93 31 39 34 40 36 39 98-1 81-32 148-89 194-57 47-119 49-187 6a538 538 0 0 1-183-269c-5-22-11-30-18-25-26 19-87 32-182 39-108 7-177 30-195 63-9 18-7 25 15 45 23 21 180 96 202 96 16 0 63 51 69 75 9 37-3 47-36 30-43-22-118-19-160 6-49 30-90 91-90 134 0 29 28 85 54 108 38 32 116 67 164 74 54 7 82 27 82 57-1 31-18 48-90 90-105 62-191 60-271-5-25-20-28-20-53-4-31 21-33 31-6 38 41 11 10 77-36 77-29 0-66 38-62 65 2 16 12 21 46 23 57 4 64 24 22 67-34 35-33 55 3 55 12 0 29 5 37 10 15 10 20 6 87-74zm2400-269c28-10 82-17 120-17h68v-42c1-87 14-118 72-179l55-58-18-31c-27-45-86-77-120-64-51 18-68 55-72 158-4 89-6 96-34 123-64 61-166 23-213-80-12-29-25-61-26-71-7-33-52-59-88-51-41 9-50 32-22 51 30 21 27 52-6 65-46 18-56 25-67 42-15 23 20 60 50 53 49-13 67 14 39 57-13 20-13 25 0 45 16 21 16 21 35 2 13-13 34-20 55-20 40 0 95 24 95 41 0 8 4 8 13 2 6-6 35-17 64-26zm-2890-176c7 0 19-14 27-30 8-15 27-36 41-45 24-16 28-16 61 0 25 12 37 25 41 45 6 30 13 35 28 20 16-15 145-51 184-51h36v-72c1-86 24-139 81-185l38-30-44-28c-87-55-150-47-197 24-20 30-22 41-16 107 8 98-4 114-91 114-86 0-119-22-140-93-9-30-16-59-16-64s-11-20-25-33c-30-28-87-32-111-8-14 14-13 19 10 57 15 22 33 41 42 41 10 0 14 7 12 23-2 17-9 22-28 20-97-8-102-7-121 16-23 29-24 54-3 76 13 12 19 13 24 5 4-7 28-15 54-17 41-5 46-3 46 14 0 12-7 26-15 33-17 14-20 41-5 56 8 8 40 10 87 5zm2912-453c-5-18-9-63-9-100v-67l-37-6c-249-38-322-81-362-214-12-38-21-74-21-81 0-20-39-68-60-75-14-4-27 2-45 22-32 36-31 43 6 98 29 43 33 75 9 75-5 0-29-13-52-30-22-16-53-30-68-30-31 0-66 33-75 73-6 23-4 27 13 27 11 0 25 6 31 14 10 11 18 11 55-2 37-14 47-14 60-3 26 21 19 47-18 69-48 28-57 50-41 90 8 17 18 32 24 32 12 0 70-48 95-78 16-20 26-23 80-20 61 3 61 3 64 36 2 23 8 32 21 32 32 0 85 27 149 75 51 38 157 93 184 95 4 0 2-15-3-32zm-2420-178c66 0 110-15 180-60 34-22 69-40 78-40s31 11 48 25l33 24 6-29c6-34 26-38 66-15 14 8 33 14 43 15 14 0 16-4 7-19-21-40-11-136 25-247 19-58 35-118 35-133 0-38-33-159-60-216l-22-50-22 65c-41 121-78 161-227 240-214 114-276 197-287 383l-5 101 28-22c19-15 42-22 74-22zm-437-33c17-5 45 0 79 13 28 11 78 23 110 27l59 6v-142l-32 10c-75 21-220 0-307-44-34-18-52-36-75-80-37-67-61-92-98-101-26-6-28-4-28 28 0 18 7 39 15 46 23 19 18 28-17 36-45 9-78 33-78 55 0 14 7 19 28 19 34 0 72 25 72 48 0 9-7 26-15 36-8 11-15 30-15 43 0 20 5 23 38 23 26 0 45-7 57-20 12-14 31-20 57-20 35 0 41 4 51 30l11 29 31-18c17-10 43-21 57-24zm3060-77c72-50 218-63 290-26l25 13 6-91c4-50 13-116 22-146 23-79 31-235 15-299l-12-53-26 44c-48 83-96 123-237 198-44 24-104 61-133 83-97 74-183 185-169 221 3 7 30 21 60 31 30 9 67 25 83 36l31 19c1 0 22-13 45-30zm-2744-204l29-54-41-12c-122-36-267-144-311-230-26-51-45-139-38-185 6-46-9-93-33-102-26-10-56 33-49 68 8 35-7 44-44 24-22-11-32-25-37-50-6-36-36-65-64-65-8 0-26 9-40 20-31 23-21 47 29 69 34 16 40 47 11 61l-42 20-27 13 22 28c13 17 32 28 47 29 69 2 160 75 160 129 0 23 7 31 39 43 33 13 45 27 70 76 27 54 36 62 96 91 41 20 70 41 77 57 10 21 18 24 64 24h52l30-54zm2536-52l38-46-23-16-109-71c-152-96-190-145-190-245 0-59-23-98-65-110-18-5-22 1-34 54-15 65-30 74-75 45-21-14-25-14-49 5l-26 21 25 28c15 17 41 32 60 36 29 5 35 10 32 28-2 15-12 23-32 27-19 3-36 16-47 35-28 48-24 62 19 67 32 4 41 0 68-29 40-44 77-44 125 0 57 52 84 96 71 117-9 15-6 18 28 23 21 3 63 21 92 41l53 36 39-46zM1753 870c123-12 167-29 217-86 32-37 32-39 27-106-6-65-5-70 24-102 18-21 27-40 23-50-4-11-10-13-18-7-25 20-76 22-140 6-60-15-70-15-109-2l-117 42c-111 40-138 72-44 52 63-13 108 2 129 44 18 34 19 65 4 125-13 50-39 69-112 84-62 12-11 12 116 0zm2607-15l78-40c45-22 57-33 77-78 14-28 25-59 25-68s18-32 40-52c47-42 56-83 14-67-45 17-119 11-190-16-75-28-108-27-153 6-16 10-48 22-72 26-56 9-99 30-99 50 0 13 6 14 33 7 17-4 55-8 82-8 49 0 51-1 47-27-6-37 34-63 84-54 49 10 84 27 84 41 0 16-77 45-119 45-28 0-32 3-26 18 45 109-1 211-98 213-32 0-38 2-22 9 35 15 187 11 215-5zm-2735-71c14-6 14-8-1-25-25-28-65-32-163-14-89 17-102 26-57 46 21 9 192 4 221-7zm2513-46c29-18 32-22 18-30-21-12-62-13-153-3l-72 8 23 18c56 44 121 46 184 7z"/><path d="M2957 3475c-23-22-21-38 7-64 21-20 31-22 74-16 28 4 58 12 68 20 16 11 14 15-22 38-53 35-106 44-127 22zM1727 623c-29-28 19-83 72-83 37 0 81 31 81 57 0 25-132 48-153 26z"/></g></svg>