<svg xmlns="http://www.w3.org/2000/svg" viewBox="108.1 195 396.9 403.3"><style>.st1{fill:#3c4b50}.st2{fill:#85d3f6}.st3{opacity:.1;fill:#010101}.st7{fill:#78b2bf}.st8{fill:#9fa1a3}.st11{fill:#bbb}.st13,.st15{opacity:.15;fill:#010101}.st15{opacity:8.000000e-02}.st17{fill:#3a7999}.st25{fill:#d7d6d6}.st26{fill:#e9eee3}.st28{fill:#354143}</style><path fill="#68798a" d="M193.2 334h86.9v246.4h-86.9z"/><g class="st1"><path d="M197 334h.7v246.4h-.7zM201.1 334h.7v246.4h-.7zM205.3 334h.7v246.4h-.7zM209.4 334h.7v246.4h-.7zM213.5 334h.7v246.4h-.7zM217.7 334h.7v246.4h-.7zM221.8 334h.7v246.4h-.7zM225.9 334h.7v246.4h-.7zM230.1 334h.7v246.4h-.7zM234.2 334h.7v246.4h-.7zM238.4 334h.7v246.4h-.7zM242.5 334h.7v246.4h-.7zM246.6 334h.7v246.4h-.7zM250.8 334h.7v246.4h-.7zM254.9 334h.7v246.4h-.7zM259 334h.7v246.4h-.7zM263.2 334h.7v246.4h-.7zM267.3 334h.7v246.4h-.7zM271.5 334h.7v246.4h-.7zM275.6 334h.7v246.4h-.7z"/></g><g class="st2"><path d="M193.2 337.7h86.9v.6h-86.9zM193.2 341.8h86.9v.6h-86.9zM193.2 345.8h86.9v.6h-86.9zM193.2 349.8h86.9v.6h-86.9zM193.2 353.9h86.9v.6h-86.9zM193.2 357.9h86.9v.6h-86.9zM193.2 362h86.9v.6h-86.9zM193.2 366h86.9v.6h-86.9zM193.2 370h86.9v.6h-86.9zM193.2 374.1h86.9v.6h-86.9zM193.2 378.1h86.9v.6h-86.9zM193.2 382.1h86.9v.6h-86.9zM193.2 386.2h86.9v.6h-86.9zM193.2 390.2h86.9v.6h-86.9zM193.2 394.3h86.9v.6h-86.9zM193.2 398.3h86.9v.6h-86.9zM193.2 402.3h86.9v.6h-86.9zM193.2 406.4h86.9v.6h-86.9zM193.2 410.4h86.9v.6h-86.9zM193.2 414.5h86.9v.6h-86.9zM193.2 418.5h86.9v.6h-86.9zM193.2 422.5h86.9v.6h-86.9zM193.2 426.6h86.9v.6h-86.9zM193.2 430.6h86.9v.6h-86.9zM193.2 434.7h86.9v.6h-86.9zM193.2 438.7h86.9v.6h-86.9zM193.2 442.7h86.9v.6h-86.9zM193.2 446.8h86.9v.6h-86.9zM193.2 450.8h86.9v.6h-86.9zM193.2 454.8h86.9v.6h-86.9zM193.2 458.9h86.9v.6h-86.9zM193.2 462.9h86.9v.6h-86.9zM193.2 467h86.9v.6h-86.9zM193.2 471h86.9v.6h-86.9zM193.2 475h86.9v.6h-86.9zM193.2 479.1h86.9v.6h-86.9zM193.2 483.1h86.9v.6h-86.9zM193.2 487.2h86.9v.6h-86.9zM193.2 491.2h86.9v.6h-86.9zM193.2 495.2h86.9v.6h-86.9zM193.2 499.3h86.9v.6h-86.9zM193.2 503.3h86.9v.6h-86.9zM193.2 507.3h86.9v.6h-86.9zM193.2 511.4h86.9v.6h-86.9zM193.2 515.4h86.9v.6h-86.9zM193.2 519.5h86.9v.6h-86.9zM193.2 523.5h86.9v.6h-86.9zM193.2 527.5h86.9v.6h-86.9zM193.2 531.6h86.9v.6h-86.9zM193.2 535.6h86.9v.6h-86.9zM193.2 539.7h86.9v.6h-86.9zM193.2 543.7h86.9v.6h-86.9zM193.2 547.7h86.9v.6h-86.9zM193.2 551.8h86.9v.6h-86.9zM193.2 555.8h86.9v.6h-86.9zM193.2 559.9h86.9v.6h-86.9zM193.2 563.9h86.9v.6h-86.9zM193.2 567.9h86.9v.6h-86.9zM193.2 572h86.9v.6h-86.9zM193.2 576h86.9v.6h-86.9z"/></g><path d="M192.8 334h.7v246.4h-.7zM279.7 334h.7v246.4h-.7z" class="st1"/><path d="M280.4 334.3l-87.6.2v-.5l87.6-.3z" class="st2"/><path d="M280.4 403.3l-78.9-57.5V334l78.9-.3z" class="st3"/><path fill="#73bbd8" d="M271.8 331.6s-.5-.3-.8 0v-12.1c0-.6 0-1.2-.2-1.8-.2-.8-.8-1.6-1.3-2.3l-9.9-13-4.9 16.1h-36.2l-4.9-16.1-9.9 13c-.5.7-1.1 1.5-1.3 2.3-.2.6-.2 1.2-.2 1.8v12.4c-.3-.3-.8-.4-.8-.4v13.3c0 1.2.5 1.2.5 1.2 1.2 0 .8-3.3.8-3.9v-2.2c.1-.3.1-.8.5-.8.5 0 .7.4.8.8.2.6.2 1.3.2 2 0 .6-.1 1.2.3 1.7l.3.2c.2 0 .3-.3.3-.5 0-1.2-.5-3.7.4-4.7l.3-.2c.4-.1.7.2.8.6.1.3-.2 1.4.6 1.1l.4-.3h57.8l.4.3c.8.4.5-.8.6-1.1.1-.3.4-.7.8-.6l.3.2c.9.9.4 3.5.4 4.7 0 .2.1.5.3.5l.3-.2c.4-.5.3-1.1.3-1.7 0-.7 0-1.3.2-2 .1-.4.4-.9.8-.8.4 0 .4.5.5.8v2.2c0 .6-.4 3.9.8 3.9 0 0 .5 0 .5-1.2v-3.7"/><path fill="#528793" d="M201.5 330.9h70.3v3.1h-70.3z"/><path fill="#62A1B5" d="M202.2 327.9h68.7v3.1h-68.7z"/><g><path d="M350.6 256.8L328.5 207h-17l-22.1 49.8h-8.9v320.3h79V256.8z" class="st7"/><path d="M312.6 206.6h2.5V307h-2.5zM324.9 206.6h2.5V307h-2.5z" class="st8"/><path d="M328.5 207l22.1 49.9h8.9v320.2h-79V256.8h8.9l22.1-49.9h17m1.6-2.4H309.9l-.7 1.5-21.4 48.4H278v325.2h84V254.3h-9.8L330.8 206l-.7-1.5z" class="st8"/><g fill="#BCB7B0"><path d="M307.1 306.8v-31.4h-8v-18.6h-18.6v320.4h2.9v-8.5h5.2v8.5h2.9v-8.5h5v8.5h2.9v-8.5h5v8.5h2.9v-8.5h5.5v8.5h2.5V306.8h-8.2zm-23.8 10.7h5.2v5h-5.2v-5zm11-23.5h2.1v5h-5v-5h2.9zm2 7.8v5h-5v-5h5zm0 7.9v5h-5v-5h5zm0 7.8v5h-5v-5h5zm-13 211.9h5.2v5h-5.2v-5zm13-188.3v5h-5v-5h5zm-4.9-2.9v-5h5v5h-5zm4.9 10.7v5h-5v-5h5zm0 7.9v5h-5v-5h5zm0 7.8v5h-5v-5h5zm0 7.8v5h-5v-5h5zm0 7.9v5h-5v-5h5zm-13 7.8h5.2v5h-5.2v-5zm0 7.9h5.2v5h-5.2v-5zm0 7.8h5.2v5h-5.2v-5zm0 7.9h5.2v5h-5.2v-5zm0 7.8h5.2v5h-5.2v-5zm0 7.9h5.2v5h-5.2v-5zm8.1 0h5v5h-5v-5zm0-2.9v-5h5v5h-5zm0-7.9v-5h5v5h-5zm0-7.8v-5h5v5h-5zm0-7.8v-5h5v5h-5zm0-7.9v-5h5v5h-5zm-2.9-7.8h-5.2v-5h5.2v5zm-5.2 49.9h5.2v5h-5.2v-5zm8.1 0h5v5h-5v-5zm4.9 7.9v5h-5v-5h5zm0 7.8v5h-5v-5h5zm-13 7.9h5.2v5h-5.2v-5zm0 7.8h5.2v5h-5.2v-5zm0 7.9h5.2v5h-5.2v-5zm0 7.8h5.2v5h-5.2v-5zm0 7.8h5.2v5h-5.2v-5zm0 7.9h5.2v5h-5.2v-5zm8.1 0h5v5h-5v-5zm0-2.9v-5h5v5h-5zm0-7.8v-5h5v5h-5zm0-7.9v-5h5v5h-5zm0-7.8v-5h5v5h-5zm0-7.9v-5h5v5h-5zm-2.9-7.8h-5.2v-5h5.2v5zm-5.2 49.9h5.2v5h-5.2v-5zm8.1 0h5v5h-5v-5zm4.9 7.9v5h-5v-5h5zm0 7.8v5h-5v-5h5zm0 7.9v5h-5v-5h5zm0 7.8v5h-5v-5h5zm-13 0h5.2v5h-5.2v-5zm0 7.9h5.2v5h-5.2v-5zm8.1 0h5v5h-5v-5zm7.8 0h5v5h-5v-5zm0-2.9v-5h5v5h-5zm0-7.9v-5h5v5h-5zm0-7.8v-5h5v5h-5zm0-7.8v-5h5v5h-5zm0-7.9v-5h5v5h-5zm0-7.8v-5h5v5h-5zm0-7.9v-5h5v5h-5zm0-7.8v-5h5v5h-5zm0-7.9v-5h5v5h-5zm0-7.8v-5h5v5h-5zm0-7.9v-5h5v5h-5zm0-7.8v-5h5v5h-5zm0-7.9v-5h5v5h-5zm0-7.8v-5h5v5h-5zm0-7.9v-5h5v5h-5zm0-7.8v-5h5v5h-5zm0-7.9v-5h5v5h-5zm0-7.8v-5h5v5h-5zm0-7.8v-5h5v5h-5zm0-7.9v-5h5v5h-5zm0-7.8v-5h5v5h-5zm0-7.9v-5h5v5h-5zm0-7.8v-5h5v5h-5zm0-7.9v-5h5v5h-5zm0-7.8v-5h5v5h-5zm0-7.9v-5h5v5h-5zm0-7.8v-5h5v5h-5zm0-7.9v-5h5v5h-5zm-2.9 0h-5v-5h5v5zm-13-4.9h5.2v5h-5.2v-5zm0 7.8h5.2v5h-5.2v-5zm0 7.9h5.2v5h-5.2v-5zm0 7.8h5.2v5h-5.2v-5zm0 7.9h5.2v5h-5.2v-5zm0 7.8h5.2v5h-5.2v-5zm0 7.8h5.2v5h-5.2v-5zm0 70.7h5.2v5h-5.2v-5zm0 70.6h5.2v5h-5.2v-5zm5.2 7.8v5h-5.2v-5h5.2zm-5.2 31.4h5.2v5h-5.2v-5zm8.1 0h5v5h-5v-5zm7.8 0h5v5h-5v-5zm7.9 0h5.5v5h-5.5v-5zm0-2.9v-5h5.5v5h-5.5zm0-7.8v-5h5.5v5h-5.5zm0-7.9v-5h5.5v5h-5.5zm0-7.8v-5h5.5v5h-5.5zm0-7.8v-5h5.5v5h-5.5zm0-7.9v-5h5.5v5h-5.5zm0-7.8v-5h5.5v5h-5.5zm0-7.9v-5h5.5v5h-5.5zm0-7.8v-5h5.5v5h-5.5zm0-7.9v-5h5.5v5h-5.5zm0-7.8v-5h5.5v5h-5.5zm0-7.9v-5h5.5v5h-5.5zm0-7.8v-5h5.5v5h-5.5zm0-7.9v-5h5.5v5h-5.5zm0-7.8v-5h5.5v5h-5.5zm0-7.9v-5h5.5v5h-5.5zm0-7.8v-5h5.5v5h-5.5zm0-7.9v-5h5.5v5h-5.5zm0-7.8v-5h5.5v5h-5.5zm0-7.8v-5h5.5v5h-5.5zm0-7.9v-5h5.5v5h-5.5zm0-7.8v-5h5.5v5h-5.5zm0-7.9v-5h5.5v5h-5.5zm0-7.8v-5h5.5v5h-5.5zm0-7.9v-5h5.5v5h-5.5zm0-7.8v-5h5.5v5h-5.5zm0-7.9v-5h5.5v5h-5.5zm0-7.8v-5h5.5v5h-5.5zm0-7.9v-5h5.5v5h-5.5zm0-7.8v-5h5.5v5h-5.5zm-2.9 0h-5v-5h5v5zm-5-7.9v-5h5v5h-5zm0-7.8v-5h5v5h-5zm5-7.9h-5v-5h5v5zm-20.9-23.5h5.2V291h-5.2v-15.6zm0 18.6h5.2v5h-5.2v-5zm0 7.8h5.2v5h-5.2v-5zm5.2 7.9v5h-5.2v-5h5.2zm-5.2 256v-5h5.2v5h-5.2zm8.1 0v-5h5v5h-5zm7.8 0v-5h5v5h-5zm7.9 0v-5h5.5v5h-5.5zm5.5-251.1h-5.5v-5h5.5v5zM359.5 317.5V256.6h-18.6v18.6h-8v31.7H325v270.3h2.5v-8.5h5.5v8.5h2.9v-8.5h5v8.5h2.9v-8.5h5v8.4h2.8v-8.4h5.2v8.5h2.9V322.3l-.2-4.8zm-2.9-2.9h-5.2v-5h5.2v5zm-15.9 2.9v5h-5v-5h5zm-4.9-2.9v-5h5v5h-5zm-8.4 214.8h5.5v5h-5.5v-5zm0 7.8h5.5v5h-5.5v-5zm0 7.9h5.5v5h-5.5v-5zm8.4 0h5v5h-5v-5zm0-2.9v-5h5v5h-5zm0-7.9v-5h5v5h-5zm0-7.8v-5h5v5h-5zm0-7.8v-5h5v5h-5zm0-7.9v-5h5v5h-5zm-8.4-52h5.5v5h-5.5v-5zm0 7.8h5.5v5h-5.5v-5zm0 7.9h5.5v5h-5.5v-5zm0 7.8h5.5v5h-5.5v-5zm0 7.8h5.5v5h-5.5v-5zm0 7.9h5.5v5h-5.5v-5zm0 7.8h5.5v5h-5.5v-5zm8.4-2.8v-5h5v5h-5zm0-7.9v-5h5v5h-5zm0-7.8v-5h5v5h-5zm0-7.9v-5h5v5h-5zm0-7.8v-5h5v5h-5zm0-7.9v-5h5v5h-5zm0-7.8v-5h5v5h-5zm0-7.9v-5h5v5h-5zm0-7.8v-5h5v5h-5zm-8.4-52.1h5.5v5h-5.5v-5zm0 7.9h5.5v5h-5.5v-5zm0 7.8h5.5v5h-5.5v-5zm0 7.9h5.5v5h-5.5v-5zm0 7.8h5.5v5h-5.5v-5zm0 7.9h5.5v5h-5.5v-5zm0 7.8h5.5v5h-5.5v-5zm8.4-2.9v-5h5v5h-5zm0-7.8v-5h5v5h-5zm0-7.9v-5h5v5h-5zm0-7.8v-5h5v5h-5zm0-7.8v-5h5v5h-5zm0-7.9v-5h5v5h-5zm0-7.8v-5h5v5h-5zm0-7.9v-5h5v5h-5zm0-7.8v-5h5v5h-5zm0-7.9v-5h5v5h-5zm0-7.8v-5h5v5h-5zm0-7.9v-5h5v5h-5zm0-7.8v-5h5v5h-5zm0-7.9v-5h5v5h-5zm-2.9-7.8h-5.5v-5h5.5v5zm0 2.9v5h-5.5v-5h5.5zm0 7.8v5h-5.5v-5h5.5zm0 7.9v5h-5.5v-5h5.5zm0 7.8v5h-5.5v-5h5.5zm0 7.9v5h-5.5v-5h5.5zm0 7.8v5h-5.5v-5h5.5zm0 7.8v5h-5.5v-5h5.5zm0 7.9v5h-5.5v-5h5.5zm-5.5 62.8h5.5v5h-5.5v-5zm5.5 7.8v5h-5.5v-5h5.5zm-5.5 62.8h5.5v5h-5.5v-5zm5.5 7.8v5h-5.5v-5h5.5zm-5.5 31.4h5.5v5h-5.5v-5zm8.4 0h5v5h-5v-5zm7.8 0h5v5h-5v-5zm0-2.9v-5h5v5h-5zm0-7.8v-5h5v5h-5zm0-7.9v-5h5v5h-5zm0-7.8v-5h5v5h-5zm0-7.8v-5h5v5h-5zm0-7.9v-5h5v5h-5zm0-7.8v-5h5v5h-5zm0-7.9v-5h5v5h-5zm0-7.8v-5h5v5h-5zm0-7.9v-5h5v5h-5zm0-7.8v-5h5v5h-5zm0-7.9v-5h5v5h-5zm0-7.8v-5h5v5h-5zm0-7.9v-5h5v5h-5zm0-7.8v-5h5v5h-5zm0-7.9v-5h5v5h-5zm0-7.8v-5h5v5h-5zm0-7.9v-5h5v5h-5zm0-7.8v-5h5v5h-5zm0-7.8v-5h5v5h-5zm0-7.9v-5h5v5h-5zm0-7.8v-5h5v5h-5zm0-7.9v-5h5v5h-5zm0-7.8v-5h5v5h-5zm0-7.9v-5h5v5h-5zm0-7.8v-5h5v5h-5zm0-7.9v-5h5v5h-5zm0-7.8v-5h5v5h-5zm0-7.9v-5h5v5h-5zm0-7.8v-5h5v5h-5zm0-7.9v-5h5v5h-5zm2.1-20.6h2.9v5h-5v-5h2.1zm2.9 7.8v5h-5v-5h5zm8 5h-5.2v-5h5.2v5zm0-7.9h-5.2v-5h5.2v5zm0-7.8h-5.2v-5h5.2v5zm0-15.7v7.8h-5.2v-7.8h5.2zM335.8 294h5v5h-5v-5zm0 7.8h5v5h-5v-5zm-2.9 7.9v5h-5.5v-5h5.5zm-5.5 256v-5h5.5v5h-5.5zm8.4 0v-5h5v5h-5zm7.8 0v-5h5v5h-5zm13 0h-5.2v-5h5.2v5zm0-7.8h-5.2v-5h5.2v5zm0-7.9h-5.2v-5h5.2v5zm0-7.8h-5.2v-5h5.2v5zm0-7.9h-5.2v-5h5.2v5zm0-7.8h-5.2v-5h5.2v5zm0-7.8h-5.2v-5h5.2v5zm0-7.9h-5.2v-5h5.2v5zm0-7.8h-5.2v-5h5.2v5zm0-7.9h-5.2v-5h5.2v5zm0-7.8h-5.2v-5h5.2v5zm0-7.9h-5.2v-5h5.2v5zm0-7.8h-5.2v-5h5.2v5zm0-7.9h-5.2v-5h5.2v5zm0-7.8h-5.2v-5h5.2v5zm0-7.9h-5.2v-5h5.2v5zm0-7.8h-5.2v-5h5.2v5zm0-7.9h-5.2v-5h5.2v5zm0-7.8h-5.2v-5h5.2v5zm0-7.9h-5.2v-5h5.2v5zm0-7.8h-5.2v-5h5.2v5zm0-7.8h-5.2v-5h5.2v5zm0-7.9h-5.2v-5h5.2v5zm0-7.8h-5.2v-5h5.2v5zm0-7.9h-5.2v-5h5.2v5zm0-7.8h-5.2v-5h5.2v5zm0-7.9h-5.2v-5h5.2v5zm0-7.8h-5.2v-5h5.2v5zm0-7.9h-5.2v-5h5.2v5zm0-7.8h-5.2v-5h5.2v5zm0-7.9h-5.2v-5h5.2v5zm0-7.8h-5.2v-5h5.2v5z"/></g><g fill="#6FA6B7"><path d="M283.3 259.7h12.8v12.8h-12.8zM291.4 278.3h12.8v12.8h-12.8zM343.8 259.7h12.8v12.8h-12.8zM335.8 278.3h12.8v12.8h-12.8z"/></g><path d="M322.6 195h5.9v7.5h-5.9zM311.5 195h5.9v7.5h-5.9z" class="st8"/><path d="M299 256.8l33.9 37.2v12.8h-8v289.5h-9.8V307l-8-.2v-31.4H299z" class="st3"/></g><g><path d="M359.5 332.8H385v-7.9h30.4v7.9h25v219.1h-80.9z" class="st11"/><path d="M441.6 553.1h-83.3V331.6h25.9v-9.2h31.5v9.2h25.9v221.5zm-80.9-2.4h78.5V334h-25v-7.9h-28v7.9h-25.5v216.7z" class="st11"/><path d="M385 324.9h30.4v4.7H385z" class="st7"/><g class="st7"><path d="M360.9 340.4h23.3v3.1h-23.3zM360.9 344.5h23.3v3.1h-23.3zM360.9 348.5h23.3v3.1h-23.3zM360.9 352.6h23.3v3.1h-23.3zM360.9 356.6h23.3v3.1h-23.3zM360.9 360.6h23.3v3.1h-23.3zM360.9 364.7h23.3v3.1h-23.3zM360.9 368.7h23.3v3.1h-23.3zM360.9 372.7h23.3v3.1h-23.3zM360.9 376.8h23.3v3.1h-23.3zM360.9 380.8h23.3v3.1h-23.3zM360.9 384.9h23.3v3.1h-23.3zM360.9 388.9h23.3v3.1h-23.3zM360.9 392.9h23.3v3.1h-23.3zM360.9 397h23.3v3.1h-23.3zM360.9 401h23.3v3.1h-23.3zM360.9 405h23.3v3.1h-23.3zM360.9 409.1h23.3v3.1h-23.3zM360.9 413.1h23.3v3.1h-23.3zM360.9 417.2h23.3v3.1h-23.3zM360.9 421.2h23.3v3.1h-23.3zM360.9 425.2h23.3v3.1h-23.3zM360.9 429.3h23.3v3.1h-23.3zM360.9 433.3h23.3v3.1h-23.3zM360.9 437.3h23.3v3.1h-23.3zM360.9 441.4h23.3v3.1h-23.3zM360.9 445.4h23.3v3.1h-23.3zM360.9 449.4h23.3v3.1h-23.3zM360.9 453.5h23.3v3.1h-23.3zM360.9 457.5h23.3v3.1h-23.3zM360.9 461.6h23.3v3.1h-23.3zM360.9 465.6h23.3v3.1h-23.3zM360.9 469.6h23.3v3.1h-23.3zM360.9 473.7h23.3v3.1h-23.3zM360.9 477.7h23.3v3.1h-23.3zM360.9 481.7h23.3v3.1h-23.3zM360.9 485.8h23.3v3.1h-23.3zM360.9 489.8h23.3v3.1h-23.3zM360.9 493.9h23.3v3.1h-23.3zM360.9 497.9h23.3v3.1h-23.3zM360.9 501.9h23.3v3.1h-23.3zM360.9 506h23.3v3.1h-23.3zM360.9 510h23.3v3.1h-23.3zM360.9 514h23.3v3.1h-23.3zM360.9 518.1h23.3v3.1h-23.3zM360.9 522.1h23.3v3.1h-23.3zM360.9 526.2h23.3v3.1h-23.3zM360.9 530.2h23.3v3.1h-23.3zM360.9 534.2h23.3v3.1h-23.3zM360.9 538.3h23.3v3.1h-23.3zM360.9 542.3h23.3v3.1h-23.3zM360.9 546.3h23.3v3.1h-23.3zM415.7 340.4H439v3.1h-23.3zM415.7 344.5H439v3.1h-23.3zM415.7 348.5H439v3.1h-23.3zM415.7 352.6H439v3.1h-23.3zM415.7 356.6H439v3.1h-23.3zM415.7 360.6H439v3.1h-23.3zM415.7 364.7H439v3.1h-23.3zM415.7 368.7H439v3.1h-23.3zM415.7 372.7H439v3.1h-23.3zM415.7 376.8H439v3.1h-23.3zM415.7 380.8H439v3.1h-23.3zM415.7 384.9H439v3.1h-23.3zM415.7 388.9H439v3.1h-23.3zM415.7 392.9H439v3.1h-23.3zM415.7 397H439v3.1h-23.3zM415.7 401H439v3.1h-23.3zM415.7 405H439v3.1h-23.3zM415.7 409.1H439v3.1h-23.3zM415.7 413.1H439v3.1h-23.3zM415.7 417.2H439v3.1h-23.3zM415.7 421.2H439v3.1h-23.3zM415.7 425.2H439v3.1h-23.3zM415.7 429.3H439v3.1h-23.3zM415.7 433.3H439v3.1h-23.3zM415.7 437.3H439v3.1h-23.3zM415.7 441.4H439v3.1h-23.3zM415.7 445.4H439v3.1h-23.3zM415.7 449.4H439v3.1h-23.3zM415.7 453.5H439v3.1h-23.3zM415.7 457.5H439v3.1h-23.3zM415.7 461.6H439v3.1h-23.3zM415.7 465.6H439v3.1h-23.3zM415.7 469.6H439v3.1h-23.3zM415.7 473.7H439v3.1h-23.3zM415.7 477.7H439v3.1h-23.3zM415.7 481.7H439v3.1h-23.3zM415.7 485.8H439v3.1h-23.3zM415.7 489.8H439v3.1h-23.3zM415.7 493.9H439v3.1h-23.3zM415.7 497.9H439v3.1h-23.3zM415.7 501.9H439v3.1h-23.3zM415.7 506H439v3.1h-23.3zM415.7 510H439v3.1h-23.3zM415.7 514H439v3.1h-23.3zM415.7 518.1H439v3.1h-23.3zM415.7 522.1H439v3.1h-23.3zM415.7 526.2H439v3.1h-23.3zM415.7 530.2H439v3.1h-23.3zM415.7 534.2H439v3.1h-23.3zM415.7 538.3H439v3.1h-23.3zM415.7 542.3H439v3.1h-23.3zM415.7 546.3H439v3.1h-23.3zM386.1 340.4h27.7v3.1h-27.7zM386.1 344.5h27.7v3.1h-27.7zM386.1 348.5h27.7v3.1h-27.7zM386.1 352.6h27.7v3.1h-27.7zM386.1 356.6h27.7v3.1h-27.7zM386.1 360.6h27.7v3.1h-27.7zM386.1 364.7h27.7v3.1h-27.7zM386.1 368.7h27.7v3.1h-27.7zM386.1 372.7h27.7v3.1h-27.7zM386.1 376.8h27.7v3.1h-27.7zM386.1 380.8h27.7v3.1h-27.7zM386.1 384.9h27.7v3.1h-27.7zM386.1 388.9h27.7v3.1h-27.7zM386.1 392.9h27.7v3.1h-27.7zM386.1 397h27.7v3.1h-27.7zM386.1 401h27.7v3.1h-27.7zM386.1 405h27.7v3.1h-27.7zM386.1 409.1h27.7v3.1h-27.7zM386.1 413.1h27.7v3.1h-27.7zM386.1 417.2h27.7v3.1h-27.7zM386.1 421.2h27.7v3.1h-27.7zM386.1 425.2h27.7v3.1h-27.7zM386.1 429.3h27.7v3.1h-27.7zM386.1 433.3h27.7v3.1h-27.7zM386.1 437.3h27.7v3.1h-27.7zM386.1 441.4h27.7v3.1h-27.7zM386.1 445.4h27.7v3.1h-27.7zM386.1 449.4h27.7v3.1h-27.7zM386.1 453.5h27.7v3.1h-27.7zM386.1 457.5h27.7v3.1h-27.7zM386.1 461.6h27.7v3.1h-27.7zM386.1 465.6h27.7v3.1h-27.7zM386.1 469.6h27.7v3.1h-27.7zM386.1 473.7h27.7v3.1h-27.7zM386.1 477.7h27.7v3.1h-27.7zM386.1 481.7h27.7v3.1h-27.7zM386.1 485.8h27.7v3.1h-27.7zM386.1 489.8h27.7v3.1h-27.7zM386.1 493.9h27.7v3.1h-27.7zM386.1 497.9h27.7v3.1h-27.7zM386.1 501.9h27.7v3.1h-27.7zM386.1 506h27.7v3.1h-27.7zM386.1 510h27.7v3.1h-27.7zM386.1 514h27.7v3.1h-27.7zM386.1 518.1h27.7v3.1h-27.7zM386.1 522.1h27.7v3.1h-27.7zM386.1 526.2h27.7v3.1h-27.7zM386.1 530.2h27.7v3.1h-27.7zM386.1 534.2h27.7v3.1h-27.7zM386.1 538.3h27.7v3.1h-27.7zM386.1 542.3h27.7v3.1h-27.7zM386.1 546.3h27.7v3.1h-27.7z"/></g><g fill="#8fd1dc" opacity=".5"><path d="M361.1 334.3h.4v217.6h-.4zM362.4 334.3h.4v217.6h-.4zM363.6 334.3h.4v217.6h-.4zM364.9 334.3h.4v217.6h-.4zM366.2 334.3h.4v217.6h-.4zM367.4 334.3h.4v217.6h-.4zM368.7 334.3h.4v217.6h-.4zM370 334.3h.4v217.6h-.4zM371.2 334.3h.4v217.6h-.4zM372.5 334.3h.4v217.6h-.4zM373.8 334.3h.4V552h-.4zM375 334.3h.4V552h-.4zM376.3 334.3h.4V552h-.4zM377.6 334.3h.4V552h-.4zM378.8 334.3h.4V552h-.4zM380.1 334.3h.4V552h-.4zM381.4 334.3h.4V552h-.4zM382.6 334.3h.4V552h-.4zM383.9 334.3h.4V552h-.4zM385.2 324.9h.4V552h-.4zM386.4 324.9h.4V552h-.4zM387.7 324.9h.4V552h-.4zM389 324.9h.4V552h-.4zM390.2 324.9h.4V552h-.4zM391.5 324.9h.4V552h-.4zM392.8 324.9h.4V552h-.4zM394 324.9h.4V552h-.4zM395.3 324.9h.4V552h-.4zM396.6 324.9h.4V552h-.4zM397.8 324.9h.4V552h-.4zM399.1 324.9h.4V552h-.4zM400.4 324.9h.4V552h-.4zM401.6 324.9h.4V552h-.4zM402.9 324.9h.4V552h-.4zM404.2 324.9h.4V552h-.4zM405.4 324.9h.4V552h-.4zM406.7 324.9h.4V552h-.4zM408 324.9h.4V552h-.4zM409.2 324.9h.4V552h-.4zM410.5 324.9h.4V552h-.4zM411.8 324.9h.4V552h-.4zM413 324.9h.4V552h-.4zM414.3 324.9h.4V552h-.4zM415.6 334.3h.4V552h-.4zM416.8 334.3h.4V552h-.4zM418.1 334.3h.4V552h-.4zM419.4 334.3h.4V552h-.4zM420.6 334.3h.4V552h-.4zM421.9 334.3h.4V552h-.4zM423.2 334.3h.4V552h-.4zM424.4 334.3h.4v217.8h-.4zM425.7 334.3h.4v217.8h-.4zM427 334.3h.4v217.8h-.4zM428.2 334.3h.4v217.8h-.4zM429.5 334.3h.4v217.8h-.4zM430.8 334.3h.4v217.8h-.4zM432 334.3h.4v217.8h-.4zM433.3 334.3h.4v217.8h-.4zM434.6 334.3h.4v217.8h-.4zM435.8 334.3h.4v217.8h-.4zM437.1 334.3h.4v217.8h-.4zM438.4 334.3h.4v217.8h-.4z"/></g><path d="M384 552l.4-219.2h1.9l-.5 219.2zM413.7 332.8h1.9v219.3h-1.9z" class="st11"/><path d="M415.6 331.6l26 61.3v160.2h-26z" class="st13"/><path fill="#fff" d="M358.3 331.6h25.9v221.5h-25.9z" opacity=".1"/><path d="M415.6 331.6l26 61.3v-61.3z" class="st15"/><path fill="#a5a5a5" d="M420.2 331.6h-4.5v-9.2h-31.5v9.2H358.3v2.7h83.3v-2.7h-21.4zm-6.8-2h-27v-4.7h27v4.7z"/></g><g><path d="M480.1 383.7v-1.3h-6v-89.2h-2.3v89.2h-4.1v1.3h-11.3v3h27.2v-3z" class="st17"/><path fill="#3a7999" stroke="#3a7999" stroke-miterlimit="10" stroke-width="4" d="M429.1 386.7h65.5v193.5h-65.5z"/><g fill="#36617a"><path d="M429.1 386.7h65.5v4.5h-65.5zM429.1 395.8h65.5v4.5h-65.5zM429.1 404.9h65.5v4.5h-65.5zM429.1 414h65.5v4.5h-65.5zM429.1 423.1h65.5v4.5h-65.5zM429.1 432.2h65.5v4.5h-65.5zM429.1 441.3h65.5v4.5h-65.5zM429.1 450.4h65.5v4.5h-65.5zM429.1 459.5h65.5v4.5h-65.5zM429.1 468.6h65.5v4.5h-65.5zM429.1 477.7h65.5v4.5h-65.5zM429.1 486.8h65.5v4.5h-65.5zM429.1 495.9h65.5v4.5h-65.5zM429.1 505h65.5v4.5h-65.5zM429.1 514.1h65.5v4.5h-65.5zM429.1 523.2h65.5v4.5h-65.5zM429.1 532.3h65.5v4.5h-65.5zM429.1 541.4h65.5v4.5h-65.5zM429.1 550.5h65.5v4.5h-65.5zM429.1 559.6h65.5v4.5h-65.5zM429.1 568.7h65.5v4.5h-65.5z"/></g><g class="st17"><path d="M429.1 391.2h65.5v4.5h-65.5zM429.1 400.3h65.5v4.5h-65.5zM429.1 409.4h65.5v4.5h-65.5zM429.1 418.5h65.5v4.5h-65.5zM429.1 427.6h65.5v4.5h-65.5zM429.1 436.7h65.5v4.5h-65.5zM429.1 445.8h65.5v4.5h-65.5zM429.1 454.9h65.5v4.5h-65.5zM429.1 464h65.5v4.5h-65.5zM429.1 473.1h65.5v4.5h-65.5zM429.1 482.2h65.5v4.5h-65.5zM429.1 491.3h65.5v4.5h-65.5zM429.1 500.4h65.5v4.5h-65.5zM429.1 509.5h65.5v4.5h-65.5zM429.1 518.6h65.5v4.5h-65.5zM429.1 527.7h65.5v4.5h-65.5zM429.1 536.8h65.5v4.5h-65.5zM429.1 545.9h65.5v4.5h-65.5zM429.1 555h65.5v4.5h-65.5zM429.1 564.1h65.5v4.5h-65.5zM429.1 573.2h65.5v4.5h-65.5z"/></g><g fill="#fff" opacity=".5"><path d="M429 386.7h.4v191.1h-.4zM430.8 386.7h.4v191.1h-.4zM432.6 386.7h.4v191.1h-.4zM434.4 386.7h.4v191.1h-.4zM436.2 386.7h.4v191.1h-.4zM438.1 386.7h.4v191.1h-.4zM439.9 386.7h.4v191.1h-.4zM441.7 386.7h.4v191.1h-.4zM443.5 386.7h.4v191.1h-.4zM445.3 386.7h.4v191.1h-.4zM447.2 386.7h.4v191.1h-.4zM449 386.7h.4v191.1h-.4zM450.8 386.7h.4v191.1h-.4zM452.6 386.7h.4v191.1h-.4zM454.4 386.7h.4v191.1h-.4zM456.3 386.7h.4v191.1h-.4zM458.1 386.7h.4v191.1h-.4zM459.9 386.7h.4v191.1h-.4zM461.7 386.7h.4v191.1h-.4zM463.5 386.7h.4v191.1h-.4zM465.3 386.7h.4v191.1h-.4zM467.2 386.7h.4v191.1h-.4zM469 386.7h.4v191.1h-.4zM470.8 386.7h.4v191.1h-.4zM472.6 386.7h.4v191.1h-.4zM474.4 386.7h.4v191.1h-.4zM476.3 386.7h.4v191.1h-.4zM478.1 386.7h.4v191.1h-.4zM479.9 386.7h.4v191.1h-.4zM481.7 386.7h.4v191.1h-.4zM483.5 386.7h.4v191.1h-.4zM485.4 386.7h.4v191.1h-.4zM487.2 386.7h.4v191.1h-.4zM489 386.7h.4v191.1h-.4zM490.8 386.7h.4v191.1h-.4zM492.6 386.7h.4v191.1h-.4zM494.5 386.7h.4v191.1h-.4z"/></g><g fill="none" stroke="#fff" stroke-miterlimit="10" opacity=".8"><path d="M429.1 386.7h65.5v4.5h-65.5zM429.1 391.2h65.5v4.5h-65.5zM429.1 395.8h65.5v4.5h-65.5zM429.1 400.3h65.5v4.5h-65.5zM429.1 404.9h65.5v4.5h-65.5zM429.1 409.4h65.5v4.5h-65.5zM429.1 414h65.5v4.5h-65.5zM429.1 418.5h65.5v4.5h-65.5zM429.1 423.1h65.5v4.5h-65.5zM429.1 427.6h65.5v4.5h-65.5zM429.1 432.2h65.5v4.5h-65.5zM429.1 436.7h65.5v4.5h-65.5zM429.1 441.3h65.5v4.5h-65.5zM429.1 445.8h65.5v4.5h-65.5zM429.1 450.4h65.5v4.5h-65.5zM429.1 454.9h65.5v4.5h-65.5zM429.1 459.5h65.5v4.5h-65.5zM429.1 464h65.5v4.5h-65.5zM429.1 468.6h65.5v4.5h-65.5zM429.1 473.1h65.5v4.5h-65.5zM429.1 477.7h65.5v4.5h-65.5zM429.1 482.2h65.5v4.5h-65.5zM429.1 486.8h65.5v4.5h-65.5zM429.1 491.3h65.5v4.5h-65.5zM429.1 495.9h65.5v4.5h-65.5zM429.1 500.4h65.5v4.5h-65.5zM429.1 505h65.5v4.5h-65.5zM429.1 509.5h65.5v4.5h-65.5zM429.1 514.1h65.5v4.5h-65.5zM429.1 518.6h65.5v4.5h-65.5zM429.1 523.2h65.5v4.5h-65.5zM429.1 527.7h65.5v4.5h-65.5zM429.1 532.3h65.5v4.5h-65.5zM429.1 536.8h65.5v4.5h-65.5zM429.1 541.4h65.5v4.5h-65.5zM429.1 545.9h65.5v4.5h-65.5zM429.1 550.5h65.5v4.5h-65.5zM429.1 555h65.5v4.5h-65.5zM429.1 559.6h65.5v4.5h-65.5zM429.1 564.1h65.5v4.5h-65.5zM429.1 568.7h65.5v4.5h-65.5zM429.1 573.2h65.5v4.5h-65.5z"/></g><path d="M441.6 385.8H470l27 63.7-.2 133.9h-55.2z" class="st13"/><path d="M470 385.8h26.9l.1 63.7z" class="st15"/><path fill="#c32327" d="M471.8 290.9h2.3v2.3h-2.3z"/></g><g><path d="M274.8 397v201.2h33.4c-35.4-84.4 15-194.4 15-194.4h2.7V397h-51.1z" class="st25"/><path d="M241.4 397v6.8h2.7c8.4 15.7 7.9 34.5 4.3 51.5-8.5 39.5-38.6 67.2-68.4 91.8a508.7 508.7 0 0 1-66.1 46.1c-1.3.7-4.3 5-5.8 5h166.8V397h-33.5z" class="st26"/><path d="M280.2 469.9h17.7s3.4-25.2 8.8-36.1h-23.1l-3.4 36.1z" class="st28"/><g fill="none" stroke="#b5d9d6" stroke-miterlimit="10"><path d="M296.5 437.2l132.8 117M412.4 549L295.7 432.8M370.2 546.3l-71.4-113.5M393.7 547.4l-92.8-114.9M366.2 547.4l-77.6-113.6M379.9 542.8l-87.4-110M289.5 432.8L351 547.4M331.7 549.3l-43.1-116.5M284.3 432.8l62.4 118M324.2 555.5l-32.9-122.7"/></g><g fill="#675125"><path d="M189.9 559h70.6v-13.6h-55.4c-5.1 4.7-10.2 9.3-15.2 13.6zM212.2 538.6h48.2V525h-34.9c-4.1 4.6-8.6 9.2-13.3 13.6zM165.1 579.5h95.3v-13.6h-78.6c-5.9 5-11.6 9.5-16.7 13.6zM231.7 518.2h28.7v-13.6h-17.8c-3.2 4.5-6.9 9-10.9 13.6zM142.7 598.2h117.8v-12H156.4c-8.4 6.5-13.7 12-13.7 12zM251.6 490.3c-1.3 2.5-2.7 5-4.3 7.5h13.2v-7.5h-8.9z"/></g><g class="st28"><path d="M156.4 586.3h104.1v-6.8h-95.3l-8.8 6.8zM181.9 565.9h78.6V559h-70.6l-8 6.9zM205.1 545.4h55.4v-6.8h-48.2l-7.2 6.8zM225.6 525h34.9v-6.8h-28.7l-6.2 6.8zM242.7 504.6h17.8v-6.8h-13.2l-4.6 6.8z"/></g><g fill="#7F827F"><path d="M289.4 423.2h-9.6l1.5-8.1h9.5zM300.4 423.2h-9.5l1.4-8.1h9.6zM311.5 423.2H302l1.4-8.1h9.5z"/></g><g fill="#BDC0BA"><path d="M261.2 422.2h13.6v2h-13.6zM257.8 418.1h17v2h-17zM254.3 414.1h20.4v2h-20.4z"/></g><path fill="#010101" d="M301.7 579.6c-9.1-33.5-7-69.4-1.5-99.9l-25.5 31.8-69.7 86.8h97l-.3-18.7z" opacity=".1"/><path d="M283.6 431h24.2v2.8h-24.2z" class="st25"/><g opacity=".1"><path fill="#010101" d="M325.8 403.8V397h-51.1l34 47.1c7.1-24.3 14.4-40.3 14.4-40.3h2.7z"/></g><g class="st26"><path d="M495.9 574.3c-79-19-77.9-23.6-121.8-23.9-46.4-.3-47.2 4.2-123.7 23.9h-9.1c0 16.3 16.1 23.9 16.1 23.9h233.4s14.2-7.6 14.2-23.9h-9.1z"/><path fill="#AEC8CE" d="M256.7 595.4s-11.4-12.8 1.1-21.1H488s14 7.3 2.2 21.1H256.7z"/><path fill="#7E92A5" d="M300.1 558.9s-24.5 4.7-34.9 10.8h216.1s-26.9-11.4-40.2-11.5l-141 .7z"/><path d="M257.8 574.3s-1.7-1.5 8.6-5.3l214.8.7s4.2.8 6.7 4.6H257.8z" class="st25"/><path d="M255.4 594.4v1.4c2.4 1.3 1.9 2.4 1.9 2.4h232.8s-1.6-.9 1.4-3.8H255.4zM492.4 576.3H256.9l3.5-4h226.1z"/><path d="M373 558.1h.9v37.3h-.9zM385.4 595.4h-.9c0-30.9-7-36.6-7-36.7l.4-1.2c.3.2 7.5 6 7.5 37.9zM397.4 595.4h-.9c0-32.1-13.2-36.4-13.8-36.6l.2-1.3c.2 0 14.5 4.6 14.5 37.9zM421.2 595.4h-.9c0-28.9-24.3-36.5-24.6-36.6l.2-1.3c.3.1 25.3 7.9 25.3 37.9zM441.6 595.9l-.6-1c2.6-4.1 3.5-8.1 2.8-11.8-3.4-16.1-36.4-24.1-36.8-24.2l.1-1.3c1.4.3 33.9 8.2 37.4 25.1 1 4.3 0 8.7-2.9 13.2z"/><path d="M470.1 595.9l-.6-1c2.6-4 3.4-7.8 2.6-11.3-4.4-18.5-53.3-24.6-53.8-24.7l.1-1.3c2 .2 50 6.2 54.5 25.5 1 4.1 0 8.3-2.8 12.8z"/><path d="M490.7 596.5l-1-2.2c3.6-4.1 5.1-7.9 4.3-11.2-3.5-16.1-49.9-23.4-52.8-23.4h-.1v-1l-.3-1.6c1.6 0 49.2 6.3 54.5 24.3 1.6 4.8 0 9.9-4.6 15.1zM362.4 595.4h-.9c0-31.9 7.2-37.7 7.5-37.9l.4 1.2c-.1.1-7 5.8-7 36.7zM350.4 595.4h-.9c0-33.3 14.3-37.9 14.5-37.9l.2 1.3c-.6.1-13.8 4.5-13.8 36.6zM326.5 595.4h-.9c0-30 25-37.8 25.3-37.9l.2 1.3c-.2.1-24.6 7.7-24.6 36.6zM305.3 595.9a17.3 17.3 0 0 1-3-13.2c3.5-16.9 36.1-24.7 37.4-25.1l.1 1.3c-.3.1-33.4 8.1-36.8 24.2-.8 3.7.2 7.7 2.8 11.8l-.5 1z"/><path d="M276.8 595.9c-2.8-4.4-3.8-8.7-2.8-12.7 4.5-19.3 52.5-25.3 54.5-25.5l.1 1.3c-.5.1-49.4 6.2-53.8 24.7-.8 3.5.1 7.3 2.6 11.3l-.6.9z"/><path d="M256.2 596.5c-4.6-5.2-6.2-10.4-4.8-15.3 5.3-18 52.2-24.5 53.7-24.5l-.1 1.3-.1 1.3c-2.8 0-48.6 7.5-52 23.6-.7 3.4.7 7.3 4.4 11.4l-1.1 2.2z"/><path d="M252.2 585.2h242.4v1.3H252.2z"/><path fill="#E7E8E6" d="M446.8 559.8s-13-17.7-73.3-17.7-73.3 17.7-73.3 17.7h146.6z"/></g></g></svg>