<svg xmlns="http://www.w3.org/2000/svg" width="1286" height="769" version="1"><path fill="#fecb4e" d="M133 766c-3-3-3-4-3-7l206-338L546 80c24-36 63-63 105-74 20-6 27-6 85-6h54l2 2c3 4 3 7 1 12L379 689a189 189 0 0 1-133 79l-60 1h-50zm492 0l-3-6a126051 126051 0 0 1 415-679c25-37 63-64 106-75 20-6 27-6 85-6h54l2 2c5 6 19-17-205 348L867 693c-7 10-23 27-32 34-16 13-37 25-56 32-11 4-29 8-41 9l-60 1h-50l-3-3zM97 229A114 114 0 0 1 5 81c10-28 32-53 57-64 18-8 50-13 91-16h108c13 1 13 1 16 3l2 6-7 23c-32 90-65 152-91 174-21 17-54 26-84 22z"/></svg>