<svg xmlns="http://www.w3.org/2000/svg" width="4000" height="2000" version="1" viewBox="0 0 3000 1500"><path d="M267 559c-24 1-42 4-52 8-7 3-17 12-21 19-7 12-10 28-8 41a56 56 0 0 0 89 33c12-10 29-43 44-84 4-11 4-15 2-16s-45-2-54-1zm249 0c-25 3-48 18-63 39L250 930c-1 3-1 3 1 5s3 2 31 2c25-1 28-1 37-3 23-6 41-20 54-40 15-22 202-329 203-331l-2-3c-1-2-4-2-26-2l-32 1zm243 0c-22 3-42 13-57 29L594 762 491 931c-1 6 1 6 25 6l32-1c28-3 52-18 67-41 19-30 202-329 202-331 1-6-1-6-28-6l-31 1zm1380 90c-75 9-131 68-141 145-2 19-1 42 4 60 3 11 12 28 19 38 17 23 45 39 76 46 74 16 147-19 180-86 5-10 6-11 7-8s-1 17-2 24l-7 16c-5 12-5 13 4 21 19 18 43 30 71 34 10 2 29 3 41 2 23-2 39-6 60-16 56-28 90-86 90-151 0-64-38-110-104-124-13-2-52-2-65 1a157 157 0 0 0-111 85l-6 12c-2 0 0-21 2-27 0-4 3-11 6-16l4-12c-1-3-14-15-23-21a139 139 0 0 0-81-23h-24zm43 47a79 79 0 0 1 60 82c0 70-53 124-116 118a80 80 0 0 1-76-84c0-58 36-106 87-117 12-3 33-2 45 1zm245 0c29 7 49 27 58 54 2 9 2 11 2 29 0 17 0 19-3 30-5 22-15 40-29 54-16 17-37 28-58 32-12 2-32 1-44-2-22-7-39-21-49-40-7-16-10-32-8-52 5-55 39-96 88-106 10-3 33-2 43 1zm-553-43c-18 3-33 14-41 30a9215 9215 0 0 0-57 252c0 2 3 2 70 2l71-1 7-2 12-6c11-7 22-22 24-32v-4h-124l1-3 26-118 25-117c0-2-1-2-4-2l-10 1zm776 1c-18 5-32 16-40 32a71291 71291 0 0 1-56 246l-1 4h4c23 0 47-18 55-40a566 566 0 0 0 14-61l1-4h46l54-2c44-9 73-34 84-75 3-10 3-36 1-46-4-13-9-23-19-32a69 69 0 0 0-31-19c-13-4-21-5-64-5-36 0-41 0-48 2zm89 47c9 4 14 9 18 16 3 5 3 8 4 14 1 25-14 45-39 53l-46 2-39-1 17-79 2-9h38l39 1 6 3zM916 655c-7 2-16 8-20 13L731 936l20 1c23 0 29-1 39-8 6-5 9-9 22-31l9-15h134l4 27 5 27h5c16-2 30-13 36-28 5-12 5-10-17-138l-21-117-22-1c-21 0-24 0-29 2zm23 114l11 69H846l41-69 41-69 11 69zm155-115a58 58 0 0 0-40 41l-1 3h42l43 1-52 236c0 2 0 2 6 2 24 0 47-17 53-40 2-4 41-181 44-196v-3h25c24-1 26-1 33-3 15-6 26-15 33-29l5-10v-3h-93l-98 1zm262 1c-9 2-17 7-24 14-13 13-11 5-41 143l-27 124 81 1 81-1 6-2a59 59 0 0 0 35-39l1-3h-72c-68 0-72 0-72-2l9-36 8-37c0-2 4-2 53-2 59-1 57 0 71-7 11-6 24-23 27-35v-3h-70c-67 0-71 0-71-2a1233 1233 0 0 0 15-64l1-7h54c60 0 60 0 72-6s25-22 27-35l1-3h-80c-66 0-80 0-85 2zm233-1c-9 3-17 11-21 20-2 4-12 49-31 133l-28 129 15 1c14-1 15-1 21-4 8-4 16-12 19-19l10-44 8-39h52l19 53 20 53 5-1c19-2 33-18 33-37 0-7-2-13-15-45l-11-26 9-2a96 96 0 0 0 76-91c0-18-1-26-8-39-3-8-6-11-13-18-9-9-16-14-27-18-15-7-13-6-73-7l-60 1zm95 44c23 4 37 24 32 47-4 20-18 34-39 39-7 2-11 2-46 2l-38-1 19-86v-2h33l39 1z"/></svg>