<svg xmlns="http://www.w3.org/2000/svg" viewBox="0 0 60 60"><path d="M34.7 36.5l9.4-13a1 1 0 0 0-1.4-1.3l-13 9.4a3.6 3.6 0 0 0-.4 5.4 3.5 3.5 0 0 0 2.6 1 3.6 3.6 0 0 0 2.8-1.5z"/><path d="M54.5 19.6v-.1a27.2 27.2 0 0 0-3.6-4.9l2.2-2.1 1.4 1.4 4.2-4.2-4.2-4.3-4.3 4.3 1.4 1.4-2.1 2.1a27.2 27.2 0 0 0-4.8-3.5l-.1-.1a26.8 26.8 0 0 0-10.3-3.4V5h1.5a2.5 2.5 0 0 0 0-5h-9a2.5 2.5 0 0 0 0 5h1.5v1.2c-1 0-2.2.2-3.2.5a1 1 0 1 0 .4 2 25.4 25.4 0 0 1 2.9-.5l1-.1h.9V10a1 1 0 1 0 2 0V8a24.8 24.8 0 0 1 10.4 3l-1 1.7a1 1 0 0 0 1.8 1l1-1.7a25.2 25.2 0 0 1 7.7 7.8l-1.7 1a1 1 0 0 0 1 1.7l1.8-1A24.8 24.8 0 0 1 56 32h-2a1 1 0 1 0 0 2h2a24.8 24.8 0 0 1-2.8 10.6l-1.8-1a1 1 0 0 0-1 1.8l1.8 1a25.2 25.2 0 0 1-7.8 7.7l-1-1.7A1 1 0 0 0 42 52a1 1 0 0 0-.3 1.4l1 1.7A24.8 24.8 0 0 1 32.3 58v-2a1 1 0 1 0-2 0v2a25.2 25.2 0 0 1-4.8-.6 1 1 0 1 0-.4 2c2 .4 4 .6 6 .6h.2a26.8 26.8 0 0 0 13.2-3.6h.1a27.2 27.2 0 0 0 9.9-9.8v-.1a26.8 26.8 0 0 0 0-27z"/><path d="M22.3 13h-5a2 2 0 0 0 0 4h5a2 2 0 0 0 0-4zm0 7h-10a2 2 0 0 0 0 4h10a2 2 0 0 0 0-4zm0 7h-15a2 2 0 0 0 0 4h15a2 2 0 0 0 0-4zm0 7h-19a2 2 0 0 0 0 4h19a2 2 0 0 0 0-4zm0 7h-13a2 2 0 0 0 0 4h13a2 2 0 0 0 0-4zm0 7h-7a2 2 0 0 0 0 4h7a2 2 0 0 0 0-4z"/></svg>