<svg xmlns="http://www.w3.org/2000/svg" width="149.4" height="149.5"><path fill="#fefefe" d="M75.7 149.4l-8.2.1-1.8-.2-1.7-.3h-5.3l-3.7-1-3.6-1-3.2-1.1-3-1.1-4.6-2.2-4.5-2.3-3.2-2.1-3.3-2.2-2.6-2-2.6-2.2-3.3-3.2-3.2-3.2-2.2-2.7-2.1-2.7-2.1-3.1-2-3.1-2-3.6-1.9-3.6-1.3-3.4L3 99.8 1.8 96l-1-3.8-.4-5-.4-5V67.5l.3-4.3.2-4.3.8-3 .7-3.2 1.2-3.3 1.1-3.3 1.3-2.7 1.3-2.8 1.4-2.7 1.5-2.7 1.6-2.4 1.6-2.4 2-2.7 2.2-2.6 2.7-3 2.8-2.8 3-2.6 3-2.5 4-2.6 3.8-2.5 4.4-2.2 4.5-2.2 3.7-1.3L53 2.1l3.3-.8 3.3-.8 5-.2 5-.3h10.8l5.4.4 5.5.3 4 1.2 4 1 3 1.3 3 1.2 3.3 1.5 3.2 1.6 2.6 1.6 2.7 1.7 3.1 2.3 3 2.3 2.7 2.3 2.6 2.4 2.3 2.6 2.4 2.5 2.4 3.3 2.5 3.3 1.4 2.5 1.5 2.5 1.7 3.5 1.8 3.5 1.3 3.5 1.3 3.5 1 4 .9 4 .3 4.8.2 4.8V80l-.3 5-.2 5-.8 3.2-.8 3.4-1.3 3.7-1.3 3.7-1.8 3.8-1.8 3.9-2 3-1.8 3-2.3 3.1-2.3 3.1-3.2 3.3-3.1 3.3-3.2 2.6-3.2 2.6-2.1 1.5-2 1.4-3.4 2-3.4 2-3 1.2-2.9 1.3-2.8 1-2.8 1-2.9.8-2.9.8-4 .3-4 .3-8.1.1zM69.9 126h9.3V77h13.4v-.2l.8-7.7.8-7.6v-.2h-15V48.6l.6-1.3.6-1.4 1.2-.5 1-.4h12V29.9h-9.4l-9.4.2-2.5.9-2.6.8L69 33l-1.6 1.2-1.2 1.1-1.2 1.2-1 1.6-1 1.7-.9 2.2-.8 2.3-.3 2.3-.4 2.3v12.5H51V77h9.6v48.9H70z"/></svg>