<svg xmlns="http://www.w3.org/2000/svg" width="120.22" height="120.08"><path fill="#fefefe" d="M52.96 119.5c-44.88-6.57-67.53-55.84-42.74-92.95 29.83-44.62 99.16-30.25 109.03 22.6 7.28 39.03-27.57 76.02-66.29 70.35zM83.4 94.98c4.48-1.5 8.54-4.92 10.52-8.88 2.01-4 1.93-2.93 1.93-26.08 0-23.14.08-22.07-1.93-26.08a18.4 18.4 0 0 0-10.46-8.8l-2.52-.8H39.4l-2.53.8a18.4 18.4 0 0 0-10.46 8.8c-2 4.01-1.93 2.94-1.93 26.08 0 24.59-.06 24.12 4.02 29.23 5.01 6.29 7.22 6.73 33.1 6.65l19.2-.06zm-44.56-7.22c-2.87-1-4.81-2.86-6.26-6l-.73-1.58V39.86l.85-1.8a10.86 10.86 0 0 1 5.02-5.3l1.81-.9h20.64c20.41 0 20.66.01 22.12.69 2.15 1 3.96 2.78 5.07 5l.97 1.94v41.07l-.97 1.95c-1.1 2.21-2.92 4-5.07 5-2.14.98-40.69 1.21-43.45.25zm25.62-9.97a18.24 18.24 0 0 0 10.87-27.9c-8.4-12.64-27.47-10.09-32.49 4.31-4.67 13.43 7.85 27.1 21.61 23.58zm-8.93-7.96c-8.08-3.84-8.28-15.32-.33-19.51 2.4-1.27 7.56-1.27 9.95 0 10.08 5.32 6.4 20.42-4.98 20.42-2.32 0-3-.13-4.64-.9zm26.6-26.03c1.33-1.32 1.65-2.85.96-4.5-1.62-3.89-7.89-2.8-7.89 1.38 0 3.98 4.19 5.87 6.93 3.12z"/></svg>