<?xml version="1.0" encoding="UTF-8" standalone="no"?>
<!-- Created with Inkscape (http://www.inkscape.org/) -->

<svg
   xmlns:dc="http://purl.org/dc/elements/1.1/"
   xmlns:cc="http://creativecommons.org/ns#"
   xmlns:rdf="http://www.w3.org/1999/02/22-rdf-syntax-ns#"
   xmlns:svg="http://www.w3.org/2000/svg"
   xmlns="http://www.w3.org/2000/svg"
   xmlns:sodipodi="http://sodipodi.sourceforge.net/DTD/sodipodi-0.dtd"
   xmlns:inkscape="http://www.inkscape.org/namespaces/inkscape"
   version="1.1"
   id="svg3699"
   xml:space="preserve"
   width="216"
   height="240"
   viewBox="0 0 216 240"
   sodipodi:docname="Altair_vertical_RGB_wout_guides.svg"
   inkscape:version="0.92.2 (5c3e80d, 2017-08-06)"><metadata
     id="metadata3705"><rdf:RDF><cc:Work
         rdf:about=""><dc:format>image/svg+xml</dc:format><dc:type
           rdf:resource="http://purl.org/dc/dcmitype/StillImage" /><dc:title></dc:title></cc:Work></rdf:RDF></metadata><defs
     id="defs3703"><clipPath
       clipPathUnits="userSpaceOnUse"
       id="clipPath3715"><path
         d="M 0,180 H 162 V 0 H 0 Z"
         id="path3713"
         inkscape:connector-curvature="0" /></clipPath><linearGradient
       x1="0"
       y1="0"
       x2="1"
       y2="0"
       gradientUnits="userSpaceOnUse"
       gradientTransform="matrix(16.969101,-30.338745,-30.338745,-16.969101,84.890625,145.46582)"
       spreadMethod="pad"
       id="linearGradient3743"><stop
         style="stop-opacity:1;stop-color:#bbbbbc"
         offset="0"
         id="stop3737" /><stop
         style="stop-opacity:1;stop-color:#f3f3f4"
         offset="0.187881"
         id="stop3739" /><stop
         style="stop-opacity:1;stop-color:#a3a5a8"
         offset="1"
         id="stop3741" /></linearGradient><linearGradient
       x1="0"
       y1="0"
       x2="1"
       y2="0"
       gradientUnits="userSpaceOnUse"
       gradientTransform="matrix(18.000259,31.457581,31.457581,-18.000259,50.393066,97.87207)"
       spreadMethod="pad"
       id="linearGradient3765"><stop
         style="stop-opacity:1;stop-color:#bbbbbc"
         offset="0"
         id="stop3759" /><stop
         style="stop-opacity:1;stop-color:#f3f3f4"
         offset="0.187881"
         id="stop3761" /><stop
         style="stop-opacity:1;stop-color:#a3a5a8"
         offset="1"
         id="stop3763" /></linearGradient><linearGradient
       x1="0"
       y1="0"
       x2="1"
       y2="0"
       gradientUnits="userSpaceOnUse"
       gradientTransform="matrix(-32.74147,1.3713531,1.3713531,32.741486,108.47461,90.734375)"
       spreadMethod="pad"
       id="linearGradient3787"><stop
         style="stop-opacity:1;stop-color:#bbbbbc"
         offset="0"
         id="stop3781" /><stop
         style="stop-opacity:1;stop-color:#f3f3f4"
         offset="0.187881"
         id="stop3783" /><stop
         style="stop-opacity:1;stop-color:#a3a5a8"
         offset="1"
         id="stop3785" /></linearGradient><clipPath
       clipPathUnits="userSpaceOnUse"
       id="clipPath3797"><path
         d="M 0,180 H 162 V 0 H 0 Z"
         id="path3795"
         inkscape:connector-curvature="0" /></clipPath></defs><sodipodi:namedview
     pagecolor="#ffffff"
     bordercolor="#666666"
     borderopacity="1"
     objecttolerance="10"
     gridtolerance="10"
     guidetolerance="10"
     inkscape:pageopacity="0"
     inkscape:pageshadow="2"
     inkscape:window-width="3200"
     inkscape:window-height="1644"
     id="namedview3701"
     showgrid="false"
     inkscape:zoom="5.4875"
     inkscape:cx="108"
     inkscape:cy="120"
     inkscape:window-x="-16"
     inkscape:window-y="-16"
     inkscape:window-maximized="1"
     inkscape:current-layer="g3707" /><g
     id="g3707"
     inkscape:groupmode="layer"
     inkscape:label="Altair_vertical_RGB_wout_guides"
     transform="matrix(1.3333333,0,0,-1.3333333,0,240)"><g
       id="g3709"><g
         id="g3711"
         clip-path="url(#clipPath3715)"><g
           id="g3717"
           transform="translate(89.166,147.356)"><path
             d="m 0,0 -0.152,0.003 h -0.139 l -14.174,0.01 c -2.524,0 -3.233,-2.381 -3.233,-2.381 0,0 -8.437,-22.329 -10.78,-27.285 l 7.558,8.211 13.262,14.543 3.558,3.902 c 1.403,1.534 2.151,2.202 2.842,2.578 0.578,0.317 1.024,0.397 1.276,0.415 C 0.008,-0.004 0.004,0 0,0"
             style="fill:#d71a34;fill-opacity:1;fill-rule:nonzero;stroke:none"
             id="path3719"
             inkscape:connector-curvature="0" /></g><g
           id="g3721"
           transform="translate(115.3301,103.1118)"><path
             d="m 0,0 -18.051,22.959 2.35,-7.507 1.115,-3.555 7.563,-23.792 c 0.627,-1.979 0.81,-2.982 0.791,-3.768 -0.016,-0.621 -0.149,-1.035 -0.254,-1.273 l 0.037,0.066 0.094,0.178 6.798,12.703 C 1.564,-1.859 0,0 0,0"
             style="fill:#49ace4;fill-opacity:1;fill-rule:nonzero;stroke:none"
             id="path3723"
             inkscape:connector-curvature="0" /></g></g></g><g
       id="g3725"><g
         id="g3727"><g
           id="g3733"><g
             id="g3735"><path
               d="m 87.908,146.937 c -0.691,-0.376 -1.44,-1.044 -2.842,-2.578 v 0 L 81.508,140.457 95.6,124.113 c 0,0 2.904,-3.336 4.638,-7.848 v 0 c 0.166,-0.435 0.368,-0.853 0.512,-1.279 v 0 l -0.006,0.023 -0.041,0.133 -1.074,3.422 -2.35,7.507 -5.863,18.466 c 0,0 -0.879,2.815 -2.232,2.815 v 0 c -0.252,-0.018 -0.698,-0.098 -1.276,-0.415"
               style="fill:url(#linearGradient3743);stroke:none"
               id="path3745"
               inkscape:connector-curvature="0" /></g></g></g></g><g
       id="g3747"><g
         id="g3749"><g
           id="g3755"><g
             id="g3757"><path
               d="m 68.245,125.915 -4.01,-4.359 -16.896,-18.486 c 0,0 -1.922,-2.174 -1.327,-3.327 v 0 l 0.097,-0.177 c 0.134,-0.195 0.376,-0.462 0.855,-0.758 v 0 c 0.669,-0.407 1.632,-0.756 3.661,-1.2 v 0 l 5.179,-1.135 7.128,20.431 c 0,0 1.44,4.189 4.478,7.946 v 0 c 0.292,0.359 0.554,0.739 0.853,1.084 v 0 z"
               style="fill:url(#linearGradient3765);stroke:none"
               id="path3767"
               inkscape:connector-curvature="0" /></g></g></g></g><g
       id="g3769"><g
         id="g3771"><g
           id="g3777"><g
             id="g3779"><path
               d="m 85.467,92.168 c 0,0 -4.354,-0.883 -9.124,-0.138 v 0 c -0.424,0.068 -0.857,0.14 -1.273,0.22 v 0 l 0.986,-0.218 8.583,-1.925 1.298,-0.291 19.309,-4.234 c 0,0 2.652,-0.625 3.545,0.512 v 0 l 0.052,0.082 c 0.107,0.238 0.239,0.652 0.255,1.273 v 0 c 0.019,0.785 -0.165,1.79 -0.791,3.768 v 0 l -0.95,2.982 -0.636,2.008 z"
               style="fill:url(#linearGradient3787);stroke:none"
               id="path3789"
               inkscape:connector-curvature="0" /></g></g></g></g><g
       id="g3791"><g
         id="g3793"
         clip-path="url(#clipPath3797)"><g
           id="g3799"
           transform="translate(46.1064,99.5664)"><path
             d="M 0,0 Z"
             style="fill:#fbc22d;fill-opacity:1;fill-rule:nonzero;stroke:none"
             id="path3801"
             inkscape:connector-curvature="0" /></g><g
           id="g3803"
           transform="translate(84.6387,90.1074)"><path
             d="M 0,0 -8.583,1.925 -9.569,2.143 -34.014,7.5 c -2.028,0.445 -2.991,0.793 -3.661,1.201 -0.479,0.295 -0.721,0.563 -0.855,0.758 h -0.002 c 0.213,-0.346 7.63,-12.379 7.63,-12.379 1.18,-2.023 3.673,-1.605 3.673,-1.605 l 28.526,4.23 h 0.016 z"
             style="fill:#fbc42d;fill-opacity:1;fill-rule:nonzero;stroke:none"
             id="path3805"
             inkscape:connector-curvature="0" /></g><g
           id="g3807"
           transform="translate(45.4761,56.2109)"><path
             d="m 0,0 c -0.765,2.42 -0.899,3.719 -0.899,3.719 h -0.09 c 0,0 -0.179,-1.299 -0.938,-3.719 l -3.672,-11.68 h 9.177 z m 7.162,-23.359 -2.91,9.216 H -6.313 l -3,-9.216 H -13.07 L -2.646,7.432 h 3.675 l 10.385,-30.791 z"
             style="fill:#7a7c7d;fill-opacity:1;fill-rule:nonzero;stroke:none"
             id="path3809"
             inkscape:connector-curvature="0" /></g><path
           d="m 61.184,67.984 h 3.941 V 32.851 h -3.941 z"
           style="fill:#7a7c7d;fill-opacity:1;fill-rule:nonzero;stroke:none"
           id="path3811"
           inkscape:connector-curvature="0" /><g
           id="g3813"
           transform="translate(79.1343,32.625)"><path
             d="M 0,0 C -4.389,0 -6,3.135 -6,6.088 V 21.889 H -8.775 V 24.35 H -6 v 5.55 l 3.937,1.209 V 24.35 H 2.146 V 21.889 H -2.063 V 6.178 c 0,-1.926 0.854,-3.492 3.045,-3.492 0.405,0 0.764,0.091 1.164,0.179 V 0.359 C 1.703,0.227 0.982,0 0,0"
             style="fill:#7a7c7d;fill-opacity:1;fill-rule:nonzero;stroke:none"
             id="path3815"
             inkscape:connector-curvature="0" /></g><g
           id="g3817"
           transform="translate(98.4219,46.5449)"><path
             d="m 0,0 c -6.082,-0.76 -9.711,-2.057 -9.711,-6.938 0,-3.492 2.15,-4.923 5.731,-4.923 1.521,0 3,0.269 3.98,0.806 z m -4.295,-14.145 c -6.264,0 -9.174,2.731 -9.174,7.116 0,6.406 5.998,8.283 13.469,9.045 v 1.478 c 0,3.711 -2.236,4.787 -5.322,4.787 -2.328,0 -4.477,-0.851 -5.821,-1.523 l -0.937,2.33 c 1.387,0.76 4.072,1.791 7.385,1.791 4.476,0 8.414,-1.926 8.414,-7.836 v -15.486 c -1.836,-1.026 -4.657,-1.702 -8.014,-1.702"
             style="fill:#7a7c7d;fill-opacity:1;fill-rule:nonzero;stroke:none"
             id="path3819"
             inkscape:connector-curvature="0" /></g><path
           d="m 108.764,56.975 h 3.943 V 32.852 h -3.943 z m 1.97,4.656 c -1.296,0 -2.324,0.984 -2.324,2.146 0,1.209 1.028,2.196 2.324,2.196 1.252,0 2.282,-0.987 2.282,-2.196 0,-1.162 -1.03,-2.146 -2.282,-2.146"
           style="fill:#7a7c7d;fill-opacity:1;fill-rule:nonzero;stroke:none"
           id="path3821"
           inkscape:connector-curvature="0" /><g
           id="g3823"
           transform="translate(128.7266,54.3809)"><path
             d="m 0,0 c -1.965,0.578 -4.207,0.398 -5.504,-0.449 v -21.08 H -9.441 V 1.297 C -7.07,2.506 -4.787,3.135 0.943,3 Z"
             style="fill:#7a7c7d;fill-opacity:1;fill-rule:nonzero;stroke:none"
             id="path3825"
             inkscape:connector-curvature="0" /></g></g></g></g></svg>