<svg xmlns="http://www.w3.org/2000/svg" width="664.213" height="150.372"><path d="M110.962 1c-20.45.743-37.638 11.93-47.344 28.944L1 146.64l47.384-.04 11.105-25.256h35.438l-1.363 25.296h47.425l-5.492-145.64h-24.535zm75.166 0l-36.44 145.641h41.09L227.34 1h-41.21zm60.654 1.443l-29.625 117.42c-3.157 11.84-2.207 19.476 2.806 22.97 4.465 3.426 12.954 5.049 25.496 4.93 7.225 0 14.972-.35 23.251-1.042l6.174-24.494h-6.855c-6.845.085-9.596-2.81-8.178-8.659l13.109-52.596h17.238l6.133-24.734h-17.118l8.74-33.795h-41.171zM99.818 32.67L96.45 93.404H71.756L99.818 32.67zm471.68.521c-15.074 0-26.8 5.496-35.198 16.476h-.48l3.287-13.47h-41.532l-27.701 110.404h41.21l18.281-72.84c2.262-8.846 7.372-13.204 15.314-13.07 7.874-.134 10.621 4.248 8.258 13.11l-18.28 72.8h41.09l18.28-72.84c2.305-8.846 7.522-13.204 15.675-13.07 7.95-.134 10.68 4.224 8.258 13.07l-18.2 72.84h18.16c12.888 0 25.144-8.524 28.022-20.204l15.835-63.1c2.76-11.57 1.543-19.61-3.648-24.133-5.36-4.051-12.896-6.024-22.61-5.973-6.54 0-12.938 1.279-19.242 3.768-6.524 2.591-12.295 7.007-17.359 13.27-1.012-5.723-3.614-10.016-7.817-12.869-4.279-2.777-10.817-4.169-19.603-4.169zm-259.973 3.087L283.944 146.64h41.05l27.702-110.363h-41.171zm59.852 0l-20.846 83.384c-2.684 11.52-1.298 19.42 4.129 23.572 5.08 4.245 12.347 6.251 21.808 6.133 14.99 0 26.62-5.325 34.917-16.035h.481l-3.247 13.35h41.05L477.25 36.277h-41.13l-18.28 72.84c-2.28 8.845-7.4 13.234-15.435 13.15-7.765.084-10.47-4.305-8.098-13.15l18.24-72.84h-41.17z"/></svg>