<svg xmlns="http://www.w3.org/2000/svg" width="664.2" height="150.4"><path d="M111 1c-20.5.7-37.7 12-47.4 29L1 146.5h47.4l11-25.3H95l-1.3 25.3H141L135.5 1H111zm75 0l-36.4 145.6h41L227.4 1h-41.2zm60.7 1.4L217.2 120c-3.2 11.8-2.3 19.4 2.8 23 4.4 3.4 13 5 25.5 4.9 7.2 0 15-.4 23.2-1l6.2-24.6H268c-6.8.1-9.6-2.8-8.1-8.6l13-52.6h17.3l6.1-24.8h-17L288 2.4h-41.2zm-147 30.3l-3.3 60.7H71.8l28-60.7zm471.7.5c-15 0-26.8 5.5-35.2 16.5h-.5l3.3-13.5h-41.5l-27.7 110.4H511l18.3-72.8c2.2-8.9 7.3-13.2 15.3-13.1 7.9-.1 10.6 4.2 8.2 13.1l-18.2 72.8h41L594 73.8c2.3-8.9 7.5-13.2 15.7-13.1 8-.1 10.7 4.2 8.3 13l-18.2 72.9h18.1c13 0 25.2-8.5 28-20.2l15.9-63.1c2.7-11.6 1.5-19.6-3.7-24.1a37 37 0 0 0-22.6-6 52 52 0 0 0-19.2 3.8c-6.5 2.5-12.3 7-17.4 13.2-1-5.7-3.6-10-7.8-12.8a36.6 36.6 0 0 0-19.6-4.2zm-260 3L284 146.7h41l27.8-110.3h-41.2zm59.9 0l-20.9 83.5c-2.7 11.5-1.3 19.4 4.2 23.5 5 4.3 12.3 6.3 21.8 6.2 15 0 26.6-5.4 34.9-16h.5l-3.3 13.3h41l27.6-110.4h-41L417.7 109c-2.2 8.9-7.4 13.3-15.4 13.2-7.8 0-10.5-4.3-8-13.2l18.1-72.8h-41.1z"/></svg>