<svg xmlns="http://www.w3.org/2000/svg" viewBox="0 0 230 37"><g fill="none" fill-rule="evenodd"><path fill="#0072AD" d="M140.47.2l4.84 8.26v-3h6.48V19.5L162.04 37l10.67-18.18V5.46h7.84L183.63.2h-43.16zm13.05 5.26h17.89v5.96h-5.79v15.85h-6.48V11.42h-5.62V5.46z"/><path fill="#1A1919" d="M12.72 19.1h3.7v.66c0 2.65-.5 4.36-1.48 5.13-.99.78-3.17 1.17-6.54 1.17-3.84 0-6.2-.62-7.07-1.84C.44 22.99 0 19.7 0 14.36c0-3.14.6-5.21 1.8-6.2 1.19-1 3.69-1.49 7.5-1.49 2.76 0 4.61.41 5.54 1.23.93.81 1.4 2.44 1.4 4.87v.43h-3.7v-.5c0-1.24-.23-2.04-.71-2.4-.47-.34-1.57-.52-3.27-.52-2.28 0-3.65.27-4.11.82-.46.55-.69 2.17-.69 4.88 0 3.64.2 5.8.62 6.47.41.67 1.75 1 4 1 1.83 0 3.02-.18 3.56-.55.54-.37.82-1.19.82-2.44l-.04-.86M29.43 6.67c3.53 0 5.8.58 6.81 1.73 1.01 1.14 1.52 3.71 1.52 7.7 0 4.37-.5 7.12-1.53 8.26-1.02 1.13-3.48 1.7-7.4 1.7-3.52 0-5.8-.56-6.83-1.68-1.03-1.12-1.55-3.6-1.55-7.4 0-4.55.5-7.4 1.52-8.56 1.01-1.16 3.5-1.75 7.46-1.75m-.28 3.11c-2.46 0-3.9.31-4.32.94-.41.62-.62 2.77-.62 6.46 0 2.74.24 4.38.73 4.94.49.55 1.92.83 4.3.83 2.26 0 3.63-.3 4.08-.94.45-.62.68-2.53.68-5.7 0-3.2-.22-5.08-.65-5.66-.43-.58-1.83-.87-4.2-.87m36.48-2.95V25.9h-3.69V15.5c0-.83.03-1.77.08-2.82l.14-2.84h-.12l-.44 1.33-.43 1.33c-.4 1.19-.7 2.07-.92 2.64L55.97 25.9H52.6l-4.32-10.68a58.2 58.2 0 0 1-.94-2.64l-.44-1.33-.44-1.3h-.11l.07 1.37.07 1.4c.06 1.08.08 2 .08 2.78v10.4H42.9V6.83h6l3.49 8.83c.23.61.55 1.5.94 2.64l.43 1.33.44 1.31h.13l.4-1.31.44-1.32c.35-1.1.65-1.98.9-2.63l3.43-8.85h6.14m28.76 0V25.9h-3.68V15.5c0-.83.02-1.77.07-2.82l.07-1.43.07-1.4h-.12l-.44 1.32-.42 1.33a76.8 76.8 0 0 1-.93 2.64L84.73 25.9h-3.36l-4.32-10.68c-.24-.59-.56-1.47-.94-2.64l-.45-1.33-.44-1.3h-.11l.07 1.37.07 1.4c.06 1.08.08 2 .08 2.78v10.4h-3.68V6.83h6.01l3.48 8.83c.24.61.55 1.5.94 2.64l.43 1.33.44 1.31h.13l.41-1.31.43-1.32c.35-1.1.65-1.98.9-2.63l3.43-8.85h6.14m18.54 0h3.69V19.5c0 2.66-.52 4.4-1.57 5.26-1.04.86-3.16 1.29-6.38 1.29-3.4 0-5.62-.4-6.67-1.21-1.06-.81-1.58-2.52-1.58-5.13V6.82h3.68v12.9c0 1.4.26 2.3.77 2.67.52.37 1.73.56 3.63.56 1.96 0 3.18-.19 3.68-.57.5-.38.75-1.3.75-2.8V6.84m27.72-.01V25.9h-6.24l-5.55-10.47c-.28-.52-.7-1.43-1.3-2.74l-.62-1.37-.61-1.36h-.15l.06 1.25.04 1.24.03 2.5V25.9h-3.68V6.83h6.24l5.05 9.66c.45.86.97 1.9 1.55 3.12l.75 1.55.74 1.57h.12l-.04-1.23-.04-1.23-.03-2.46V6.83h3.68m6.05 0h3.69V25.9h-3.68V6.83zm17.53 3.22V25.9h-3.69V10.05h-5.62V6.83H170v3.22h-5.78m13.58-.19v4.93h9.14v2.68h-9.15v5.4h9.7v3.03h-13.38V6.84h13.3v3.03h-9.62m27.09 9.23h3.7v.66c0 2.65-.5 4.36-1.48 5.13-.98.78-3.17 1.17-6.54 1.17-3.84 0-6.2-.62-7.07-1.84-.89-1.23-1.33-4.52-1.33-9.86 0-3.14.6-5.21 1.8-6.2 1.19-1 3.69-1.49 7.5-1.49 2.76 0 4.62.41 5.54 1.23.94.81 1.4 2.44 1.4 4.87l.01.43h-3.7v-.5c0-1.24-.24-2.04-.71-2.4-.48-.35-1.57-.52-3.28-.52-2.28 0-3.65.27-4.1.82-.47.55-.7 2.17-.7 4.88 0 3.64.21 5.8.63 6.47.4.67 1.74 1 4 1 1.82 0 3-.18 3.55-.55.55-.37.82-1.19.82-2.44l-.04-.86M230 6.62v19.07h-3.68v-8.23h-9.11v8.23h-3.69V6.63h3.69v7.8h9.1v-7.8H230"/></g></svg>