<svg xmlns="http://www.w3.org/2000/svg" width="600" height="600" version="1" viewBox="0 0 6000 6000"><path fill="#fff" d="M2490 5803a2732 2732 0 0 1-1482-787 2785 2785 0 0 1-815-1896 2818 2818 0 0 1 819-2090c446-449 979-716 1628-817 165-25 626-26 790 0 203 31 454 99 553 149 34 17 37 21 25 36-52 67-425 458-790 827-238 242-454 467-479 500-138 182-192 332-191 525 1 199 62 350 245 611 109 155 153 235 187 343 31 96 30 150-4 184l-27 27-177-3c-307-4-548 22-712 79-148 50-341 166-451 271-49 46-61 66-94 152-41 109-55 125-232 284-108 96-138 154-138 267 0 73 4 88 38 157 40 82 125 171 196 208l38 19 6-59c11-128 70-172 342-257 108-34 224-37 280-6 57 30 121 89 204 187a900 900 0 0 1 238 535 661 661 0 0 0 59 250c2 2 14-10 28-25 43-50 49-27 38 154-5 88-13 165-16 171-7 11-55 13-106 4z"/><path fill="#dd0836" d="M2680 5959c-348-38-743-155-1034-307A2989 2989 0 0 1 61 3503c-65-386-51-833 38-1199A2921 2921 0 0 1 894 895c396-394 847-651 1377-785C2711-2 3200-6 3658 96a2996 2996 0 0 1 2256 2321c42 220 51 322 50 598 0 214-4 285-23 405a2960 2960 0 0 1-888 1721 2944 2944 0 0 1-1633 804c-124 20-605 29-740 14zm-96-211c8-68 18-278 13-278-3 0-15 16-27 36-12 21-25 33-29 28-25-28-69-195-75-285-11-192-91-368-252-552-132-152-203-188-334-169-74 11-276 74-335 104a187 187 0 0 0-103 191c3 50-8 55-61 27a616 616 0 0 1-219-228c-33-69-37-84-37-157 0-115 29-169 147-277 179-163 182-166 223-274 34-89 44-105 102-161 118-113 309-230 463-282 164-57 405-83 712-79 205 3 212 1 210-76-1-109-68-254-209-455-183-261-244-412-245-611-1-193 53-343 191-525 25-33 241-258 480-500 434-440 791-816 791-834 0-29-332-123-560-158-164-26-625-25-790 0-318 49-585 132-855 262C535 1100-75 2533 341 3883c300 974 1166 1740 2149 1900l57 6c30 1 32-1 37-41z"/></svg>