<svg xmlns="http://www.w3.org/2000/svg" width="1142.7" height="116.5"><path fill-rule="evenodd" d="M261.56 114.14c-2.02-6.6-1.67-7.75 2.38-7.75 5.5 0 6.9-.76 9-4.9l1.87-3.65-8.76-23.27-8.77-23.27 6.54.3 6.54.29 5.05 15.25c6.12 18.52 5.32 18.54 10.59-.25l4.35-15.5h12.56l-1.54 4.25c-.85 2.33-4.9 14.1-9 26.13-9.28 27.2-10.28 29.22-15.68 31.67-4.84 2.2-14.54 2.64-15.13.7zm384.16.1c-5.97-1.68-13.07-10.84-10.44-13.47 1.22-1.22 12.74 1.64 14.77 3.67 6.02 6.02 15.95 1.17 15.95-7.8V91.3l-3.5 2.67c-15.69 11.96-33.64-7.52-27.46-29.8 3.6-12.96 19.82-17.98 29.21-9.02l2.75 2.62V51.4h11v25.29c0 36.12-7.26 44.57-32.28 37.56zm16.51-28.77c7.67-6.85 3.23-26.08-6.02-26.08-6 0-10.21 5.98-10.21 14.5 0 12.27 8.6 18.4 16.23 11.58zM740 98.27c-15.1-2.43-27-15.22-27-29.02 0-4.44-.09-4.41 17.6-5.4l11.1-.61 1.28 4.59c3.01 10.74 14.73 14.82 22.27 7.76 7.1-6.65 2.66-11.33-15.36-16.23-29.33-7.98-41.17-24.06-31.48-42.8 11.27-21.8 63.37-22.18 73.28-.54 6.16 13.46 5.73 13.97-12.34 14.85l-13.16.64-1.12-3.42c-2.6-7.9-12.4-11.46-17.5-6.37-5.42 5.43-2.65 7.78 14.37 12.19 29.14 7.55 36.92 15.14 35.85 34.98-1.27 23.3-23.93 34.83-57.79 29.38zm-500.68-1.5c-4.5-2.22-5.32-5.59-5.32-22.03V60.39h-2.5c-2.3 0-2.5-.37-2.5-4.5 0-4.1.21-4.5 2.45-4.5 2.19 0 2.47-.47 2.75-4.6.29-4.43.5-4.71 6.05-7.97l5.75-3.38v15.95h8v9h-8v13.38c0 14.54.66 16.42 5.37 15.24 2.52-.63 3.59 1.14 3.62 6 .02 3.52-9.86 4.63-15.67 1.76zm199.86-.98c-15.67-7.8-14.85-36.2 1.25-43.51 14.29-6.49 29.53 3.75 29.56 19.86l.01 5.25h-30.25l.62 3.25c1.52 7.94 10.5 11.24 15.62 5.75 2.72-2.9 2.95-2.96 8.04-2 2.88.55 5.42 1 5.63 1 .22 0-.28 1.3-1.1 2.88-4.88 9.45-18.51 12.94-29.38 7.52zm19.43-26.98c-.34-.87-.61-2.25-.61-3.05 0-2.44-5.05-6.37-8.18-6.37-5 0-9.82 4.98-9.82 10.15 0 .46 4.32.85 9.6.85 8.36 0 9.53-.21 9-1.58zm30.43 28.4c-7.25-2.08-15.7-11.96-11.28-13.17 7.57-2.08 9.2-1.84 12.63 1.8 4.56 4.84 14.15 4.8 16.01-.05 1.03-2.68-1.12-4-10.28-6.34-16.87-4.31-22.32-11.66-16.16-21.76 6.18-10.15 30.3-9.52 35.35.91 2.7 5.6-5.79 8.09-11.41 3.35-3.51-2.95-10.24-3.51-13.46-1.12-3.38 2.51-.68 4.67 9.12 7.26 11.91 3.16 15.54 5.13 17.8 9.65 6.33 12.75-10.77 24.5-28.32 19.47zm46.28-.44c-4.5-2.22-5.32-5.59-5.32-22.03V60.39h-2.5c-2.3 0-2.5-.37-2.5-4.5 0-4.1.21-4.5 2.45-4.5 2.19 0 2.47-.47 2.75-4.6.29-4.43.5-4.71 6.05-7.97l5.75-3.38v15.95h8v9h-8v13.38c0 14.54.66 16.42 5.37 15.24 2.52-.63 3.59 1.14 3.62 6 .02 3.52-9.86 4.63-15.67 1.76zm287.39.15c-9.86-3.78-14.7-11.2-14.68-22.53.06-28.54 39.85-33.23 46.07-5.43 4.18 18.65-13.83 34.68-31.4 27.96zm14.07-9.1c3.54-2.47 5.22-6.8 5.22-13.43 0-12.45-8.53-19.1-16.49-12.83-12.36 9.72-1.45 35.18 11.27 26.27zm59.72 9.16c-7.13-3.14-8.49-7.84-8.5-29.34V51.39h11.83l.34 17.09c.41 21.33 4.48 26.55 14.02 18.03l3.23-2.89.4-16.11.42-16.12H930v46h-5.5c-5.44 0-5.5-.03-5.5-3 0-3.1-1.38-4.06-2.31-1.63-1.64 4.28-14.14 6.9-20.19 4.22zm51.82-.2c-4.5-2.23-5.32-5.6-5.32-22.04V60.39h-2.5c-2.3 0-2.5-.37-2.5-4.5 0-4.1.21-4.5 2.45-4.5 2.19 0 2.47-.47 2.75-4.6.29-4.43.5-4.71 6.05-7.97l5.75-3.38v15.95h8v9h-8v13.38c0 14.54.66 16.42 5.37 15.24 2.52-.63 3.59 1.14 3.62 6 .02 3.52-9.86 4.63-15.67 1.76zm60.39.14c-9.86-3.78-14.7-11.2-14.68-22.53.06-28.54 39.85-33.23 46.07-5.43 4.18 18.65-13.83 34.68-31.4 27.96zm14.07-9.1c3.54-2.47 5.22-6.8 5.22-13.43 0-12.45-8.53-19.1-16.49-12.83-12.36 9.72-1.45 35.18 11.27 26.27zm90.26 9.4c-7.25-2.09-15.7-11.97-11.28-13.18 7.57-2.08 9.2-1.84 12.63 1.8 4.56 4.84 14.15 4.8 16.01-.05 1.03-2.68-1.12-4-10.28-6.34-16.87-4.31-22.32-11.66-16.16-21.76 6.18-10.15 30.3-9.52 35.35.91 2.7 5.6-5.79 8.09-11.41 3.35-3.51-2.95-10.24-3.51-13.46-1.12-3.38 2.51-.68 4.67 9.12 7.26 11.91 3.16 15.54 5.13 17.8 9.65 6.33 12.75-10.77 24.5-28.32 19.47zM0 49.88V2.39h32v95H0zm48 24.5v-23h5.5c5.44 0 5.5.03 5.5 3 0 3.54 1 3.78 3.6.86 6.18-6.94 19.22-6.17 24.83 1.46 1.89 2.57 2.1 4.47 2.4 21.75l.33 18.93H78l-.01-15.75c-.02-19.97-2.32-24.66-10.64-21.7-5.7 2.03-6.63 4.88-7.15 21.9l-.47 15.55H48zm56 4.5v-18.5h-3.5c-3.48 0-3.5-.03-3.5-4.5 0-4.48.02-4.5 3.5-4.5h3.5v-5.37c0-9.35 5.64-13.4 17.22-12.35 7.04.64 6.61.3 6.03 4.97-.46 3.66-.57 3.75-4.66 3.75-5.05 0-6.59 1.33-6.59 5.7 0 3.24.08 3.3 4.5 3.3h4.5v9h-9v37h-12zm27-4.5v-23h12v46h-12zm24 0v-23h5.5c5.44 0 5.5.03 5.5 3 0 3.54 1 3.78 3.6.86 6.18-6.94 19.22-6.17 24.83 1.46 1.89 2.57 2.1 4.47 2.4 21.75l.33 18.93H185l-.01-15.75c-.02-19.97-2.32-24.66-10.64-21.7-5.7 2.03-6.63 4.88-7.15 21.9l-.47 15.55H155zm54 0v-23h12v46h-12zm151-12v-35h-29v-25h91v25h-29v70h-33zm198 12v-23h12v46h-12zm24 0v-23h5.5c5.44 0 5.5.03 5.5 3 0 3.54 1 3.78 3.6.86 6.18-6.94 19.22-6.17 24.83 1.46 1.89 2.57 2.1 4.47 2.4 21.75l.33 18.93H612l-.01-15.75c-.02-19.97-2.32-24.66-10.64-21.7-5.7 2.03-6.63 4.88-7.15 21.9l-.47 15.55H582zm282-8.5v-31.5h12v63h-12zm107 8.5v-23h12v46h-12zm79 0v-23h5.5c5.44 0 5.5.03 5.5 3 0 3.54 1 3.78 3.6.86 6.18-6.94 19.22-6.17 24.83 1.46 1.89 2.57 2.1 4.47 2.4 21.75l.33 18.93H1080l-.01-15.75c-.02-19.97-2.32-24.66-10.64-21.7-5.7 2.03-6.63 4.88-7.15 21.9l-.47 15.55H1050zm-919-34.5v-5.5h12v11h-12zm78 0v-5.5h12v11h-12zm349 0v-5.5h12v11h-12zm413 0v-5.5h12v11h-12z"/></svg>