<svg xmlns="http://www.w3.org/2000/svg" width="150" height="150.1"><path fill="#ed7e03" d="M42.5 0l-.3.1c-.4 0-.4.3-.1.7.2.4.6.4.6 0 .1-.4 0-.8-.2-.8zM25.3 4.3c-.2 0-.4.3-.3.4.1.2.2.2.4 0 .2 0 .1-.3 0-.4zm19 3.3c-.3 0-.4.2-.5.6-.4 1 0 1.6.7 1.2.6-.3.6-.8.2-1.4-.2-.3-.3-.4-.5-.4zM55 9.9l-.3.3c-1.6 1.2-.3 3.5 1.6 2.8.8-.3 1-.6 1-1.7 0-1.3-.2-1.4-1.5-1.4zm-3.9 4.6c-.2 0-.2.6 0 .6l.1-.3v-.3zm4 4c-.1 0-.4.2-.8.7-.8 1-.8 1.2.2 1.7s1 .5 1 1.3c.2.9.5 1.2.8.8v-1.4c.5-.2.3-.8-.3-1.3l-.4-.3v-.6c0-.6-.2-1-.4-1zm-6.4 1.1l-.2.4.2.2c.1 0 .2 0 .2-.2s0-.4-.2-.4zm-27.9.2a1 1 0 0 0-1 1l.6 1.1h.8c.6-.3.6-1.9 0-2zm2.8 1c-.2 0-.3.2-.4.6a.7.7 0 0 0 1.2.6c.5-.4.4-.8-.2-1zm7.3 3c-.2 0-.2.2 0 2 .2.6.7.9 1 .5.4-.3.4-.6.3-1-.6-1.1-1-1.6-1.3-1.6zm25.7.6h-.2c-.6.5-.6.9-.2 1.4.5.6.6 1 .6 1.6v.6l.3.4c.2.2.4.4.4.6l.1.7.1 1.3c0 1 .1 1.1 1 2 1.3 1.7 1.5 3 .3 3-.6 0-.7 0-.8-.4l-.1-.4h-.4a4 4 0 0 0-2.6 1.4l-.8 1.1-.2.6-.2.9c-.3 2.3-.3 2.3.5 2.3 1.7 0 3.2.5 3.3 1.2.2 1-1 2.4-2.5 2.6a12 12 0 0 1-5.3.1c-1.6-.1-1.7-.1-1.9-.5-.3-.6-1-.6-1.5-.1l-.8.8h-.4a1 1 0 0 1-.3.2h-.2l-.3.2-.7.2-.6.2-.6-.2-.8-.3-.2-.1c-.3 0-.3-.8 0-1.4 0 0-.2-.3-.4-.3l-.6.4-.5.4h-.7c-1-.1-1.4.2-1.5 1.3 0 .9-.2 1.3-.5 1.5-.3.4.2.7 1.3.7.6 0 .8 0 .8.5.1.5.3.8.8 1.1.7.4.7.3.7 1.1 0 .9-.8 1.7-1.7 1.7l-.3.1h-2.3l-.8-.3c-1-.4-1.8-.4-2 0 0 .1 0 .2-.3.2-.9 0-1.3-.5-1.5-1.8 0-.6-.2-1.2-.5-1.7L31 49c-.3 0-.3-.3 0-.6l.5-1c0-.3-.2-.4-.4-.3-.4.4-1 .4-1.5.2-1-.6-1.5-.1-1 .8.3.6 0 1.3-.4 1.3-.2 0-.4.3-.4.5l.4.5c1.4 1.4 1.7 2 1.4 2.3-.2.3-.7.3-1.1 0-.6-.2-1-.2-1.3.2l-.4.3h-2l-.5-.2h-.8l-.8-.5-1.2-.6c-.3-.2-.5-.3-1-.3l-.8-.1-.8-.2a7.5 7.5 0 0 1-3.1-1.2l-.7-.4s-.2 0-.2-.2l-.2-.1-.5-.3a58.5 58.5 0 0 0-4-2.5c-.6-.3-.7-.4-.6-1 .2-.9-.2-1.4-.9-1a1 1 0 0 1-.3 0l-.7 1c-.1.5.4 1.4.8 1.4.2 0 1.1 1.1 1.4 1.6.3.6.3.7.1 2.2 0 .5 0 .6.6.7 1 .2 1.2.3 1.8.7a12 12 0 0 1 3.2 3l1.2 1.5c.1.2.7 0 1.3 0 .5-.3.6-.3 1 0a5 5 0 0 0 1.3 1h.3l.5.2.9.3.5.3.1.1.6.4c.2 0 .5.2.5.3.5.3 1.9 1 2.4 1 1.3.3 2.3 1.3 2 1.8-.4.5-1 .7-2 .6-.6-.1-1.1.1-1.3.6l-.1.4c-.6 1-.5 2.2.1 2.2 0 0 .2 0 .3.2.6.7-.7 1.6-1.5 1-.9-.6-1.1-.5-1 .3v.5l-.5.2-.6.2-.6.4a13.3 13.3 0 0 0-1.2.7c-.2 0-.5.5-.6.8-.1 1-1 1.7-1.8 1.4l-1.4-.5c-1 0-1.7 1.2-1.4 2.2.2.8.2 1.2 0 1.7-.4.7 0 1.4.7 1.4l.6.1c.6.2.8-.1 1-1.5 0-.7 0-.8.3-1.3.7-1 1.1-1 1.6-.2l.6 1.5c0 1.1 3.5.8 4.6-.4 1-1 1.2-1.1 1.8-.6.5.5.8 1.2.8 1.9 0 1 .3 1.4 1.2 1.4 1 0 2 2 1.4 3.2l-.1.4c0 1-2.4 2.9-3.7 2.9h-.8l-.4-.4c-.6-.6-.6-.6-1-.2-.9.8-.7 2.3.4 3.5 1 1.1.9 2.3-.4 2.6-.8.1-1.2 1-1.1 2 0 1.6 0 2.9-.4 3.3-.4.7-.4 1.3.3 2.5 1 1.9 1.3 2.6 1.5 3.9v.4l.7.3c1 .6 1.3 1.5.6 1.8-.7.3-1.7 1.5-1.9 2.4a12.5 12.5 0 0 1-1.1 3.2c-.2.3-.3.8-.2 1.3.2.7 1.5-.2 2.5-1.8.6-.9 1.4-2 1.9-2.3l.5-.6c.7-.6 2.6-1.2 2.8-.8l.3.1c1.4.3 2 1.4 1.8 2.9-.2 1 .5 1.8 1.2 1.5.4-.2 1.4-1.6 1.3-1.9-.3-1-.4-2-.2-2.4 1-1.9 1.7-1.9 2 .1l.8 3 .7 2a15.2 15.2 0 0 1 .4 1.5l.4.9a23.3 23.3 0 0 0 1 2.6 72.1 72.1 0 0 0 6.6 11.2l.5.6c0 .2.4.6.7 1l.7.8a54.1 54.1 0 0 0 9.2 8.9l.8.6a56.6 56.6 0 0 1 3.7 2.6l.8.5.8.5 2 1.1a32.8 32.8 0 0 0 4.2 2.1 22.2 22.2 0 0 1 2.2 1l.6.2.6.2.7.2.4.2.4.2.7.2.7.2h.4c.2.2.8.4 1 .4l.5.2.8.2.6.1 2.3.5 1.8.4 2.1.3 1.3.2a58.1 58.1 0 0 0 48.7-18.4l.8-.8 1.8-2.2c1.6-2 3.1-4.1 4.4-6.3l.3-.5.5-.8a60 60 0 0 0 3.7-8l.2-.4a19.7 19.7 0 0 0 1-3s0-.4.2-.7a38.4 38.4 0 0 0 1.3-5l.2-1.6a40.2 40.2 0 0 0 .8-7.1v-5.8c-.1-2.8-.3-3.8-.7-6.7l-.3-1.8-.2-.5v-.4l-.1-.4-.2-.7-.3-1.2-.3-1.2a4 4 0 0 0-.2-.6l-.2-.6a32.5 32.5 0 0 0-1.3-3.8 61.6 61.6 0 0 0-6.9-12.8l-.9-1.2a35.5 35.5 0 0 0-3-3.8 73.8 73.8 0 0 0-10-8.8s-1-.8-1.9-1.2a23.3 23.3 0 0 1-1.9-1.2l-1-.6-.9-.5a43.6 43.6 0 0 0-9-3.9l-1.2-.4a40.2 40.2 0 0 0-4.2-1.1l-.6-.2-1.3-.2-.5-.1-1.4-.3-.9-.1-1.3-.2c-3.3-.4-6.7-.5-10-.3l-2.4.2a92.4 92.4 0 0 0-13.8 2l-1.2.4c-.1.2-.8.3-1.5.2a43.6 43.6 0 0 0-2.8-.4l-.8-.2-.5-.1-1-.4c-1.6-.5-2.9-1.3-2.9-1.9 0-.4-1-1.4-1.4-1.4-.3 0-.6-.5-1-1.3l-.3-.5-.2-.2v-.3c-.4-.5-.6-1-.8-1.5l-.3-1.4c-.4-2-1-3.3-1.7-3.3zm-32.2 1.4l-.4.4c-.3.6-.2.7 0 .7.4-.1 1 .3 1.4.9.2.4.4.4.5.1.3-.5-.2-1.3-1-1.9zM37.6 27c-.3 0-.4.1-.4.7 0 .7.4 1 1 .6.4-.4 0-1.3-.6-1.3zm5.4.8c-.2 0-.9 1.2-.9 1.6 0 .7.6 1.2 1 1 .7-.7.6-2.6 0-2.6zm-20.7.4c-.3 0-.8.6-.8 1 0 .3.8.8 1 .6.8-.3.6-1.3-.2-1.5zM32.5 30c-.5 0-1 .1-1.5.4-1.1.5-1 1.2.4 2.5 1.4 1.2 2 2.4 1.7 4.2-.4 3-.2 4.2 1 4.2h.4c.2-.2 0-1-.4-1.5-.7-1.2-.7-2.2 0-2.2s.8-.2.2-.8c-.4-.4-.5-.5-.4-.9.1-.2.7-.6 1-.6h.2l.3-.2c.3-.1.4-1 0-1L35 34l-.3-.2v-.5c.2-.7.2-1.4 0-1.5l-.2-.5a2 2 0 0 0-2-1.3zm-17.7.2c-.4 0 .4 1.5 2.3 4a21.3 21.3 0 0 0 2.4 2.5c.3.2.3.2.4.1 1-.5-.4-3-3.2-5.3l-.9-.7c-.5-.4-.8-.6-1-.6zm-8 1v.1c-.3.3.9 1.5 1.6 1.8.4.2.5.2.5 0 0-.5-1.7-1.9-2.1-1.8zm31.4.3l-.3.1c-.7.8-.9 1.4-.6 2.4.3.8.6 1 1 .7l.4-.3 1.5-1.4.2-.1-.6-.6c-.5-.5-1.2-.8-1.6-.8zm-11.6 0a2 2 0 0 0-1 .3 2 2 0 0 0-1.1 2.7l.6 1 .5.4c.4.4 1.4.5 2 .1 2.3-1.4 1.2-4.5-1-4.5zm23.7.3l-.1.5c0 .7.1.8.3.5.1-.2 0-1-.2-1zm-5.4 1c-.3 0-.7.3-.9 1 0 .6.1.8.5.5l.5-.2c.5 0 .7-.3.5-.9-.1-.3-.3-.4-.6-.4zm3 2c-.3 0-.6.1-1.2.6h-.6c-.8 0-1.1.2-.6.4.8.3 1 .4 1.3.9l.3.6c0 .1 0 .3.2.4.1.1.1.1.4 0l.6-.5.4-.5c.7-.5.6-1-.3-1.7a1 1 0 0 0-.5-.2zm-6.3.5c-.3 0-.6 0-.7.2l-.8 1.3-.2.5c-.8 1.5.8 3.4 2.1 2.5a7 7 0 0 0 2-2.6c.1-.3 0-.4-.3-.5-.2 0-.2 0-.2-.4-.1-.7-.3-.9-.8-.8h-.4c-.2-.2-.4-.2-.7-.2zm-3.9 2l-.2.2c0 .2.3.2.4 0 0 0 0-.2-.2-.2zm-22.3 1.3c-.3 0-.4.1-.2.3.2.2.4 0 .4-.2zm8.5 1.1h-.1c-.2 0-.2.3 0 .7.2.5.5.6.8.4.3-.4-.1-1-.7-1zm26.7.3c-.5 0-1 .7-.7 1 .3.4 1 .4 1.3.1.2-.4-.1-1-.5-1zm-5.2 1.4c-.7.2-1.3 1-1 1.4.2.4 1 .5 1.4.2.5-.4.2-1.6-.4-1.6zm-25 .5l-.1.2c0 .3.3.4.4.2 0-.2 0-.4-.2-.4zm-6 .5v.1s.1 0 0 0zm11.4 2.3c-.2 0-.2.2-.1.8l.1 1c0 .5.2.7.6.5.2 0 .2-.4 0-.6l-.1-.5c0-.4-.3-1.2-.4-1.2zm-13.7.3c-.2 0-.2.1-.2.2h.3zm4.4 0c-.5 0-1 .7-.6 1.2.2.4.6.4 1 0 .3-.3.3-.7 0-1a.5.5 0 0 0-.4-.2zM34 46c-.2 0-.5.1-.6.3l-.3.2.2.3c.2.4.2.7-.1 1-.5.6.2 1 1 .5.5-.4.8-.8.8-1.3s-.5-1-1-1zM13 56c-.4 0-.5.2 0 .4h.5c.2-.2 0-.4-.4-.4zM.2 60.8L0 61h.3v-.2zm20.3 1.7h-.3c-.6 0-2.1.8-2.1 1h2c1.2-.4 1.3-1 .4-1zm67.2.8a47.7 47.7 0 0 1 4.7.2l.9.2a18.7 18.7 0 0 1 7 3l2.2 2 1.3 1.6c.5.7.4.9.4-2.1 0-2.4 0-2.6.3-3.3l.1-.3h8.1v.5c.3 2 .3 3.7.3 10.1-.2 18.2-.2 18 1 20.3.2.5 1.1 1.6 1.3 1.6l.4.2.4.3.7.1a9 9 0 0 0 3.8.4l.6-.2a8 8 0 0 0 6-5.8l.2-.3v-.5c.4-.6.7-2.7.9-4.4V72.4c0-4.5.1-7.5.3-7.7a48.7 48.7 0 0 1 7.3 0c1.2 0 1.1-1 1 21.5V105l-.1.8h-1.1c-3.3 0-5.4-1-7-3.4-.3-.6-.2-.6-1.4.3a15.8 15.8 0 0 1-3.7 2.4c-.6.3-1.3.5-2 .6l-.7.1a17 17 0 0 1-12.5-2.8c-1-.8-1.8-1.7-2.4-2.7-.3-.6-.4-.5-.8.3-.8 1.5-1.8 2.6-3.7 4l-3.3 1.8a15.2 15.2 0 0 1-2.3.7l-.7.2-.6.1c-1.4.3-1.7.3-4 .5l-1.6.1v2.2c0 2.5 0 2.6.2 1.9.6-1.5 1.6-2.2 3.1-2.2 1.8 0 2.8.7 3.1 2.3l.2.6.1-1.3c0-1.6 0-1.5.8-1.5.6 0 .7 0 .7.2 0 .3 0 .3.7 0 .9-.5 2.2-.4 3 .1.3.2.5.2.5 0 0-.3 0-.3.6-.4.4 0 .4 0 .4-.9v-.8h1.5v.8c0 .9.1 1 .7 1 .5 0 .5 0 .5.7 0 .6-.1.7-.7.7-.5 0-.5 0-.5 2.3 0 2.2 0 2.1.6 2.2.6.1.6 0 .6.7s-.8 1-1.6.7h-.4c-.1-.1-.3-.2-.4-.5l-.3-.3V114c0-2.7 0-2.7-.4-2.7h-.3v5.8l-.7.1h-.7v-2.6c0-1.8-.1-2.6-.2-2.8-.4-1-2-.8-2.6.3l-.2.3v2.3c0 2.6 0 2.5-.8 2.5s-.8 0-.8-1.7v-1.4h-2.5c-2.8 0-2.6 0-2.5.5.1.9 1 1.5 1.8 1.3.7 0 1.4-.5 1.4-1 0-.2.1-.2.8-.3.7 0 1 0 .8.4l-.1.3c-.4 1.6-3 2.6-4.7 1.7-.7-.3-1.6-1.5-1.6-2 0-.8-.1.1-.2 1v1.1h-.6l-.8-.1-.1-.2-.4.2c-1 .8-3.3.3-3.9-.8l-.1-.2-.2-.4c-.3-1-.4-.7-.5.6v1h-.6c-.7 0-.8-.1-.8-.4l-.6.2c-1 .5-2.4.4-3-.3-.3-.2-.5-.2-.5 0 0 .5-.1.5-1 .5-1.2 0-1.6-.3-1.7-1.3 0-.4-.2-.5-.3-.1-.1.5-1 1.3-1.7 1.4l-.7.2h-1.1l-.4-.1a3 3 0 0 1-1-.3c-.5-.3-1-1.1-1-1.6l-.1-.3c-.3-.3 0-.4.7-.5.7 0 .7 0 .8.5.2.4.2.5.5.7.7.4 2.3.2 2.5-.3.1-.7 0-.8-1.5-1.2l-2-.7a2 2 0 0 1 .5-3.6c1-.4 3-.3 3.3.1.2.2.4.2.5 0 0-.2.1-.2.4-.2.5 0 .5-.2.6-1 0-.9 0-.9.8-.8h.7v.8c0 1 0 1 1.3 1 1.4 0 1.2-.3 1.2 2.7v2.5l.2.4c.2.3.2.3.8.4.6 0 1.3-.4 1.3-.7l.2-.3c.2-.2.2-.8.3-2.9 0-2.3-.1-2 .7-2 .8-.1.8-.2.8 1.6 0 1.4 0 2 .1 1.1.2-1.4 1-2.5 2.2-2.8H87l.4.3c.2.3.3.2.3-1 0-1.4.1-1.3-1.6-1.5a19.7 19.7 0 0 1-5.3-1l-.9-.4a11.8 11.8 0 0 1-1.5-.7c-.4 0-3-1.9-3.5-2.7-1.2-1.6-1.5-1.4-1.4.7v1.5h-1a9 9 0 0 1-2.4-.2l-2.3-1.1a6 6 0 0 1-1.8-3c-.2-.9-.2-.9-1.2.2l-2.8 2.3a12.9 12.9 0 0 1-4.7 1.9c-1.8.4-5.4.4-7.1 0h-.8a7 7 0 0 1-.7-.3H48l-.4-.2-.9-.4a11.7 11.7 0 0 1-7.2-9 27.4 27.4 0 0 1 .1-4.7 9.6 9.6 0 0 1 2.1-4.8l.3-.3.3-.3.6-.5.3-.3a11.6 11.6 0 0 1 3.7-2.1l.7-.3h.4l.4-.2 2-.5.7-.2h.8l1.3-.3 1.5-.2h1.2l1.3-.2h2l4.4-.3c.5 0 .5-.2.6-1.2.2-2.3 0-4-.6-4.9-1-1.4-2-2.2-3.4-2.5l-.7-.1c-1-.3-3.6 0-4.8.4l-.7.2c-1.6.5-3.3 2.2-3.3 3.2l-.1.6-.1.5c0 .6.2.6-4.7.6-5 0-4.6.2-4.3-1.8l.2-1 .4-1.4.2-.5a11.5 11.5 0 0 1 5-5.6 11 11 0 0 1 2.1-1l.5-.2c.3 0 .6-.2.8-.3l2.5-.6h.9c2-.5 5.7-.4 8 0l2.4.6.4.2.5.1.4.2.2.1c.2 0 1.9 1 3 1.8 1.3 1.1 2.4 2.6 3 4.2.2.5.3.5.5.2.7-1.7 3.2-4.6 4.5-5.3a17 17 0 0 1 9-3.3l1.7-.1zm-68.1 3.2h-.1l-.6.1c-.7.2-.8.4-.5.7.2.3.2.3 1 .1.3 0 .7-.3.7-.5s-.2-.4-.5-.4zm-6.7 1c-.3 0-.6 0-.9.2-.5.1-.4.4.2.4l.2.1h.5c.7-.4.5-.7 0-.7zM88.6 71a11.4 11.4 0 0 0-4.2.8l-.4.2c-2.5 1.3-3.5 4-2.4 6l.3.5.3.3.1.2c0 .6 4 2 5.6 1.9h.6l3 .3a33 33 0 0 1 7 1.2 23 23 0 0 1 3.2 1.8 16 16 0 0 1 2.1 1.7c.5.5.5.6.5-4.4V77h-4c-3 0-3.9 0-4-.2V76c-.2-3-3.7-5-7.7-5zm-80 3l-.4.5C7 75.7 7 76 8 75.6l1.3-.3.4-.1c.8 0 .9-.4.3-.9-.4-.3-.4-.3-.9-.3zm-5.5 1.5s-.2 0-.3.2l-.3.2c-.2 0-.8.6-.8.8 0 .2.1.2.6-.1.5-.3 1-.7 1-1zm15.5 1v.3c.2.2.4.3.5.1 0-.1-.3-.4-.5-.4zm2.4 1.7h-.6c-.3.2-.5.3-.8.3-.7 0-1 .5-.7 1l.1.5c.1.4.2.5.5.2v-.8s.3-.3 1.4-.8c.4-.1.5-.2.5-.3zm4 .4c-.6 0-1.1.4-1.5 1-.2.5 0 .8.7 1 .5 0 .5 0 .8-.4.2-.4.2-.5.2-1v-.6zm-10.5 2.2a6 6 0 0 0-3.2 1.2c-.3.3-.4.4-1.8 1a6.2 6.2 0 0 1-1.3.5l-.4.2c-.4.1-.9.6-.8.7.2.2.5.2.9-.1a5 5 0 0 1 3.3-1c1 .2 2 0 3.7-.6 1.2-.4 1.5-1.3.7-1.7-.3-.2-.7-.2-1-.2zm59.2 2.7c-.3 0-.5 8.5-.2 9.6l.1.2h3c3.5 0 3.4 0 3.4.5a7 7 0 0 0 1.4 3.6 7.4 7.4 0 0 0 3.7 2.4l2.4.5h3.2l1-.2.8-.2c.2 0 .4 0 .6-.2h.4l2.2-1.2c1.6-1.3 2.2-4 1.4-5.5l-.2-.4c-.2-.7-1.1-1.7-1.4-1.7l-.4-.2-.5-.2-.5-.1-1.7-.4-3.3-.3a44.7 44.7 0 0 1-10.6-2l-.8-.5a20 20 0 0 0-1-.8 9 9 0 0 1-3-2.9zm-56.3.8c-.3 0-.4.3-.5.8-.2.6 0 .9.5.7h.3c.4 0 .6-1 .2-1.3zm-2.7 2l-.5.4c0 .4.2.4.5 0 .2-.3.3-.4 0-.5zm-11.6.4c-.1 0-.3 0-.2.2h.4l-.1-.2zm61.1.6h-1l-5.8.2c-1.5.1-3 .3-4.3.6-1.6.3-3.7 1.7-4 2.6l-.3.8a5 5 0 0 0 .4 3.8 6 6 0 0 0 2.7 2.3 8.5 8.5 0 0 0 1.9.5c.2.1 2.3 0 3-.2 2-.4 2.4-.6 4.2-1.8a9.8 9.8 0 0 0 3.1-4.8c.3-1.2.3-2.4.2-3.6zm-55.6.9c-.1 0-.3 0-.5.2s-.1.6.3.7l.4-.1c.2-.2.3-.3.1-.6zm8.6.7c-.1 0-.2.3 0 .4l.1-.2zm-1.3 1.9c-.3 0-.5.1-.6.4-.1.5 1 1.1 1.5.7.2-.2-.2-.8-.5-1a.9.9 0 0 0-.4-.1zm3.1.8l-.4.3c-.2.4-.2.5.2.5.3 0 .3 0 .4-.2.2-.3 0-.5-.2-.6zm-13.5.2l-1 .2-.8.1c-1 .1-1.2.3-.7.5h1.5c1.2-.2 1.6-.5 1.3-.7h-.3zm7.1 5.3c-.3 0-.7.1-.9.3l-.3.9c0 .4.3.3 1-.3.4-.4.5-.6.4-.8h-.2zm108.7 10.3c.8 0 1 .3.7 1.6 0 .2-1.3.3-1.5 0-.5-.5 0-1.6.8-1.6zm-63.3.8h1v.8c0 .9 0 1 .3 1 .4-.1.8 0 .8.3 0 .2.2.3.6 0 .7-.4 2.5-.6 3.3-.2 1 .4 1.8 1.8 1.4 2.2-.4.3-1.4.1-1.5-.3-.2-.8-1.8-1-2.5-.4-.3.3.1 1 .6 1l.4.1.5.2c2.1.4 2.7.8 2.7 2.2 0 1.4-.8 2.2-2.3 2.4H62l-.7-.1-.6-.2c-.4-.3-.4-.3-.6 0-.3.3-1.5.3-2 0-.6-.5-.6-.4-.6-3.1s0-2.5-.6-2.5c-.5 0-.8 0-1 .4-.5.6-.5.6-.6 3v2.3h-2.8l-.4-.3-.4-.3-.3.2c-1.8 1.4-4.3.4-4.3-1.7 0-1.5.8-2.1 3.1-2.3l1.2-.3c.3 0 .4-.3.3-.7-.3-1-2.7-.8-2.7.2 0 .4-.7.6-1.4.4-.7-.1 0-1.8 1.1-2.3l.6-.3h1c1.5 0 2.2.3 2.7 1l.2.3v2.3c0 2.4 0 2.5.4 2.5.2 0 .2-.1.3-3v-2.9h1.4v.1c.1.3.2.4.4.2.3-.3.6-.5 1.2-.5.5 0 .6-.1.6-1 0-.7 0-.7.5-.7zm67.4 1.6c1.4 0 2.7.7 3.1 2.2.2.4.3.5.3.1v-2h1.4l.2.1c0 .3.1.3.3.2.3-.4.8-.5 1.8-.6h1l.1.2.3.2c.1 0 .5.5.7 1 .2.4.3 5.8.1 6h-1.3v-2.5c-.1-3.3-.2-3.5-1.6-3.4-1.2.1-1.4.6-1.4 3.5 0 2.6 0 2.4-.8 2.4-.9 0-.8 0-.8-1.4 0-1.2 0-1.4-.3-.8-.5 1.9-1.9 2.6-4 2.4-.9-.1-2-1-2.2-1.8-.1-.5-.3-.3-.3.7v.9h-.7c-1 0-.9.5-.9-3.6 0-4 0-3.6.9-3.6.8 0 .8 0 .7 1.1 0 .9.1 1.2.2.9a3.3 3.3 0 0 1 3.2-2.2zm-7.8 0c.6 0 1.3.2 1.6.5.8.6.9 1 .9 4.1 0 3.2.1 3-.9 2.9h-.6v-2.6l-.2-2.8c-.5-.9-2-.7-2.5.2l-.3.4v2.3l-.1 2.4h-1.4a73 73 0 0 1 0-7.1c.3-.2 1.3-.1 1.4 0 .1.3.3.3.8 0 .4-.2.8-.2 1.3-.2zm-4.9.2h.7c.2.2.2 7 0 7.2h-.7l-.6.1v-.2c-.1-.3-.3-.3-.4-.1-.2.3-2 .6-2.7.3-1.3-.4-1.5-1.5-1.4-7.1l.8-.1h.8v5.4l.3.2c.5.5 1.5.4 2-.3.4-.4.4-.7.4-3l.1-2.3h.7zm12.6 1.2c-1 0-1.7 1-1.8 2.3 0 2 1.2 3.1 2.6 2.4 1.4-.7 1.4-3.8 0-4.5a2 2 0 0 0-.8-.2zm-54.4 0c-.7 0-1.3.3-1.3.8 0 .1.5.6.7.6h.4l.5.3.6.1c1.2.3 1.9.7 2 1.2.3.6.3.2.4-1.2 0-1.4 0-1.7-.3-1.6-.1 0-.2.1-.1.4 0 .5 0 .6-.8.6-.6 0-.7 0-.8-.4 0-.5-.7-.8-1.4-.8zm21.6 0c-.5 0-1.3.4-1.3.7l-.2.2-.2.5v.3h1.6l1.6-.1v-.2c0-.6-.6-1.3-1.4-1.4zm-6.6.2c-.5 0-1 .2-1.3.6-.7 1.2-.4 3.5.4 3.8.8.3.7.3 1.3.2 1.2-.2 1.7-2.4 1-4-.3-.4-.8-.6-1.4-.6zm-26.6 0c-.3 0-.3.3-.3 2.4v2l.3.1c.3.1.4-.2.2-.7-.2-.3 0-.5.7-.4.8 0 .8 0 1 .6 0 .2.1.3.3.4l.3.2c.2.2 1.5.1 1.7 0l.4-.2c.5-.3 0-1.3-.9-1.3l-.4-.1a2 2 0 0 0-.5-.1l-.3-.1-.3-.2c-1 0-1.7-.8-1.8-1.9v-.7zm16.8 0l-.3.1v4.2l.1.2h.7l-.1-4.4zm-24.9 2.7h-.9l-.8.2c-.5.1-.9.6-.8 1 .1.8 1.1 1 2 .6.7-.4 1-.7 1-1.3v-.5zm31.4.2z"/></svg>