<svg xmlns="http://www.w3.org/2000/svg" width="161.9" height="161.9"><path d="M81 162H0v-29.2h7.4v22h147.3l.1-11v-11h7.1v29.1zm-54.1-51.6h-4.2V51.5H31v58.9zm48 0H61.2V51.5h13.2a66 66 0 0 1 15.7.7c1.4.3 3.4 1 4.4 1.6 1 .5 2.6 1.8 3.5 2.7 1 1 2 2.6 2.6 3.7.5 1.1 1 2.8 1.3 3.8l.3 3.4a16.2 16.2 0 0 1-1.5 6.7 20 20 0 0 1-5 5.3l-1.2.7 1.5 1a17.4 17.4 0 0 1 5.5 5.6 17.4 17.4 0 0 1 1.6 7.4l-.4 4-1.3 3.9a14.9 14.9 0 0 1-6.2 6.3 22 22 0 0 1-4.3 1.6c-1.6.4-4.6.5-15.8.5zm3.3-8c6.4 0 8.4-.1 9.8-.5 1.1-.3 2.2-1 3.2-2a9 9 0 0 0 2.1-2.9c.4-.9.6-2.3.6-3.6a13 13 0 0 0-.4-3.3 9.2 9.2 0 0 0-4.6-4.7c-1.6-.7-2-.8-10.3-.9h-8.5v17.9zm.2-26c6.6-.1 8-.2 9.4-.7.9-.3 2.2-1.2 3-1.9 1-1 1.4-1.8 1.8-3.2.4-1.3.5-2.5.4-3.6 0-.9-.4-2.2-.8-3a9.6 9.6 0 0 0-2-2.3c-.7-.7-2-1.4-3.1-1.7-1.5-.4-3.4-.5-9.4-.5H70v8.3c0 4.5 0 8.4.2 8.5.1.1 3.8.2 8.1.1zm57 34h-4.2V51.2h8.3v59.2zM3.7 29.1H0V0h162v29.1h-7.1V7.4H7.4v21.8z"/></svg>