<svg xmlns="http://www.w3.org/2000/svg" width="966" height="355.4"><path fill="#fe5f00" d="M62.5 355.4a89.2 89.2 0 0 1-35.4-8.8 53 53 0 0 1-12.2-9.7c-3-3.3-7.5-9.8-10.1-14.5L0 313.8l15.9-15c8.8-8.3 16.2-15.1 16.6-15.2.3 0 2 3.3 3.8 7.4 1.8 4 5 8.8 7 10.5 2.2 1.8 6 3.9 8.5 4.6 2.5.7 6 .9 7.6.5a18 18 0 0 0 6.3-3.6c1.7-1.5 4.4-5.5 6-8.8 2.7-5.8 2.8-8 3.4-89.6l.7-83.5 26-16.7 26-16.7.4 101.6c.3 88.5 0 103-1.8 112.3a102 102 0 0 1-6.6 20 68.3 68.3 0 0 1-11 16A69.4 69.4 0 0 1 95.4 348a71.2 71.2 0 0 1-33 7.4zm136-1.2c-7.1 0-13.4-1-18.8-2.8-4.5-1.5-11-5-14.6-7.6a59.4 59.4 0 0 1-10.9-11.4 58.2 58.2 0 0 1-6.5-13.8 61 61 0 0 1-1.7-20.2 45.7 45.7 0 0 1 15-35.6c5-5 11-9 18.5-12.7a113 113 0 0 1 23.7-7.9c7-1.4 18.8-3 26.3-3.5l13.8-.9-.9-4.1a113 113 0 0 0-1.4-6.4 22 22 0 0 0-5.2-6.2 29.6 29.6 0 0 0-9.6-5.5 70 70 0 0 0-14.5-1.4A97 97 0 0 0 174 223c-4 1.9-7.5 3.2-7.7 3a468 468 0 0 1-4.5-15.6c-2.3-8.3-4-16-3.6-16.9.4-.9 3.6-3 7-4.5 3.6-1.6 12.2-4.4 19.2-6.2a120 120 0 0 1 31.3-4c13.8-.6 21.1-.2 28.2 1.3a93 93 0 0 1 16.8 5.5c4 1.9 10 5.8 13.4 8.7a66 66 0 0 1 10 11.7 87.8 87.8 0 0 1 7.1 15c2.9 8.3 3 11.1 4 64.7.5 30.8 1.3 58.2 1.9 61l1 5-23.8-.3-23.8-.4-1-5.3-1.8-8.5c-.8-3-.9-3-6.6 2.3a57.2 57.2 0 0 1-11.2 8c-3 1.6-8.9 3.7-13.1 4.8-4.2 1.1-12.5 2-18.4 2zm18-36a31 31 0 0 0 11.3-2.5c3-1.3 7.3-4.6 9.6-7.2 2.3-2.7 4.9-7.1 5.7-9.9a87 87 0 0 0 1.4-16.9v-11.9l-10.6 1c-5.8.4-13.6 1.8-17.3 3a42 42 0 0 0-11.5 6.2 27 27 0 0 0-6.8 8.4 25.8 25.8 0 0 0 .6 20.4c1.4 2.5 4.5 5.7 7 7a26 26 0 0 0 10.6 2.4zm356 34c-9.2.3-20.3 0-24.6-.7-4.4-.7-11-2.2-14.7-3.4-3.7-1.2-10.8-4.3-15.8-7-5.2-2.6-12.5-8-16.8-12.3a83.2 83.2 0 0 1-12.6-17 93.5 93.5 0 0 1-10.5-46.2 91.7 91.7 0 0 1 11.2-47.8 78 78 0 0 1 15-20.2 76.7 76.7 0 0 1 34.1-20c4-1.2 12.4-2.4 18.7-2.8 8-.6 14.3-.2 21.3 1.3a89.2 89.2 0 0 1 16.9 5.5 74.6 74.6 0 0 1 14 9.7 85 85 0 0 1 12 14.2 90.1 90.1 0 0 1 8.4 18 120.3 120.3 0 0 1 5.3 44.2l-1 11.9H527l1 4.3a32.7 32.7 0 0 0 10.9 18.2c2.7 2.3 8.3 5.5 12.3 7.1 6.4 2.6 9.8 3 26 3 15-.1 20.9-.7 29.9-3a49.5 49.5 0 0 1 11.8-2.4c.4.3 2 8.3 3.8 17.6 2.4 13.2 2.8 17.3 1.5 18.1a168.7 168.7 0 0 1-27 7.7c-4.4.8-15.5 1.7-24.6 2zm-15.2-108.6h30.2l-.8-6.6c-.4-3.6-2-9-3.4-11.8a33.3 33.3 0 0 0-6.8-8.7 28.8 28.8 0 0 0-17.9-6.3c-2 0-6.3.8-9.3 1.7-3.1 1-7.9 4-11 7.1a39.7 39.7 0 0 0-8.3 13 50.5 50.5 0 0 0-2.9 9.6c0 1.7 4.6 2 30.2 2zm-164.9 108c-16 0-29.4-.5-29.8-1.2-.4-.6-14-38.4-30-84L303 182.7c0-.3 12.3-.6 27.3-.6h27.2l1.9 6.4 17 55.3c8.4 27 15.6 48.5 16 48a242.2 242.2 0 0 1 11.5-39 423.4 423.4 0 0 1 36.1-72c5.1-7.7 14-20 20-27.3a350 350 0 0 1 54.6-53c7.4-5.5 18.5-13 24.6-16.7a415.2 415.2 0 0 1 50.2-25 75.8 75.8 0 0 1 13-4.4 48 48 0 0 1-9.8 7.3A245.1 245.1 0 0 0 571 78.5a448.2 448.2 0 0 0-22.7 21.8 441 441 0 0 0-22.4 25.6 509.2 509.2 0 0 0-39.2 58.2 670.7 670.7 0 0 0-64.4 162.5l-.9 4.9zm289.6 0c-13.8 0-25.5-.4-26-1-.5-.4-.9-56.8-.9-125.3V101h52v250.7zm71.8 0h-25.3V182.2H779v169.4zm76 0c-19.1 0-25.6-.4-26-1.7-.4-1-.8-39-1-84.7l-.3-83h44.3l.8 7c.5 3.9.9 9 .9 11.4 0 2.3.2 4.3.6 4.3.3 0 3.4-3 6.8-6.6a79 79 0 0 1 12.4-10.6c3.4-2.1 9.8-5.1 14.2-6.6a93 93 0 0 1 17.3-3.5c6.4-.7 12.4-.3 19 1.1a73.5 73.5 0 0 1 16.5 5.8A57.5 57.5 0 0 1 957 208c1.9 3.8 4.4 10.5 5.7 14.9 2 7 2.4 16 2.8 68.3l.5 60.4h-50.7l-.4-53.7-.4-53.7-3.6-7.5a25.2 25.2 0 0 0-8.8-11 31 31 0 0 0-44.2 13c-2.7 5.5-2.8 7.7-2.8 59.3v53.6zM755 156.8a29.7 29.7 0 0 1-18.3-6.8 31.8 31.8 0 0 1-5.8-8.4c-1.4-3-2.5-8-2.5-11 0-3.2.8-7.7 1.8-10 1-2.4 3.7-6.3 6-8.6 2.4-2.3 7-4.9 10.3-5.8a45 45 0 0 1 13.1-1c4.8.4 9 1.7 12.5 4 3.1 2.1 6.4 6 8.1 9.4a26.9 26.9 0 0 1 .2 23.5 32.8 32.8 0 0 1-6.7 8.6 29 29 0 0 1-18.7 6.1zm-134.3-57a63 63 0 0 1-.1-16c.5-9.3.9-21.8 1-27.8l.1-10.8-27-9.3-27-9.3 7.4-1.5 65.3-13.4C672.4 5 698.5-.1 698.7 0a6582 6582 0 0 1-78 99.8z"/><path fill="#234783" d="M62.5 355.4a89.2 89.2 0 0 1-35.4-8.8 53 53 0 0 1-12.2-9.7c-3-3.3-7.5-9.8-10.1-14.5L0 313.8l15.9-15c8.8-8.3 16.2-15.1 16.6-15.2.3 0 2 3.3 3.8 7.4 1.8 4 5 8.8 7 10.5 2.2 1.8 6 3.9 8.5 4.6 2.5.7 6 .9 7.6.5a18 18 0 0 0 6.3-3.6c1.7-1.5 4.4-5.5 6-8.8 2.7-5.8 2.8-8 3.4-89.6l.7-83.5 26-16.7 26-16.7.4 101.6c.3 88.5 0 103-1.8 112.3a102 102 0 0 1-6.6 20 68.3 68.3 0 0 1-11 16A69.4 69.4 0 0 1 95.4 348a71.2 71.2 0 0 1-33 7.4zm136-1.2c-7.1 0-13.4-1-18.8-2.8-4.5-1.5-11-5-14.6-7.6a59.4 59.4 0 0 1-10.9-11.4 58.2 58.2 0 0 1-6.5-13.8 61 61 0 0 1-1.7-20.2 45.7 45.7 0 0 1 15-35.6c5-5 11-9 18.5-12.7a113 113 0 0 1 23.7-7.9c7-1.4 18.8-3 26.3-3.5l13.8-.9-.9-4.1a113 113 0 0 0-1.4-6.4 22 22 0 0 0-5.2-6.2 29.6 29.6 0 0 0-9.6-5.5 70 70 0 0 0-14.5-1.4A97 97 0 0 0 174 223c-4 1.9-7.5 3.2-7.7 3a468 468 0 0 1-4.5-15.6c-2.3-8.3-4-16-3.6-16.9.4-.9 3.6-3 7-4.5 3.6-1.6 12.2-4.4 19.2-6.2a120 120 0 0 1 31.3-4c13.8-.6 21.1-.2 28.2 1.3a93 93 0 0 1 16.8 5.5c4 1.9 10 5.8 13.4 8.7a66 66 0 0 1 10 11.7 87.8 87.8 0 0 1 7.1 15c2.9 8.3 3 11.1 4 64.7.5 30.8 1.3 58.2 1.9 61l1 5-23.8-.3-23.8-.4-1-5.3-1.8-8.5c-.8-3-.9-3-6.6 2.3a57.2 57.2 0 0 1-11.2 8c-3 1.6-8.9 3.7-13.1 4.8-4.2 1.1-12.5 2-18.4 2zm18-36a31 31 0 0 0 11.3-2.5c3-1.3 7.3-4.6 9.6-7.2 2.3-2.7 4.9-7.1 5.7-9.9a87 87 0 0 0 1.4-16.9v-11.9l-10.6 1c-5.8.4-13.6 1.8-17.3 3a42 42 0 0 0-11.5 6.2 27 27 0 0 0-6.8 8.4 25.8 25.8 0 0 0 .6 20.4c1.4 2.5 4.5 5.7 7 7a26 26 0 0 0 10.6 2.4zm356 34c-9.2.3-20.3 0-24.6-.7-4.4-.7-11-2.2-14.7-3.4-3.7-1.2-10.8-4.3-15.8-7-5.2-2.6-12.5-8-16.8-12.3a83.2 83.2 0 0 1-12.6-17 93.5 93.5 0 0 1-10.5-46.2 91.7 91.7 0 0 1 11.2-47.8 78 78 0 0 1 15-20.2 76.7 76.7 0 0 1 34.1-20c4-1.2 12.4-2.4 18.7-2.8 8-.6 14.3-.2 21.3 1.3a89.2 89.2 0 0 1 16.9 5.5 74.6 74.6 0 0 1 14 9.7 85 85 0 0 1 12 14.2 90.1 90.1 0 0 1 8.4 18 120.3 120.3 0 0 1 5.3 44.2l-1 11.9H527l1 4.3a32.7 32.7 0 0 0 10.9 18.2c2.7 2.3 8.3 5.5 12.3 7.1 6.4 2.6 9.8 3 26 3 15-.1 20.9-.7 29.9-3a49.5 49.5 0 0 1 11.8-2.4c.4.3 2 8.3 3.8 17.6 2.4 13.2 2.8 17.3 1.5 18.1a168.7 168.7 0 0 1-27 7.7c-4.4.8-15.5 1.7-24.6 2zm-15.2-108.6h30.2l-.8-6.6c-.4-3.6-2-9-3.4-11.8a33.3 33.3 0 0 0-6.8-8.7 28.8 28.8 0 0 0-17.9-6.3c-2 0-6.3.8-9.3 1.7-3.1 1-7.9 4-11 7.1a39.7 39.7 0 0 0-8.3 13 50.5 50.5 0 0 0-2.9 9.6c0 1.7 4.6 2 30.2 2zm124.7 108c-13.8 0-25.5-.4-26-1-.5-.4-.9-56.8-.9-125.3V101h52v250.7zm71.8 0h-25.3V182.2H779v169.4zm76 0c-19.1 0-25.6-.4-26-1.7-.4-1-.8-39-1-84.7l-.3-83h44.3l.8 7c.5 3.9.9 9 .9 11.4 0 2.3.2 4.3.6 4.3.3 0 3.4-3 6.8-6.6a79 79 0 0 1 12.4-10.6c3.4-2.1 9.8-5.1 14.2-6.6a93 93 0 0 1 17.3-3.5c6.4-.7 12.4-.3 19 1.1a73.5 73.5 0 0 1 16.5 5.8A57.5 57.5 0 0 1 957 208c1.9 3.8 4.4 10.5 5.7 14.9 2 7 2.4 16 2.8 68.3l.5 60.4h-50.7l-.4-53.7-.4-53.7-3.6-7.5a25.2 25.2 0 0 0-8.8-11 31 31 0 0 0-44.2 13c-2.7 5.5-2.8 7.7-2.8 59.3v53.6zM755 156.8a29.7 29.7 0 0 1-18.3-6.8 31.8 31.8 0 0 1-5.8-8.4c-1.4-3-2.5-8-2.5-11 0-3.2.8-7.7 1.8-10 1-2.4 3.7-6.3 6-8.6 2.4-2.3 7-4.9 10.3-5.8a45 45 0 0 1 13.1-1c4.8.4 9 1.7 12.5 4 3.1 2.1 6.4 6 8.1 9.4a26.9 26.9 0 0 1 .2 23.5 32.8 32.8 0 0 1-6.7 8.6 29 29 0 0 1-18.7 6.1z"/></svg>