<svg xmlns="http://www.w3.org/2000/svg" width="387.7" height="158.4" version="1" viewBox="0 0 387.7 158.4"><path fill="#005581" d="M101.7 75.8c-.6-2.7-2.4-5-5.4-7-3-1.9-7.5-2.8-13.5-2.8-5 0-9 .8-12.1 2.5a13.5 13.5 0 0 0-6.2 5.8 23 23 0 0 0-1.5 9.4v3.1h15.8v-5.1c0-3.1.1-5 .5-5.8.2-.6 1-1.4 2.7-1.4 1.3 0 2.3.6 2.8 1.6s.8 2.8.8 5.7c0 2.4-.3 3.9-.7 4.7-.3.6-1.8 1.6-9.8 4.5A31 31 0 0 0 65 96c-1.4 1.4-2 4-2 8v4.4c0 5.3 1.2 8.7 3.7 10.2 2.5 1.6 5.3 2.4 8.4 2.4a12 12 0 0 0 6-1.4c1.6-.9 3-2.3 4-4.2l1 .3v4.3h16.5V93.4c0-8.9-.3-14.8-1-17.6zm-16.1 30.1c0 3.8-.4 4.8-.6 5.3-.4.8-1.3 1.2-2.7 1.2-1.8 0-2.5-.8-2.9-1.5-.4-.9-.6-2.7-.6-5.6 0-2.6.2-4.5.7-5.8.5-1.5 2.2-3.1 5.2-5.1l.9-.6v12.1zm63-33.5a8.3 8.3 0 0 0-3.6-4.5 13.4 13.4 0 0 0-13-.6 16 16 0 0 0-5 4.2l-1.1 1.4v-1.7l.3-4.2H109v60.7h17v-13.4l1 1.2a16 16 0 0 0 5 4.1 12 12 0 0 0 5.9 1.4c2.7 0 5-.6 6.8-1.8a8.3 8.3 0 0 0 3.7-4.7c.6-2 1-5.5 1-10.3V81.4c0-4.2-.3-7.3-.8-9zm-16.2 33c0 3-.2 4.8-.5 5.6-.2.6-.9 1.4-2.6 1.4-1.8 0-2.5-.8-2.8-1.5-.4-.9-.5-3-.5-6.3V82.2c0-3.2.1-5.2.5-6.1.3-.7 1-1.6 2.7-1.6 1.8 0 2.5.8 2.7 1.4.3.8.5 2.8.5 6.3v23.2zM155 55h17.6v65H155zm63.4 39v-6.7c0-5.2-.6-9.2-2-12-1.2-2.8-3.4-5-6.6-6.8a26 26 0 0 0-12.2-2.5c-4 0-7.7.7-10.8 2.1-3 1.4-5.3 3.4-6.6 6-1.3 2.7-2 6.4-2 11V101c0 4 .3 7 .9 9a14.1 14.1 0 0 0 9.8 9.6c2.9 1 6.2 1.5 10 1.5 3.7 0 7-.5 9.5-1.5s4.6-2.5 6.2-4.4a15 15 0 0 0 3.2-5.6c.4-1.8.6-4.3.6-7.6v-3.5h-16v6.6a17 17 0 0 1-.7 5.7c-.4.8-1.3 1.7-3.2 1.7-1.7 0-2.4-.7-2.7-1.3a13 13 0 0 1-.6-5V94h23.2zm-23.2-12.3c0-4.2.2-5.3.4-5.8.3-.6 1-1.4 2.8-1.4 1.3 0 2.1.6 2.5 1.6.4.9.5 2.7.5 5.6V86h-6.2v-4.4zM57 55v65H41V76.2L34.3 120H23l-6.8-43v43H0V55h24l2 14 2.6 16.5L33 55h24z"/><path d="M228.1 109.3a15 15 0 0 0 12.4 7.6c5.4 0 10.6-3.4 10.6-9.9 0-13.6-25.8-5.6-25.8-24 0-9.6 6.5-16.6 18.1-16.6 5.4 0 8.8 2 12.2 3a34.6 34.6 0 0 0-2.7 7.8h-1.3a10 10 0 0 0-9.6-6.7c-4.3 0-9.3 2.7-9.3 9.1 0 14.3 25.8 5.5 25.8 24 0 8.3-7.5 17.3-19.7 17.3a27 27 0 0 1-14-3.6c.8-1.9 2-5.8 2-8h1.3zm60.6-42.9c12.7 0 26.6 7.3 26.6 27.3 0 19.9-13.9 27.2-26.6 27.2-12.7 0-26.6-7.3-26.6-27.2 0-20 14-27.3 26.6-27.3zm0 51c13 0 17-11.5 17-23.7 0-12.3-4-23.8-17-23.8s-17 11.5-17 23.8c0 12.2 4 23.7 17 23.7zM345.3 46a12 12 0 0 0-6-1.6c-6.4 0-9 5.3-9 11 0 2.6.7 8.3 1.4 12.8l11.2-.2-.2 2.2.2 2.2-11.2-.3c0 15.9 0 31.6.4 47.7a22.8 22.8 0 0 0-9.5 0c1-16 1-31.7 1-47.7-2.7 0-5.3.2-8 .3a13.3 13.3 0 0 0 0-4.4l8 .2c0-8.6 3.7-20.7 9.5-26.5 2.6-2.6 7-5 11.1-5 .7 0 1.6 0 2.2.3 0 3-.4 5.9-.4 8.7l-.7.3zm18.9 6.8h.5l-.9 16.2c1.6 0 6.6 0 11.6-.3v4.6c-3.8-.2-9-.2-11.6-.2-.2 1-.7 18.3-.7 27.8 0 8.2.2 16.5 8.8 16.5 1.2 0 3.5-.3 5-.8v2.7c-2.6.8-5.7 1.6-8.5 1.6-9 0-13.4-5.1-13.4-13.7 0-8 .6-17.8.7-34.1-2.2 0-4.6 0-7.4.2l.2-2.5-.2-2.2 7.2.3-.4-12.2 9-3.9z"/><linearGradient id="a" x1="361.9" x2="370.3" y1="-16.4" y2="22.6" gradientTransform="scale(-1 1) rotate(14.3 4.7 -2439.7)" gradientUnits="userSpaceOnUse"><stop offset="0" stop-color="#fff"/><stop offset="1" stop-color="#005581"/></linearGradient><path fill="url(#a)" d="M317 2.5c-1.7-.3-4.6.4-7.6 1.3-5 1.6-14.3 11.2-22 18-7 6.2-17.6 19.3-42.5 21.8-14.6.6-20.1-4.2-22.5-6.2a84.5 84.5 0 0 0-21-10.2 46 46 0 0 0-13.7-2.3c-2 .7-7.1.8-7.1.8s-4.7-1.2-4.1-3.8c.5-2.6 3.5-.3 5.5-.3s9.8.1 17.4 2.5c7.4 2.3 20.5 9.1 24 8.5 3.4-.7 11.2-11 11.5-14 .3-3.2 2.1-.5 3 .8.7 1.2 1.1 4.3 2.7 2.5 1.6-1.7 9.5-11 10.5-12.6 1.1-1.7 2.7 0 3.4.7.6.7 4.1 7.5 6.3 7.6 2.1 0 10-8.6 12.9-8.4 0 0-4.4 7.4-3.9 8.7.6 1.4 5.7 1.3 11.3-2.7C285.7 12 294.6 4.6 295.6 4 301 .7 305-.2 306.3 0c-1.8.6-4.3 2-4.3 2S312.2-.4 315.4.3c3.2.6 4.5 2.4 4.8 2.8.2.4-3.2-.5-3.2-.5z"/><radialGradient id="b" cx="327.2" cy="-35.3" r="67.8" gradientTransform="scale(-1 1) rotate(14.3 4.7 -2439.7)" gradientUnits="userSpaceOnUse"><stop offset="0" stop-color="#fff"/><stop offset="1" stop-color="#005581"/></radialGradient><path fill="url(#b)" d="M299.5 8.8c-4.4 1.9-6.3-2.6-7.4-4.5-1-1.8-2-1-2.8-.2-1.1 1-11.7 12.9-14.7 16-3 3.1-6.3-4.5-7.8-6.9-2-3.2-5.8 9-8.6 9.3-2 .3-8.7-7.8-10-8.8-1.2-1-2.9-3.6-3.8 1.2a47.2 47.2 0 0 1-7 16.3c-1.8.9-9.5-3.4-11-4-1.3-.7-.4 10-2.2 10.2l-1.9-.2s3.3 8.8 24.4 6.2c15.2-1.9 24.2-6.2 38.1-19.2 12.7-11.9 21-18.5 21-18.5l-6.3 3z"/><g opacity=".8"><linearGradient id="c" x1="159.2" x2="163.1" y1="183.2" y2="211.2" gradientTransform="matrix(-.996 .0231 -2.2885 -.951 875.8 246.8)" gradientUnits="userSpaceOnUse"><stop offset="0" stop-color="#fff"/><stop offset="1" stop-color="#005581"/></linearGradient><path fill="url(#c)" d="M312 55.8c-1 .2-3.7.2-6.6.3-5 0-20-1.8-31.5-3-10.5-1-30.4-3.6-50.4-2-11 1.2-9.5 3-10.3 3.5-.6.2-6.6 1.5-14 1.6-5.8 0-11.7-.2-13.1-.4-2.8-.4-8.6-.8-8.6-.8s-4.1 0-1.1.9c3 .9 4.2.4 6.4.5 2.2.2 10.7.7 17 .6 6.1-.2 14.4-1.3 18.8-.8 4.4.4 17.8 1.9 20.7 2.7 3 .9 2 0 1.4-.5-.6-.4-3-1.3-.3-1l18.7 2.6c2.2.4 2-.2 1.7-.5-.2-.3-3.7-2.5-2.2-2.7 1.5-.2 14.8 1.5 16.6 1.1 0 0-9.7-1.6-10.4-2-.8-.5 3-1 10.4-.3 6.2.4 19 1.6 20.2 1.7l8 .2-3-.2s10.8-.3 12.5-.8c1.7-.4 1-1 .9-1.2-.2-.1-1.8.5-1.8.5z" opacity=".2"/><radialGradient id="d" cx="143.3" cy="324.5" r="77.7" gradientTransform="matrix(-.9589 .0231 -.715 -.3086 677.8 171.5)" gradientUnits="userSpaceOnUse"><stop offset="0" stop-color="#fff"/><stop offset="1" stop-color="#005581"/></radialGradient><path fill="url(#d)" d="M294 55.6c-4.8 0-4 .8-3 1.5.9.6-.9.5-2 .4l-22.8-2.7c-4.9-.6-.5 1.8.5 2.6 1.4 1.1-12-2-14.3-1.7-1.6 0 .8 3 .8 3.4 0 .4 1 1.2-3.9 0-4.7-1.2-17.4-3.8-19.4-3.9-2 0-3.7 1.8-4 2.1-.5.4-8.6-2.4-10.8-2.6h-1.8s-1-2.6 11.1-3.5a233 233 0 0 1 45.6 1.5 4629 4629 0 0 0 31.2 3.2l-7.2-.3z" opacity=".2"/></g><g opacity=".8"><linearGradient id="e" x1="490.3" x2="494.3" y1="182.6" y2="210.8" gradientTransform="matrix(-1.0025 .0016 1.5264 -1 446.8 258.3)" gradientUnits="userSpaceOnUse"><stop offset="0" stop-color="#fff"/><stop offset="1" stop-color="#005581"/></linearGradient><path fill="url(#e)" d="M325.3 56.2c-1.7.2-4.5.2-7.2.1-4.8 0-12-2.2-18.1-3.6-5.8-1.3-14.7-4.3-39-3.1-14.4 1-19.7 2.8-22 3.2-1.5.2-11.6 1.3-18.8 1.3a75 75 0 0 1-10.8-.7c-1.1-.4-4.9-1-4.9-1s-3.8 0-4.2.9c-.5 1 2.4.5 4 .7 1.4.1 7 1 13.5 1 6.1-.1 18-1 20.2-.5 2.3.6 9.2 2.3 9 3.2-.4 1 2 0 3-.4 1-.5 2.1-1.4 3.3-1 1.2.4 7.1 2.6 7.8 3 .7.3 2.7-.3 3.5-.5.8-.3 5.8-2.6 7.9-2.8 2.1-.1 8.2 1.8 11 1.5 0 0-2.7-1.9-1.9-2.3.8-.4 6-.8 10.6 0 4 .6 11.4 2 12.2 2.2.8 0 6 .4 6.7.3l-2-.3s10.9 0 14.2-.4c3.3-.5 5-1.1 5.3-1.2.3-.2-3.3.4-3.3.4z" opacity=".2"/><radialGradient id="f" cx="474.1" cy="323.6" r="77.7" gradientTransform="matrix(-.9652 .0016 .4769 -.3245 556 179.2)" gradientUnits="userSpaceOnUse"><stop offset="0" stop-color="#fff"/><stop offset="1" stop-color="#005581"/></radialGradient><path fill="url(#f)" d="M309.3 55.6c-4-.2-6.6.8-8 1.4-1.5.6-2.9.5-3.5.4l-11-3.2c-2.4-.7-7.2 1.8-9.3 2.7-2.7 1-3.8-2.3-6.6-2.1-1.9 0-10.2 3-11.7 3.4-1.5.4-3.7 1.2-3.6-.1.1-1.3-2.1-4.2-3.6-4.3-1.5-.1-10.1 1.7-11.7 2-1.5.3 1.2-2.6-.1-2.8l-1.4-.1s8.2-2.6 23-3.3c14.7-.7 24.7-.1 36 2.6l17 4-5.5-.6z" opacity=".2"/></g><path d="M384 69.1h-2.3v.5h1v3h.4v-3h1v-.5zm3.7 0h-.7l-.9 2.5-.8-2.5h-.7v3.5h.4v-3l1 3h.3l1-3v3h.4v-3.5z"/><path fill="#005581" d="M12.7 141.1h2.7V155H14v-13.1l-.5 1.9-2.8 11.2h-2l-2.9-11.4-.4-1.7v13H4v-13.8h2.7L9.3 152c.2.6.2 1.2.3 2l.4-2 2.7-10.8zM27.5 155h-.3c-1.3 0-1.7 0-1.9-1.4-.4.8-1.3 1.6-2.3 1.6-2 0-2.6-1.1-2.6-3 0-.4 0-1.9 1.4-2.5.9-.4 3-1.1 3.1-1.3.3-.2.3-.6.3-1.2 0-1.1-.4-1.6-1.6-1.6-1.3 0-1.5.6-1.5 1.9h-1.3c-.1-2.2 1-3 3-3 3 0 2.8 2.5 2.8 2.7v5.9c0 .2 0 .6.3.7h.6v1.1zm-2.4-5.6l-2.3 1.1c-.7.3-1 1-1 1.8 0 1 .3 1.7 1.5 1.7.6 0 1.8-.4 1.8-2.1v-2.5zm8.9-4.7h1.7v1.2H34v7c0 .4-.1.8.7.8h1v1.2H34c-.8 0-1.5-.1-1.5-1.6v-7.4h-1.4v-1.2h1.4v-2.8H34v2.8zm7.8 10.3h-1.4v-14h1.4v4.7c.7-.9 1.5-1.4 2.6-1.4 1.5 0 2.5.8 2.5 2.6v8h-1.4v-7.6c0-1-.4-1.8-1.6-1.8a2 2 0 0 0-1.4.6c-.6.5-.7 1.1-.7 1.9v6.8zm16.6-3.5c.1 2-1 3.7-3 3.7S52 154 52 149.8c0-2.2.6-5.4 3.3-5.4 3.3 0 3.1 3.1 3.2 5.5h-5c0 1.4-.2 4 1.9 4 1.4 0 1.8-1.2 1.7-2.4h1.3zm-1.4-2.8c0-1.2 0-3-1.7-3s-1.7 1.8-1.8 3H57zm8.2 6.3h-1.4v-10.3h1.4v1.3c.5-.9 1.4-1.6 2.4-1.6a3 3 0 0 1 2.5 1.6c.7-1 1.4-1.6 2.7-1.6a3 3 0 0 1 2 .7c.6.6.5 1.8.5 2.4v7.4H74v-7.5c0-1.1-.3-1.8-1.6-1.8-.5 0-1 .3-1.4.6-.5.5-.6 1.1-.6 1.9v6.8h-1.5v-7.5c0-1-.3-1.8-1.5-1.8a2 2 0 0 0-1.4.6c-.6.5-.7 1.1-.7 1.9v6.8zm22.2 0H87c-1.2 0-1.7 0-1.8-1.4-.4.8-1.3 1.6-2.3 1.6-2 0-2.6-1.1-2.6-3 0-.4 0-1.9 1.4-2.5.9-.4 3-1.1 3.1-1.3.3-.2.3-.6.3-1.2 0-1.1-.5-1.6-1.6-1.6-1.4 0-1.6.6-1.5 1.9h-1.3c-.1-2.2 1-3 3-3 3 0 2.8 2.5 2.8 2.7v5.9c0 .2 0 .6.2.7h.7v1.1zm-2.4-5.6l-2.3 1.1c-.7.3-1 1-1 1.8 0 1 .3 1.7 1.5 1.7.6 0 1.8-.4 1.8-2.1v-2.5zm8.9-4.7h1.7v1.2h-1.7v7c0 .4-.2.8.7.8h1v1.2h-1.7c-.8 0-1.5-.1-1.5-1.6v-7.4H91v-1.2h1.4v-2.8H94v2.8zm6.3-1.7v-2h1.5v1.9h-1.5zm0 12v-10.3h1.5v10.2h-1.5zm8.1-4.7c0 1.3 0 3.7 2 3.7 1.5 0 1.7-1.4 1.8-2.6h1.3c0 2-.8 3.8-3 3.8-3.2 0-3.6-2.6-3.6-5.3 0-2.5.4-5.5 3.5-5.5 2 0 3 1.6 3 3.5H112c0-1.1-.3-2.3-1.7-2.3-2.1 0-2 3.2-2 4.7zm14.4-2.9c0-1.2-.4-1.8-1.6-1.8-1 0-1.6.5-1.6 1.6 0 1.3 1 1.5 2 2 1.5.6 3 1 3 2.9 0 2-1.4 3.1-3.5 3.1-.9 0-2-.3-2.5-1-.6-.9-.6-1.6-.6-2.3h1.4c0 1.3.4 2 1.7 2 1.2 0 2-.4 2-1.7 0-1.4-1.5-1.5-2.5-2-1.6-.6-2.5-1.1-2.5-2.9 0-1.8 1.2-2.9 3-2.9 2 0 3.2 1 3.1 3h-1.4zm16.3 3.4a2.8 2.8 0 0 1 0-5.6 2.8 2.8 0 0 1 0 5.6zm23.8-9.7h2.7V155h-1.6v-13.1l-.4 1.9-3 11.2h-1.7l-3-11.4-.3-1.7v13h-1.6v-13.8h2.7l2.8 10.8.3 2c0-.7.2-1.3.3-2l2.8-10.8zm11.6 14.1c-2.2 0-3.6-1.3-3.6-5.7 0-3.1 1.1-5 3.6-5 2.6 0 3.7 1.9 3.7 5 0 4.4-1.4 5.7-3.7 5.7zm0-9.6c-1.4 0-2.1 1.2-2.1 4.3 0 2.4.4 4 2.1 4 1.8 0 2.2-1.6 2.2-4 0-3-.6-4.3-2.2-4.3zm14-4.5h1.4V155h-1.4v-1.3c-.6 1.2-1.3 1.6-2.5 1.6-3.2 0-3-4.5-3-5.4-.1-3 .9-5.4 3-5.4 1.1 0 1.8.5 2.4 1.3v-4.6zm0 8.5c0-1.4 0-4-2-4-1.2 0-2 1-2 4.2 0 2.2 0 4.2 2 4.2 1.6 0 2-2 2-3v-1.4zm13 1.9c.1 2-1 3.7-3 3.7s-3.4-1.3-3.4-5.4c0-2.2.6-5.4 3.3-5.4 3.3 0 3.1 3.1 3.2 5.5h-5c0 1.4-.2 4 1.8 4 1.5 0 1.8-1.2 1.7-2.4h1.4zm-1.4-2.8c0-1.2 0-3-1.7-3s-1.7 1.8-1.8 3h3.5zm6.7 6.3v-14h1.4v14h-1.4zm7-12v-2h1.5v1.9h-1.5zm0 12v-10.3h1.5v10.2h-1.5zm8.5-9.2c.8-.9 1.5-1.4 2.6-1.4 1.6 0 2.6.8 2.6 2.6v8h-1.5v-7.6c0-1-.3-1.8-1.5-1.8-.6 0-1 .2-1.5.6-.6.5-.6 1.1-.6 1.9v6.8h-1.5v-10.2h1.4v1.1zm15.8-1.1h1.5v9c0 1.3 0 2.2-.8 3.3-.6 1-1.7 1.4-2.8 1.4-1.6 0-2.8-.7-3-2.5h1.4c.1 1 .7 1.3 1.6 1.3 2.3 0 2.1-2.3 2.1-3.5-.6 1-1.3 1.5-2.2 1.5-2 0-3.3-1.3-3.3-5.5 0-2.1.5-5.3 3.2-5.3 1 0 1.8.5 2.3 1.4v-1.1zm-4 5.1c0 2.5.4 4.2 1.9 4.2 2.2 0 2.1-2.8 2.1-4.4 0-2-.4-4-2-4-2 0-2 2.8-2 4.2zm20.5 1a2.8 2.8 0 1 1 0-5.7 2.8 2.8 0 0 1 0 5.7zm21-6.1c0-1.4-.7-2.5-2.2-2.5-2.3 0-2.5 1.4-2.5 2.5 0 1 .4 1.5 1.3 1.9l2.2.8c2.6 1 3.1 1.9 3.1 3.7 0 2.6-1.6 4.2-4.3 4.2-1.4 0-3-.4-3.8-2.2-.3-.7-.3-1.8-.3-2.6h1.6c-.1 2 .3 3.4 2.6 3.4 1.5 0 2.6-.8 2.6-2.4 0-2.1-.8-2.1-2.2-2.7l-2.7-1c-1.4-.7-1.7-1.8-1.7-3.2 0-2.3 1.6-3.8 3.9-3.8 2.5 0 4 1.3 3.9 4h-1.5zm7.1-1.7v-2h1.5v1.9h-1.5zm0 12v-10.3h1.5v10.2h-1.5zm8.6 0h-1.4v-10.3h1.4v1.3c.5-.9 1.4-1.6 2.4-1.6a3 3 0 0 1 2.5 1.6c.7-1 1.4-1.6 2.7-1.6.7 0 1.4.2 1.9.7.7.6.6 1.8.6 2.4v7.4H300v-7.5c0-1.1-.4-1.8-1.6-1.8-.5 0-1 .3-1.4.6-.6.5-.6 1.1-.6 1.9v6.8h-1.5v-7.5c0-1-.3-1.8-1.5-1.8-.6 0-1 .2-1.5.6-.5.5-.6 1.1-.6 1.9v6.8zm20.8-1.4c-.5 1-1.5 1.6-2.4 1.6-1.6 0-2.5-.8-2.5-2.6v-8h1.4v8c0 1 .3 1.4 1.4 1.4a2 2 0 0 0 1.7-1c.3-.4.4-1.1.4-1.7v-6.6h1.5v10.2H312v-1.3zm7.2 1.4v-14h1.4v14h-1.4zm13.4 0h-.3c-1.3 0-1.7 0-1.9-1.4-.4.8-1.3 1.6-2.3 1.6-2 0-2.6-1.1-2.6-3 0-.4 0-1.9 1.5-2.5.8-.4 2.8-1.1 3-1.3.3-.2.3-.6.3-1.2 0-1.1-.4-1.6-1.6-1.6-1.3 0-1.5.6-1.5 1.9h-1.3c0-2.2 1-3 3-3 3 0 2.8 2.5 2.8 2.7v5.9c0 .2 0 .6.3.7h.6v1.1zm-2.4-5.6l-2.3 1.1c-.7.3-1 1-1 1.8 0 1 .4 1.7 1.5 1.7.6 0 1.8-.4 1.8-2.1v-2.5zm8.8-4.7h1.8v1.2h-1.7v7c0 .4-.1.8.7.8h1v1.2h-1.6c-1 0-1.6-.1-1.6-1.6v-7.4h-1.4v-1.2h1.4v-2.8h1.5v2.8zm6.5-1.7v-2h1.4v1.9h-1.4zm0 12v-10.3h1.4v10.2h-1.4zm10.3.2c-2.2 0-3.6-1.3-3.6-5.7 0-3.1 1-5 3.6-5 2.5 0 3.7 1.9 3.7 5 0 4.4-1.4 5.7-3.7 5.7zm0-9.6c-1.5 0-2.1 1.2-2.1 4.3 0 2.4.4 4 2.1 4 1.7 0 2.2-1.6 2.2-4 0-3-.7-4.3-2.2-4.3zm10.4.2c.7-.9 1.4-1.4 2.6-1.4 1.5 0 2.5.8 2.5 2.6v8h-1.5v-7.6c0-1-.3-1.8-1.5-1.8a2 2 0 0 0-1.4.6c-.6.5-.7 1.1-.7 1.9v6.8h-1.5v-10.2h1.5v1.1z"/><linearGradient id="g" x1="82.8" x2="82.8" y1="62.4" y2="119.9" gradientUnits="userSpaceOnUse"><stop offset="0" stop-color="#fff"/><stop offset="1" stop-color="#005581"/></linearGradient><path fill="url(#g)" d="M63 104v4.5c0 5.2 1.2 8.7 3.7 10.2S72 121 75 121a12 12 0 0 0 6-1.4c1.6-.9 3-2.3 4-4.1l1 .2v4.3h16.5V91.4a2524 2524 0 0 0-33 1.8c-2.3 1-3.9 2-4.7 2.8-1.3 1.4-2 4-2 8zm16.5-4.5c.5-1.4 2.2-3.1 5.2-5.1l.9-.6v12.1c0 3.8-.4 4.8-.6 5.3-.4.8-1.4 1.2-2.7 1.2-1.8 0-2.6-.8-2.9-1.5-.4-.9-.6-2.7-.6-5.6 0-2.5.2-4.4.7-5.8z"/><linearGradient id="h" x1="129.2" x2="129.2" y1="62.4" y2="119.9" gradientUnits="userSpaceOnUse"><stop offset="0" stop-color="#fff"/><stop offset="1" stop-color="#005581"/></linearGradient><path fill="url(#h)" d="M126 127.7v-13.3l1 1.1a16 16 0 0 0 5 4.1 12 12 0 0 0 5.9 1.4c2.6 0 5-.6 6.8-1.8a8 8 0 0 0 3.7-4.6c.6-2 1-5.6 1-10.4V89.7l-17 .5v15.2c0 3-.2 4.8-.5 5.6-.2.7-.9 1.4-2.6 1.4-1.8 0-2.5-.8-2.8-1.5-.4-.9-.5-3-.5-6.3V90.5l-17 .7v36.5h17z"/><linearGradient id="i" x1="163.8" x2="163.8" y1="62.4" y2="119.9" gradientUnits="userSpaceOnUse"><stop offset="0" stop-color="#fff"/><stop offset="1" stop-color="#005581"/></linearGradient><path fill="url(#i)" d="M172.6 120V89.2c-6 0-11.8.2-17.6.4V120h17.6z"/><linearGradient id="j" x1="198.3" x2="198.3" y1="62.4" y2="119.9" gradientUnits="userSpaceOnUse"><stop offset="0" stop-color="#fff"/><stop offset="1" stop-color="#005581"/></linearGradient><path fill="url(#j)" d="M179 110c.7 2 1.8 3.9 3.3 5.6 1.6 1.6 3.8 3 6.6 4 2.9 1 6.2 1.4 9.9 1.4 3.8 0 7-.5 9.6-1.5 2.5-1 4.6-2.4 6.2-4.4 1.6-2 2.7-3.9 3.1-5.6.5-1.7.7-4.3.7-7.6v-3.5h-16v6.7c0 2.8-.3 4.6-.8 5.6-.3.8-1.2 1.7-3.1 1.7-1.7 0-2.4-.7-2.7-1.3a13 13 0 0 1-.6-5V94h23.2v-5c-13.6 0-27.1 0-40.2.2V101c0 4 .3 7 .9 9z"/><linearGradient id="k" x1="48.9" x2="48.9" y1="62.4" y2="119.9" gradientUnits="userSpaceOnUse"><stop offset="0" stop-color="#fff"/><stop offset="1" stop-color="#005581"/></linearGradient><path fill="url(#k)" d="M57 120V94l-16.2 1v25H57z"/><linearGradient id="l" x1="8.1" x2="8.1" y1="62.4" y2="119.9" gradientUnits="userSpaceOnUse"><stop offset="0" stop-color="#fff"/><stop offset="1" stop-color="#005581"/></linearGradient><path fill="url(#l)" d="M16.2 120V97L0 98.4V120h16.2z"/><linearGradient id="m" x1="28.7" x2="28.7" y1="62.4" y2="119.9" gradientUnits="userSpaceOnUse"><stop offset="0" stop-color="#fff"/><stop offset="1" stop-color="#005581"/></linearGradient><path fill="url(#m)" d="M34.4 120L38 95.4l-18.7 1.4 3.7 23.4h11.4z"/><path fill="none" d="M288.7 117.4c12.9 0 17-11.4 17-23.7a1321 1321 0 0 0-34-2.2v2.2c0 12.3 4 23.7 17 23.7z"/><linearGradient id="n" x1="247.6" x2="247.6" y1="23.6" y2="100.8" gradientTransform="translate(-6 16)" gradientUnits="userSpaceOnUse"><stop offset="0" stop-color="#fff"/><stop offset="1"/></linearGradient><path fill="url(#n)" d="M246.8 90.4c-6.7-.2-13.7-1.2-20.2-1.3 5.2 10.4 24.4 6.5 24.4 18 0 6.4-5.1 9.8-10.6 9.8a15 15 0 0 1-12.3-7.5h-1.4c0 2.1-1.2 6-2 8a27 27 0 0 0 14 3.6c12.2 0 19.8-9 19.8-17.3 0-8.7-5.7-11.4-11.7-13.3z"/><linearGradient id="o" x1="294.7" x2="294.7" y1="25.6" y2="100.9" gradientTransform="translate(-6 16)" gradientUnits="userSpaceOnUse"><stop offset="0" stop-color="#fff"/><stop offset="1"/></linearGradient><path fill="url(#o)" d="M305.6 93.7c0 12.3-4 23.7-17 23.7-12.9 0-16.9-11.4-16.9-23.7v-2.2l-9.5-.5-.1 2.7c0 20 13.9 27.3 26.6 27.3 12.5 0 26.2-7.2 26.5-26.5l-9.6-.8z"/><linearGradient id="p" x1="333.3" x2="333.3" y1="25.6" y2="100.9" gradientTransform="translate(-6 16)" gradientUnits="userSpaceOnUse"><stop offset="0" stop-color="#fff"/><stop offset="1"/></linearGradient><path fill="url(#p)" d="M331.7 96l-8.3-.8a535 535 0 0 1-.9 24.7 18.4 18.4 0 0 1 9.5 0l-.3-24z"/><linearGradient id="q" x1="371.9" x2="371.9" y1="25.6" y2="100.9" gradientTransform="translate(-6 16)" gradientUnits="userSpaceOnUse"><stop offset="0" stop-color="#fff"/><stop offset="1"/></linearGradient><path fill="url(#q)" d="M371.9 117.4c-8.7 0-8.9-8.3-8.9-16.5v-1.3l-7.9-1-.2 8.7c0 8.5 4.4 13.7 13.5 13.7 2.7 0 5.9-.8 8.4-1.7v-2.6c-1.4.4-3.7.7-5 .7z"/></svg>