<svg xmlns="http://www.w3.org/2000/svg" width="500" height="141.6"><path fill="#e62327" d="M261.2 141.6a17 17 0 0 1-4.7-.3c-.1-.2-.5-.4-.8-.4-.3 0-1.7-.5-3-1.1a13.6 13.6 0 0 1-6.4-6.5c-.6-1.2-1-3-1.3-4.7a24 24 0 0 1 .6-9 16.1 16.1 0 0 1 7.6-9.2c.9-.4 2.4-1 3.4-1.2a23.1 23.1 0 0 1 9.1 0c2.2.5 2.2.5 2.2 2.5 0 1.8-.1 2-.6 1.9l-2.8-.6a18.5 18.5 0 0 0-7.6.3 11.9 11.9 0 0 0-7.1 7.1 26 26 0 0 0-.6 4.2c-.1 2.4 0 3.4.6 5.4a10.4 10.4 0 0 0 5.4 6.5c1 .3 2.6.8 3.8 1 1.4.2 3 .2 4.6 0l3.5-.6c1.1-.4 1.1-.4 1.1 1.6s0 2-1 2.2c-.6.2-1.1.4-1.2.6-.1.2-2.3.3-4.8.3zm163.8 0a17 17 0 0 1-4.8-.3c-.1-.2-.5-.4-.8-.4a14.7 14.7 0 0 1-8.9-6.5 23.1 23.1 0 0 1-2-8.6 21.6 21.6 0 0 1 2-8.7 18.3 18.3 0 0 1 6.3-6.6l3.6-1.3a23.9 23.9 0 0 1 9.7.1c1.7.5 1.7.5 1.8 2.4 0 1.1 0 2-.2 2a43 43 0 0 1-2.5-.5c-1.2-.3-3-.5-4-.5a21 21 0 0 0-3.7.4c-1 .3-2.5 1-3.3 1.4a9 9 0 0 0-2.5 2.2 23 23 0 0 0-1.5 2.3 13 13 0 0 0-1 2.8 21.2 21.2 0 0 0 0 7.3l1 2.8a12.3 12.3 0 0 0 3.9 4.1c.5.3 1.8.8 2.7 1 1 .4 3 .6 4.5.6s3.6-.2 4.7-.5l2-.4v2c-.1 1.7-.2 1.8-1.1 2l-1.2.6c-.1.2-2.2.3-4.8.3zm62.7 0c-2.3 0-4.4-.1-4.6-.3l-2.2-.9c-2-.5-2-.5-2-2.6 0-1.8 0-2 .6-1.8l3.1 1c1.7.4 3.6.6 5.3.6 2 0 3.2-.2 4.3-.7.8-.4 1.9-1 2.3-1.5.5-.5.8-1.5 1-2.6.1-1.3 0-2-.5-2.8a5.2 5.2 0 0 0-1.8-1.7c-.7-.3-2.8-1-4.8-1.5s-4.2-1.2-5-1.6a10 10 0 0 1-2.6-2c-.8-1-1.3-1.8-1.6-3.3a7.9 7.9 0 0 1 0-3.8c.3-1 .8-2.5 1.3-3.2.5-.7 1.6-1.7 2.5-2.3 1-.6 2.6-1.2 4.3-1.6 2.1-.4 3-.4 5.2-.1 1.4.2 3.4.6 4.5 1 1.8.5 1.8.5 2 2.6 0 1.9 0 2-.8 1.7l-3.3-.9c-1.4-.3-3.4-.6-4.6-.6-1.1 0-2.7.3-3.6.6a5 5 0 0 0-2.3 1.7 5 5 0 0 0-.7 2.7c0 1 .2 2 .5 2.3l1.6 1.5c.6.3 1.9.8 2.8 1l4.5 1.2c1.5.5 3.3 1.3 4 2 .8.5 1.7 1.5 2.1 2.2.7 1 .8 1.8.8 4s-.2 3.2-.7 4.2c-.3.7-1.2 1.8-2 2.5-.7.7-2 1.5-3 1.8-.9.3-1.8.8-2 1-.1 0-2.2.2-4.6.2zm-411.1-.7H11.9V41.1l24.7 24.6 24.8 24.8A1192.6 1192.6 0 0 0 102 49.2c1-1.4 2.1-3.6 2.5-4.8.8-2.1.8-3 .8-7.5a18 18 0 0 0-.8-7.1 30 30 0 0 0-4.8-8 27.7 27.7 0 0 0-6.7-5c-1.1-.6-3-1.3-4.3-1.7A24.3 24.3 0 0 0 72.3 17a24 24 0 0 0-4.3 2.7 24.5 24.5 0 0 0-6 7.8c-.6 1.2-1.3 3.2-1.6 4.5a28.4 28.4 0 0 0 0 10.8c.2 1.1.8 2.9 1.3 4l2.4 4a30.5 30.5 0 0 0 7.5 6.5l4.2-4c3.8-3.8 4-4 3.1-4.3l-2-.8a12.8 12.8 0 0 1-5.3-5.6c-.8-2-1-2.6-1-5.4 0-2.9.1-3.5 1-5.2.5-1 1.5-2.4 2.2-3.2.7-.7 1.8-1.6 2.5-2l3.2-1.4a13 13 0 0 1 3.9-.4 13.1 13.1 0 0 1 7.6 3.3c1 1 2.2 2.5 2.8 3.5 1 1.7 1 2 1 5.4 0 3.2-.1 3.8-1 5.6a746 746 0 0 1-32.2 32.7L30.6 45 0 14.4V0h141.3v116.2l-4.7-4.6-24.3-24L92.7 68 80.5 80c-6.7 6.6-13.2 13-14.3 14.3a33.5 33.5 0 0 0-3.2 4.2 19.6 19.6 0 0 0-3 10.2c-.1 2 0 4.3.2 5.8l1.1 4c.4 1 1.3 2.6 2 3.8a29.2 29.2 0 0 0 8.4 8 28 28 0 0 0 9.7 2.7c1.8.1 3.4 0 5.4-.4a37 37 0 0 0 4.9-1.4l3.6-2a31 31 0 0 0 6.5-6.4c.7-1 1.7-2.8 2.2-4a36 36 0 0 0 1.2-4.4 30.5 30.5 0 0 0-.7-11.5l-1.2-3.3-1.4-2.2-.9-1.1-3.8 3.8c-3.9 3.8-3.9 3.8-3.1 5 .6 1 .7 1.8.7 5 0 3.4 0 4-1 5.5-.4 1-1.2 2.2-1.7 2.8a13.6 13.6 0 0 1-6.6 3.7c-2 .4-2.8.4-4.5.1a19 19 0 0 1-3.8-1.1 12.4 12.4 0 0 1-5.6-5.7c-.9-1.7-1-2.3-1-5.2 0-3 .2-3.4 1.2-5.6 1-2 2.2-3.3 10.5-11.5l9.8-9.5c.4-.2 1.3.5 3.3 2.3 1.5 1.4 12.5 12.2 24.3 24l21.6 21.3v9.7zm13-41.7c6-6 7-7.2 6.6-7.6L95 90.4c-.8-.7-.8-.7-6.8 5.3l-7 7-1 1.1 1.2 1.2 1.1 1.2zm81.2 41.7c-1.8 0-2.3-.1-2.2-.4a3447.2 3447.2 0 0 1 11.9-29.3c.7-2 .7-2 2.5-2 1.7 0 1.8.1 2.3 1l1.5 3.6a935 935 0 0 0 11 27l-2.4.1h-2.3l-1.8-4.6-1.8-4.6h-12.7l-1.9 4.6-1.8 4.6zm12.3-13.3h4.7l-2.3-6-2.3-6-2 4.8-2.3 6-.5 1.2zm28.8 13.3h-2.2v-31.7l6.7.2c5.5.1 7.1.3 8.7.8 1 .4 2.5 1.2 3.2 1.7a9 9 0 0 1 2 2.6 8 8 0 0 1 .8 4c0 2-.2 3-.6 4-.4.7-1.1 1.7-1.7 2.2-.5.6-1.7 1.3-2.6 1.8l-2.3 1c-.4 0-.6.3-.4.6a492.7 492.7 0 0 0 8.6 12.6c0 .1-1 .2-2.1.2h-2.2l-4.6-6.3-4.7-6.3h-4.4V141zm5-16.7a29 29 0 0 0 4.7-.3l3-1a5 5 0 0 0 1.5-1.9c.3-.6.6-1.7.6-2.4 0-.6-.2-1.7-.5-2.4-.4-.9-1-1.4-2.3-2-1.6-.8-2.3-.9-5.8-.9h-4v10.9zM284 141h-2.2v-31.6h4.4V123H302v-13.6h4.4V141H302v-14h-15.7v14zm39.9 0h-2.3v-31.6h4.5V141zm26.8 0h-2.2v-27.6h-10.2v-4h25.2v4H353V141zm35 0h-10.3v-31.6h19.8v4h-15.3v9.6h13.6l-.1 2-.1 1.9h-6.7l-6.7.2v10.2h16v3.8zm69.5 0H453v-27.6h-10.2v-4H468v2l-.2 1.9h-5.2l-5.1.2V141zM315.1 95.6a30.7 30.7 0 0 1-13.9-2.2l-2.3-.9-.1-4.5v-4.6l3.2 1a53.2 53.2 0 0 0 11 2.3 23.7 23.7 0 0 0 10.6-1.6 8 8 0 0 0 2.4-1.8 8 8 0 0 0 1.4-2 7 7 0 0 0-.2-5.1 5 5 0 0 0-1.3-1.8c-.4-.3-1.3-.9-2.1-1.2-.8-.4-3.8-1.2-6.6-1.9-2.7-.6-6.2-1.5-7.6-2a16.5 16.5 0 0 1-7.3-4.4c-.7-.8-1.6-2.2-2-3.3-.9-1.7-1-2.2-1-6.6 0-4.8 0-4.8 1.3-7.4a16 16 0 0 1 7.5-7.6 27.5 27.5 0 0 1 12.7-2.1 47.5 47.5 0 0 1 15.4 3 54.9 54.9 0 0 1-.2 9.1 27.4 27.4 0 0 0-15.2-2.9c-5.4 0-5.5 0-7.2 1-1 .5-2 1.4-2.5 2a6 6 0 0 0-1 3c0 1 0 2.5.3 3.2.2.6.9 1.6 1.5 2.1a14 14 0 0 0 2.8 1.7c.9.4 3.3 1 5.2 1.5l6.9 1.7a21.8 21.8 0 0 1 8.4 4.5c.6.6 1.6 2 2.1 3.2.5 1.1 1.2 3.1 1.4 4.4a19.6 19.6 0 0 1-.7 8.4 16.8 16.8 0 0 1-4.8 7.1 24.1 24.1 0 0 1-9.2 4 33 33 0 0 1-8.9.7zm156.7 0c-4 0-6-.2-7.7-.7a33 33 0 0 1-9.8-4.9 25.5 25.5 0 0 1-8.2-12.8A47.4 47.4 0 0 1 445 63c.2-2.1.8-5 1.2-6.5.4-1.5 1.4-3.9 2-5.3 1-2 2.1-3.4 4.4-5.7a17 17 0 0 1 6.7-4.8 26.6 26.6 0 0 1 14.2-2.7c2.7 0 5.5.4 6.7.7a28.3 28.3 0 0 1 9.7 5l3.6 3.6a31.4 31.4 0 0 1 5 10.3c.7 2.6.7 3.7.7 9.6 0 6.1 0 6.8-1 9.6a25.8 25.8 0 0 1-8.5 13.4 25.3 25.3 0 0 1-9.8 4.8 27 27 0 0 1-8 .7zm0-8.8a20 20 0 0 0 8.2-2 23 23 0 0 0 3.4-2.8 17.6 17.6 0 0 0 3.6-6.5 32.3 32.3 0 0 0 0-17.3 18.2 18.2 0 0 0-4-7.2 14.4 14.4 0 0 0-7.2-3.7c-1-.3-3.2-.3-5.1-.2-3 .1-3.7.3-5.9 1.4-1.7.8-3 1.7-4 2.8l-2.3 3.2-1.7 4.2c-.7 2.4-.8 3.3-.8 7.8 0 3.8.1 5.7.5 7.4a31 31 0 0 0 1.8 4.6 15.3 15.3 0 0 0 6.5 6.6 23.4 23.4 0 0 0 7 1.7zm-292 7.8h-5.5V38.7l7.4.2h7.4l2.6 7.2L197 61c1.5 4.2 3.5 10 4.4 13 1.3 4.3 1.6 5 1.8 4.2l1.5-4.8a437.6 437.6 0 0 1 6.6-18.7l3.1-8.7 2.6-7h7.3l7.4-.1v55.9h-10.6l.1-20.6.1-20.6-1.7 5.3a308.8 308.8 0 0 1-6.5 18.1 444.5 444.5 0 0 0-4.5 12.3l-2 5.3h-7.1l-1.2-3.3a1287.4 1287.4 0 0 0-8.1-22.2l-4-11.5L185 54l.1 20.3.1 20.2zm65.2 0l-5.7-.1L241 90l3.4-8.5a4504.8 4504.8 0 0 0 15.3-38.4l1.6-4.1h9.8l2.4 6.1a10343.7 10343.7 0 0 1 19.6 49.3c0 .1-2.6.2-5.6.2h-5.6l-1.4-3.5-2.6-7-1.3-3.4h-10.4l-10.3.1-1.1 3-2.6 6.7-1.5 4zm21.2-22.8c3.7 0 6.8 0 6.8-.2a90.1 90.1 0 0 0-3.5-9.3l-1.8-5c-1.3-4-1.5-4.1-1.8-3.3a419.3 419.3 0 0 0-3.7 10.2l-1.8 4.8-1 2.8zM355 94.6h-5.4V38.7l12.1.2c9.3.1 12.9.3 15 .7 1.9.4 4 1 5.7 2 1.7.7 3.4 2 4.5 3 1 1 2.3 2.8 3 4 1 2.2 1 2.4 1 7 0 4.8 0 4.8-1.1 7.2a17.4 17.4 0 0 1-7.4 7.2l-3.5 1.6c-.8.2-.8.2.2 1.5a800.3 800.3 0 0 1 14.8 20.3l1 1.2h-6.5l-6.6-.2-3.4-4.7L371 79l-4-5.8h-6.5v21.4zm9.2-30.3c2.1 0 5.3-.2 7-.4a18 18 0 0 0 4.8-1.4 10 10 0 0 0 2.6-2c.5-.5 1-1.5 1.2-2.2a9.1 9.1 0 0 0-.3-6.1c-.4-1-1.1-1.8-2.2-2.5-1-.6-2.5-1.1-3.7-1.3a64 64 0 0 0-7.6-.4h-5.5l-.1 8.2-.1 8.1h3.9zm44 30.3H403V38.8h10.5v55.8z"/></svg>