<svg xmlns="http://www.w3.org/2000/svg" xmlns:xlink="http://www.w3.org/1999/xlink" width="325" height="28" viewBox="0 0 325 28"><defs><path id="a" d="M0 27.4h324.4V0H0z"/></defs><g fill="none" fill-rule="evenodd"><path fill="#1A1A18" d="M0 24L1.6 3.3h3.2l5.4 17.4 5.3-17.4h3.3l1.9 20.5h-2.1L17 5l-5.8 19H9.3L3.4 5 2 24H0zm48.7 0h-6.3L41.3 9.2 37.9 24h-4.3L30 9.3 29 24h-4l1.5-20.4h7.4l2.7 10.9 2.6-10.9H47L48.7 24zm11-16.2c-2.5 0-2.8 4-2.8 6s.2 5.8 2.9 5.8c2.7 0 2.8-3.8 2.8-5.8s-.2-6-2.8-6zm0-4.6c5.9 0 9.2 4.5 9.2 10.6 0 5.8-3.3 10.4-9.1 10.4s-9.1-4.6-9.1-10.4c0-6.1 3.3-10.6 9-10.6zm16 13.8c.5 1.8 1.7 2.4 3.3 2.4.7 0 2 0 2-1.2 0-1.3-1.3-1.5-2.1-1.7-3.3-.7-7.3-1.8-7.3-6.6 0-2 .9-4 2.3-5.1a8 8 0 0 1 5-1.6c3.1 0 6 1.5 7.1 5l-4.4 1.6c-.5-1.5-1.5-2-2.9-2C78 7.7 77 8 77 9s1.3 1.2 2 1.4c1.6.4 3.4.7 5 1.6 1.6 1.1 2.5 3 2.5 5.3 0 4.9-4.2 6.8-7.8 6.8-3.7 0-7-1.8-8-6.2l5-1zm26.9 7H89.3V3.4h13.3v4.7h-8v3h6.5v4.5h-6.5V19h8v5zm8.7-12.3h2c1.2 0 2.6-.2 2.6-2a2 2 0 0 0-.9-1.6c-.4-.2-1-.2-1.5-.2h-2.2v3.8zM121.6 24h-6l-2.6-7.8h-1.7V24h-5.5V3.5h9c1.5 0 3.2.3 4.6 1.3 1.4 1 2.1 2.9 2.1 4.8 0 2.7-1 4.3-3.1 5.4l3.2 9zm7.8-8.2h6.8L132.8 5l-3.4 10.8zm-4.6 8.2l6.6-20.5h2.8l6.6 20.5h-2l-2.1-6.7h-7.8l-2.1 6.7h-2zm20-5.7c.8 3.1 2.6 4.5 5.9 4.5 2.6 0 4.1-1.7 4.1-4.1 0-5.5-11.2-3.4-11.2-10.2 0-3 2.1-5.3 6-5.3 3.2 0 5.6 1.8 6.6 5l-1.6.4c-.8-2.2-2.4-3.8-5-3.8-2.4 0-4.1 1.3-4.1 3.7 0 1.4.4 2.4 4.2 3.8 5.8 2.2 7 3.6 7 6.6 0 3.5-3 5.4-6.3 5.4-4 0-6.2-1.7-7.3-5.5l1.7-.5zm16.5 0c.8 3.1 2.7 4.5 6 4.5 2.5 0 4-1.7 4-4.1 0-5.5-11.1-3.4-11.1-10.2 0-3 2-5.3 6-5.3 3.2 0 5.6 1.8 6.5 5l-1.6.4c-.7-2.2-2.4-3.8-5-3.8-2.4 0-4 1.3-4 3.7 0 1.4.3 2.4 4.2 3.8 5.8 2.2 7 3.6 7 6.6 0 3.5-3 5.4-6.4 5.4-4 0-6.2-1.7-7.3-5.5l1.7-.5zm23.4 4.5c3.8 0 6.3-3.3 6.3-9 0-5.8-2.5-9-6.3-9s-6.2 3.2-6.2 9c0 5.7 2.4 9 6.2 9zm0-19.6c5.2 0 8.2 4.5 8.2 10.6 0 6-3 10.5-8.2 10.5-5.1 0-8.1-4.5-8.1-10.5s3-10.6 8.1-10.6zm24.4 6.3c-1-3-2.6-4.7-5-4.7-4.1 0-6 4-6 9s1.9 9 6.2 9c3.3 0 4.5-2.4 5.1-5l1.8.3c-.8 3.6-2.7 6.2-7 6.2-5 0-8-4.2-8-10.5 0-6.4 3-10.6 8-10.6 3.7 0 5.7 2.6 6.6 6l-1.7.3zm7 14.5h1.8V3.4h-1.8v20.5zm10.9-8.2h6.9L230.4 5 227 15.7zm-4.6 8.2L229 3.4h2.9l6.5 20.5h-2l-2.1-6.7h-7.8l-2.1 6.7h-2zM238 3.4h14.1v1.5h-6v19h-2V5h-6V3.4zm17.4 20.5V3.4h11.8v1.5h-10v7.6h7.2V14h-7.1v8.4h10.4v1.5h-12.3zm16.3-5.7c.8 3.1 2.6 4.5 6 4.5 2.5 0 4-1.7 4-4.1 0-5.5-11.2-3.4-11.2-10.2 0-3 2.2-5.3 6-5.3 3.3 0 5.7 1.8 6.6 5l-1.6.4c-.8-2.2-2.4-3.8-5-3.8-2.4 0-4 1.3-4 3.7 0 1.4.3 2.4 4.1 3.8 5.9 2.2 7 3.6 7 6.6 0 3.5-3 5.4-6.3 5.4-4 0-6.2-1.7-7.3-5.5l1.7-.5z"/><mask id="b" fill="#fff"><use xlink:href="#a"/></mask><path fill="#F60" d="M302 22.4h2.5v-5.8H302v5.8zm4.1 0h2.5v-5.8h-2.5v5.8zm4.2 0h2.5v-5.8h-2.5v5.8zm14.1-10V0H297v27.4h27.5V14.9h-25v-2.5h25z" mask="url(#b)"/></g></svg>