<svg xmlns="http://www.w3.org/2000/svg" width="207" height="61.000046"><g fill="none" fill-rule="evenodd"><path fill="#044e87" d="M167.49953 28.181607c5.77791-1.175093 7.68886-5.395568 7.68886-9.572463 0-5.264828-3.77788-10.0508002-10.94421-10.0954174-4.82244 0-9.64333-.041504-14.46369-.041504V38.972222h5.73234V13.866233h8.73135c3.60491 0 5.20928 2.436825 5.20928 4.87365 0 2.435787-1.5619 4.873131-5.20928 4.873131l-3.59405-.03787v4.755362l9.23731 10.641719h6.81988v-.392216zM4.6411208 8.4722222L25.243902 34.386405v4.543693h-3.556654v.042124L5.7266236 18.391691v20.538407H0V8.4722222zM71.134402 27.212571L58.902439 8.7315574v-.2593352h7.137441l8.095041 12.5897318 8.458625-12.5897318h6.601576v.2593352L77.136527 27.212571v11.759651h-6.002125zM98.431085 33.65653h16.007935v5.315692H92.560976V8.4722222h5.870109zM121.60123 24.834837c.12588 5.071182 2.73762 10.496046 9.68919 10.496046 6.95156 0 9.5628-5.468086 9.6484-10.542431.0826-5.201901-2.69684-11.022613-9.6484-11.022613-6.95157 0-9.81658 5.864988-9.68919 11.068998m24.81234-.132828c-.0836 7.982856-4.76076 15.964658-15.12315 15.964658-10.36541 0-15.16847-7.805752-15.16847-15.920382s4.97324-16.2740628 15.16847-16.2740628c10.15192 0 15.20874 8.1594328 15.12315 16.2297868M20.195122 18.7437258V8.47222222h5.0487804V27.1111111M41.542768 27.657042l5.580225-12.779637 10.551254 24.094817h6.276973L50.260698 8.4722222h-6.277493L30.292683 38.972222h6.23424l2.530591-5.563587h10.551775l-2.486296-5.751593z"/><path fill="#4ec0e0" d="M181.7561 17.232974v4.781793l14.61872-8.867013 3.53501 2.030356-18.15373 10.50633V30.5L207 15.17811 181.7561 0v4.7823381l3.42592 1.963912-3.42592 1.9622782v4.7828827l7.41637-4.4582872 3.47452 1.9720812z"/><path fill="#939598" d="M4.2559566 53.820151h-.02432l-1.7875015 4.164811h3.5142041zm-.4620753-1.292373h.9606302L8.4146342 61H7.2229663l-.8755111-2.081658h-4.304596L1.1551882 61H0zM15.66167 54.156175c-.201807-.257639-.470883-.445057-.807228-.563201-.336345-.118145-.687105-.176979-1.05228-.176979-.269076 0-.533347.02705-.792813.07971-.259466.05314-.492506.132853-.699118.239136-.206612.106282-.372382.246727-.49731.421333-.124928.175082-.187392.37958-.187392.61492 0 .182198.03604.343994.108111.483964.07207.140444.189795.267604.353162.381478.163368.113874.384395.220156.663081.318847.278685.09869.619835.197381 1.02345.296072.394004.09916.775996.204973 1.145976.318847.369979.113874.696714.258114.980205.432721.283491.175081.509323.392865.677495.654775.168173.261911.252259.590722.252259.98501 0 .402355-.100903.751568-.30271 1.04764-.201807.296073-.468481.540902-.800021.734487-.33154.193586-.713532.337827-1.145976.432722-.432444.094896-.879302.142343-1.340576.142343-.297905 0-.595811-.02088-.893717-.06263-.297905-.04175-.583799-.106282-.85768-.193585-.273881-.0873-.530944-.201178-.771191-.341622-.240246-.140445-.446858-.313154-.619836-.518127l1.037865-.671856c.221027.296072.528542.520024.922547.671856.394004.152307.812033.227748 1.254086.227748.259467 0 .521335-.03037.785606-.0911.264272-.06073.502116-.149934.713533-.267604.211417-.11767.384394-.263808.518932-.438415.134538-.174606.201807-.375784.201807-.603531 0-.250523-.05285-.452649-.158563-.609226-.105708-.155628-.269076-.290379-.490103-.404253-.221026-.113874-.499712-.21636-.836057-.307459-.336345-.0911-.73035-.197382-1.182013-.318847-.365175-.0911-.70152-.195484-1.009036-.313154-.307515-.11767-.574189-.26191-.80002-.432721-.225832-.170811-.403615-.375784-.533348-.614919-.129733-.239135-.194599-.525718-.194599-.859749 0-.387171.0961-.724048.288295-1.013478.192198-.28848.451664-.529514.778399-.723099.326735-.193586.696715-.339724 1.109939-.438415.413224-.09869.845668-.148036 1.297331-.148036.576592 0 1.102732.07022 1.57842.210667.475688.140919.900924.385273 1.275709.734487zM24.076304 54.156175c-.201807-.257639-.470883-.445057-.807228-.563201-.336345-.118145-.687105-.176979-1.05228-.176979-.269076 0-.533347.02705-.792813.07971-.259466.05314-.492506.132853-.699118.239136-.206612.106282-.372382.246727-.49731.421333-.124928.175082-.187392.37958-.187392.61492 0 .182198.03604.343994.108111.483964.07207.140444.189795.267604.353162.381478.163368.113874.384395.220156.663081.318847.278686.09869.619836.197381 1.02345.296072.394004.09916.775996.204973 1.145976.318847.369979.113874.696714.258114.980205.432721.283491.175081.509323.392865.677496.654775.168172.261911.252258.590722.252258.98501 0 .402355-.100903.751568-.30271 1.04764-.201807.296073-.468481.540902-.800021.734487-.33154.193586-.713532.337827-1.145976.432722-.432444.094896-.879302.142343-1.340576.142343-.297905 0-.595811-.02088-.893717-.06263-.297905-.04175-.583799-.106282-.85768-.193585-.273881-.0873-.530944-.201178-.771191-.341622-.240246-.140445-.446858-.313154-.619836-.518127l1.037865-.671856c.221027.296072.528542.520024.922547.671856.394004.152307.812033.227748 1.254086.227748.259467 0 .521335-.03037.785607-.0911.264271-.06073.502115-.149934.713532-.267604.211417-.11767.384394-.263808.518932-.438415.134538-.174606.201807-.375784.201807-.603531 0-.250523-.05285-.452649-.158562-.609226-.105709-.155628-.269077-.290379-.490103-.404253-.221027-.113874-.499713-.21636-.836058-.307459-.336345-.0911-.73035-.197382-1.182013-.318847-.365175-.0911-.70152-.195484-1.009035-.313154-.307516-.11767-.57419-.26191-.800021-.432721-.225832-.170811-.403614-.375784-.533348-.614919-.129733-.239135-.194599-.525718-.194599-.859749 0-.387171.0961-.724048.288296-1.013478.192197-.28848.451663-.529514.778398-.723099.326736-.193586.696715-.339724 1.109939-.438415.413224-.09869.845668-.148036 1.297331-.148036.576592 0 1.102732.07022 1.57842.210667.475688.140919.900924.385273 1.275709.734487zM31.134146 60.111733c.470007 0 .900215-.08731 1.290623-.261924.390409-.174617.725857-.413766 1.006345-.716972.280488-.303681.498435-.658608.65384-1.065256.155405-.405698.233108-.840341.233108-1.303929 0-.462639-.0777-.897283-.233108-1.30393-.155405-.405699-.373352-.760626-.65384-1.064781-.280488-.303681-.615936-.542355-1.006345-.717446-.390408-.174617-.820616-.261451-1.290623-.261451-.470006 0-.900214.08683-1.290623.261451-.390408.175091-.725857.413765-1.006344.717446-.280488.304155-.498435.659082-.65384 1.064781-.155406.406647-.233108.841291-.233108 1.30393 0 .463588.0777.898231.233108 1.303929.155405.406648.373352.761575.65384 1.065256.280487.303206.615936.542355 1.006344.716972.390409.174616.820617.261924 1.290623.261924m0 .888267c-.614041 0-1.176911-.106763-1.688612-.318865s-.955175-.506293-1.330422-.882098c-.375247-.375805-.667106-.824209-.875577-1.343788-.20847-.520528-.312706-1.083761-.312706-1.691597 0-.607362.104236-1.170595.312706-1.690649.208471-.520528.50033-.967983.875577-1.343788.375247-.375805.818721-.669996 1.330422-.883047.511701-.212576 1.074571-.31839 1.688612-.31839.614041 0 1.176912.105814 1.688613.31839.5117.213051.955174.507242 1.330422.883047.375247.375805.667106.82326.875576 1.343788.208471.520054.312706 1.083287.312706 1.690649 0 .607836-.104235 1.171069-.312706 1.691597-.20847.519579-.500329.967983-.875576 1.343788-.375248.375805-.818722.669996-1.330422.882098C32.311058 60.893237 31.748187 61 31.134146 61M44.1427498 54.4477248c-.2692683-.3233565-.6016464-.5662269-.9971342-.7286112-.3954878-.1619135-.8078049-.24239964-1.2369512-.24239964-.4964634 0-.9529573.0903703-1.3694817.27111114-.4165244.18027-.77625.4231404-1.0791768.7286111-.3029269.3045293-.5385366.6584799-.7068293 1.0613812-.1682927.4033719-.252439.8227469-.252439 1.259537 0 .4669136.084146.901821.252439 1.3051929.1682927.4024305.4017988.7526157.7005183 1.0500849.2987195.2979398.6563414.5332793 1.0728658.7060185.4165244.1732099.8772256.2602855 1.3821037.2602855.5469512 0 1.035-.096018 1.4641463-.2880556.4291464-.1925077.8030717-.469267 1.1233537-.8302778l.7951829.5982331c-.4039024.482446-.8898475.8363966-1.4578354 1.0618518-.5679878.2263966-1.2096036.3393596-1.9248475.3393596-.6395122 0-1.2369512-.1063735-1.7923171-.316767-.5553658-.2103935-1.0371036-.5022145-1.4452134-.8749923-.4081098-.3727778-.72786585-.8156867-.95926829-1.3277855-.23140244-.5120987-.34710366-1.0731481-.34710366-1.6831481 0-.5874074.1114939-1.1371605.33448171-1.6492593.2229878-.5120987.53643294-.9564197.94033534-1.3329629.4039025-.37654324.8835366-.6735417 1.4389025-.89193676.5553658-.21839506 1.1654268-.32806327 1.8301829-.32806327.6058536 0 1.1885671.09790123 1.7481402.2937037.5595732.19580247 1.0286891.5158642 1.4073476.96065583zM47.121951 52.527778V61h1.682927v-8.472222zM54.743761 53.820151h-.02432l-1.787502 4.164811h3.513697zm-.462075-1.292373h.96063L58.902439 61h-1.192175l-.875004-2.081658h-4.304596L51.642993 61h-1.155188zM65.634146 52.527778v.93338h-2.853658V61h-1.02439v-7.538842h-2.853659v-.93338zM67.317073 52.527778V61H69v-8.472222zM74.890718 60.111733c.470006 0 .89974-.08731 1.290623-.261924.389934-.174617.725857-.413766 1.006344-.716972.280014-.303681.497961-.658608.65384-1.065256.155406-.405698.233108-.840341.233108-1.303929 0-.462639-.0777-.897283-.233108-1.30393-.155879-.405699-.373826-.760626-.65384-1.064781-.280487-.303681-.61641-.542355-1.006344-.717446-.390883-.174617-.820617-.261451-1.290623-.261451-.470007 0-.900214.08683-1.291097.261451-.390409.175091-.725383.413765-1.006345.717446-.280014.304155-.49796.659082-.65384 1.064781-.155405.406647-.233108.841291-.233108 1.30393 0 .463588.0777.898231.233108 1.303929.15588.406648.373826.761575.65384 1.065256.280962.303206.615936.542355 1.006345.716972.390883.174616.82109.261924 1.291097.261924m0 .888267c-.614515 0-1.176912-.106763-1.688613-.318865-.512174-.212102-.955174-.506293-1.330895-.882098-.374774-.375805-.666633-.824209-.875577-1.343788-.207997-.520528-.312706-1.083761-.312706-1.691597 0-.607362.104709-1.170595.312706-1.690649.208944-.520528.500803-.967983.875577-1.343788.375721-.375805.818721-.669996 1.330895-.883047.511701-.212576 1.074098-.31839 1.688613-.31839.613567 0 1.176438.105814 1.688138.31839.512175.213051.955649.507242 1.330422.883047.375721.375805.667106.82326.876051 1.343788.20847.520054.312232 1.083287.312232 1.690649 0 .607836-.103762 1.171069-.312232 1.691597-.208945.519579-.50033.967983-.876051 1.343788-.374773.375805-.818247.669996-1.330422.882098-.5117.212102-1.074571.318865-1.688138.318865M89.396402 61l-5.730897-7.036252h-.027955V61h-1.174135v-8.472222h1.481646l5.730897 7.036252h.027956v-7.036252h1.174135V61zM104.85729 54.156175c-.20243-.257639-.47093-.445057-.8079-.563201-.33578-.118145-.68657-.176979-1.05238-.176979-.2691 0-.53219.02705-.79228.07971-.26009.05314-.49195.132853-.69918.239136-.20663.106282-.37301.246727-.49675.421333-.12494.175082-.18801.37958-.18801.61492 0 .182198.036.343994.10872.483964.0715.140444.18861.267604.35319.381478.16278.113874.38383.220156.66194.318847.27871.09869.62109.197381 1.02354.296072.39464.09916.77607.204973 1.14728.318847.36941.113874.69618.258114.97969.432721.28292.175081.50877.392865.67696.654775.16879.261911.25228.590722.25228.98501 0 .402355-.10091.751568-.30274 1.04764-.20122.296073-.46852.540902-.80009.734487-.33037.193586-.713.337827-1.14608.432722-.43248.094896-.87938.142343-1.34009.142343-.29793 0-.59587-.02088-.8944-.06263-.29793-.04175-.58325-.106282-.85656-.193585-.2739-.0873-.53159-.201178-.771255-.341622-.240268-.140445-.447499-.313154-.620492-.518127l1.038557-.671856c.22045.296072.52799.520024.92203.671856.39344.152307.81271.227748 1.2542.227748.26009 0 .52078-.03037.78567-.0911.2643-.06073.50156-.149934.7136-.267604.21144-.11767.38443-.263808.51838-.438415.13515-.174606.20182-.375784.20182-.603531 0-.250523-.0529-.452649-.15737-.609226-.10632-.155628-.2703-.290379-.49135-.404253-.22045-.113874-.49976-.21636-.83553-.307459-.33638-.0911-.73042-.197382-1.18152-.318847-.36641-.0911-.70158-.195484-1.00973-.313154-.30814-.11767-.57484-.26191-.80009-.432721-.22525-.170811-.403648-.375784-.533393-.614919-.129144-.239135-.194016-.525718-.194016-.859749 0-.387171.09491-.724048.288321-1.013478.191618-.28848.451708-.529514.777868-.723099.32616-.193586.69738-.339724 1.11004-.438415.41386-.09869.84514-.148036 1.29684-.148036.57665 0 1.10283.07022 1.57856.210667.47574.140919.90101.385273 1.27583.734487zM111.91487 60.111733c.46951 0 .89969-.08731 1.29102-.261924.38992-.174617.72535-.413766 1.00629-.716972.27905-.303681.49746-.658608.65381-1.065256.15492-.405698.23262-.840341.23262-1.303929 0-.462639-.0777-.897283-.23262-1.30393-.15635-.405699-.37476-.760626-.65381-1.064781-.28094-.303681-.61637-.542355-1.00629-.717446-.39133-.174617-.82151-.261451-1.29102-.261451-.46998 0-.90016.08683-1.29102.261451-.39039.175091-.72582.413765-1.00629.717446-.27953.304155-.49793.659082-.6538 1.064781-.1554.406647-.2331.841291-.2331 1.30393 0 .463588.0777.898231.2331 1.303929.15587.406648.37427.761575.6538 1.065256.28047.303206.6159.542355 1.00629.716972.39086.174616.82104.261924 1.29102.261924m0 .888267c-.61448 0-1.17637-.106763-1.68804-.318865-.51262-.212102-.9556-.506293-1.33082-.882098-.37523-.375805-.66707-.824209-.87601-1.343788-.20798-.520528-.31268-1.083761-.31268-1.691597 0-.607362.1047-1.170595.31268-1.690649.20894-.520528.50078-.967983.87601-1.343788.37522-.375805.8182-.669996 1.33082-.883047.51167-.212576 1.07356-.31839 1.68804-.31839.61401 0 1.17637.105814 1.68804.31839.51262.213051.95513.507242 1.33035.883047.37523.375805.66707.82326.876 1.343788.20799.520054.31269 1.083287.31269 1.690649 0 .607836-.1047 1.171069-.31269 1.691597-.20893.519579-.50077.967983-.876 1.343788-.37522.375805-.81773.669996-1.33035.882098-.51167.212102-1.07403.318865-1.68804.318865M120.52778 52.527778v7.538842h4.00881V61h-5.04879v-8.472222zM134.63415 57.639605c0 .451229-.0609.879119-.18384 1.28367-.12134.40455-.31411.759991-.57884 1.06778-.26473.307303-.6114.552367-1.04106.735193-.42756.182825-.94862.273752-1.56212.273752-.6135 0-1.13456-.09093-1.56422-.273752-.42756-.182826-.77423-.42789-1.03896-.735193-.26473-.307789-.45802-.66323-.58093-1.06778-.12081-.404551-.18174-.832441-.18174-1.28367v-5.111827h1.05787v4.97179c0 .334046.0383.656908.1145.968101.0756.311679.2017.587376.37819.828551.17649.241174.41128.434211.70542.578138.29362.143926.6634.215403 1.10987.215403.44437 0 .8152-.07148 1.1083-.215403.29519-.143927.53051-.336964.70699-.578138.17649-.241175.30255-.516872.37819-.828551.0746-.311193.11241-.634055.11241-.968101v-4.97179h1.05997zM143.04878 52.527778v.93338h-2.85315V61h-1.02541v-7.538842h-2.85315v-.93338zM144.73171 52.527778V61h1.68292v-8.472222zM153.98804 60.111733c.46951 0 .89969-.08731 1.29103-.261924.38991-.174617.72534-.413766 1.00628-.716972.27905-.303681.49746-.658608.65381-1.065256.15492-.405698.23262-.840341.23262-1.303929 0-.462639-.0777-.897283-.23262-1.30393-.15635-.405699-.37476-.760626-.65381-1.064781-.28094-.303681-.61637-.542355-1.00628-.717446-.39134-.174617-.82152-.261451-1.29103-.261451-.46998 0-.90016.08683-1.29102.261451-.39039.175091-.72582.413765-1.00629.717446-.27953.304155-.49793.659082-.6538 1.064781-.1554.406647-.2331.841291-.2331 1.30393 0 .463588.0777.898231.2331 1.303929.15587.406648.37427.761575.6538 1.065256.28047.303206.6159.542355 1.00629.716972.39086.174616.82104.261924 1.29102.261924m0 .888267c-.61448 0-1.17637-.106763-1.68804-.318865-.51262-.212102-.9556-.506293-1.33082-.882098-.37523-.375805-.66707-.824209-.876-1.343788-.20799-.520528-.31269-1.083761-.31269-1.691597 0-.607362.1047-1.170595.31269-1.690649.20893-.520528.50077-.967983.876-1.343788.37522-.375805.8182-.669996 1.33082-.883047.51167-.212576 1.07356-.31839 1.68804-.31839.61401 0 1.17637.105814 1.68804.31839.51262.213051.95513.507242 1.33035.883047.37523.375805.66707.82326.876 1.343788.20799.520054.31269 1.083287.31269 1.690649 0 .607836-.1047 1.171069-.31269 1.691597-.20893.519579-.50077.967983-.876 1.343788-.37522.375805-.81773.669996-1.33035.882098-.51167.212102-1.07403.318865-1.68804.318865M166.81093 61l-5.73129-7.036252h-.02679V61h-1.1748v-8.472222h1.48175l5.73187 7.036252h.02796v-7.036252h1.17305V61zM177.22265 54.156175c-.20181-.257639-.47029-.445057-.80723-.563201-.33575-.118145-.68651-.176979-1.05228-.176979-.26908 0-.53215.02705-.79282.07971-.25946.05314-.4919.132853-.69851.239136-.20722.106282-.37239.246727-.49731.421333-.12493.175082-.188.37958-.188.61492 0 .182198.0366.343994.10872.483964.0715.140444.18919.267604.35316.381478.16276.113874.38379.220156.66248.318847.27868.09869.62103.197381 1.02345.296072.3946.09916.77599.204973 1.14717.318847.36938.113874.69612.258114.97901.432721.28349.175081.50932.392865.67749.654775.16878.261911.25226.590722.25226.98501 0 .402355-.1009.751568-.30271 1.04764-.2018.296073-.46848.540902-.80002.734487-.33034.193586-.71293.337827-1.14597.432722-.43245.094896-.87931.142343-1.33998.142343-.2979 0-.59581-.02088-.89432-.06263-.2979-.04175-.58319-.106282-.85708-.193585-.27328-.0873-.53154-.201178-.77059-.341622-.24144-.140445-.44806-.313154-.62103-.518127l1.03846-.671856c.22043.296072.52854.520024.92195.671856.394.152307.81323.227748 1.25469.227748.25946 0 .52073-.03037.785-.0911.26487-.06073.50212-.149934.71353-.267604.21202-.11767.385-.263808.51894-.438415.13513-.174606.2018-.375784.2018-.603531 0-.250523-.0528-.452649-.15796-.609226-.10571-.155628-.26968-.290379-.4907-.404253-.22043-.113874-.49972-.21636-.83606-.307459-.33635-.0911-.72975-.197382-1.18141-.318847-.36578-.0911-.70152-.195484-1.00964-.313154-.30751-.11767-.57419-.26191-.80002-.432721-.22583-.170811-.40361-.375784-.53335-.614919-.12913-.239135-.1946-.525718-.1946-.859749 0-.387171.0961-.724048.2895-1.013478.1916-.28848.45166-.529514.7772-.723099.32673-.193586.69731-.339724 1.10994-.438415.41382-.09869.84566-.148036 1.29733-.148036.57659 0 1.10273.07022 1.57842.210667.47569.140919.90092.385273 1.27571.734487z"/></g></svg>