<?xml version="1.0" encoding="UTF-8" standalone="no"?>
<svg
   xmlns:dc="http://purl.org/dc/elements/1.1/"
   xmlns:cc="http://creativecommons.org/ns#"
   xmlns:rdf="http://www.w3.org/1999/02/22-rdf-syntax-ns#"
   xmlns:svg="http://www.w3.org/2000/svg"
   xmlns="http://www.w3.org/2000/svg"
   xmlns:sodipodi="http://sodipodi.sourceforge.net/DTD/sodipodi-0.dtd"
   xmlns:inkscape="http://www.inkscape.org/namespaces/inkscape"
   width="437.899"
   height="99.079"
   version="1.1"
   id="svg28"
   sodipodi:docname="uw-01.svg"
   inkscape:version="0.92.2 5c3e80d, 2017-08-06">
  <metadata
     id="metadata34">
    <rdf:RDF>
      <cc:Work
         rdf:about="">
        <dc:format>image/svg+xml</dc:format>
        <dc:type
           rdf:resource="http://purl.org/dc/dcmitype/StillImage" />
      </cc:Work>
    </rdf:RDF>
  </metadata>
  <defs
     id="defs32" />
  <sodipodi:namedview
     pagecolor="#ffffff"
     bordercolor="#666666"
     borderopacity="1"
     objecttolerance="10"
     gridtolerance="10"
     guidetolerance="10"
     inkscape:pageopacity="0"
     inkscape:pageshadow="2"
     inkscape:window-width="3200"
     inkscape:window-height="1748"
     id="namedview30"
     showgrid="false"
     inkscape:zoom="10.81528"
     inkscape:cx="78.400898"
     inkscape:cy="40.507981"
     inkscape:window-x="0"
     inkscape:window-y="52"
     inkscape:window-maximized="1"
     inkscape:current-layer="svg28" />
  <path
     fill="#fed74e"
     d="M7.37 55.93c-.592-2.133-2.142-8.632-2.566-10.762-1.533-7.698-2.406-17.953-2.852-33.494-.098-3.39-.223-6.906-.28-7.815L1.57 2.207h81.746l-.002 2.366c-.004 4.858-.48 17.103-.896 23-.738 10.456-2.195 19.535-4.264 26.557-.376 1.278-.378 1.28-.843 1.073-.616-.277-6.403-4.669-16.51-12.53-9.263-7.207-16.385-12.658-17.494-13.392l-.743-.49-.837.58c-1.156.801-5.375 4.13-19.16 15.121C9.524 54.89 7.697 56.332 7.569 56.332c-.048 0-.137-.18-.198-.402z"
     id="path2" />
  <path
     fill="#fed74e"
     d="M39.841 96.101c-8.324-4.327-15.45-10.142-20.728-16.915-1.519-1.95-4.837-6.884-4.837-7.192 0-.25.453-.627 12.526-10.4 11.235-9.096 15.13-12.186 15.658-12.425.497-.225-.472-.92 13.566 9.737 10.612 8.056 15.486 11.87 15.486 12.116 0 .674-3.017 5.388-5.34 8.344-3.945 5.018-9.007 9.56-15.147 13.588-2.508 1.645-7.811 4.508-8.339 4.502-.135 0-1.415-.611-2.845-1.355z"
     id="path4" />
  <path
     fill="#cd1442"
     d="M17.425 23.16c-.223-.347-.29-1.533-.159-2.837.177-1.758.75-3.018 1.88-4.133.84-.827 1.429-1.246 3.145-2.234 2.202-1.269 3.105-2.056 3.658-3.19.188-.387.286-.72.433-1.469.243-1.244.244-1.25.318-1.25.108 0 .629.866.937 1.557.633 1.416 1.047 3.09.972 3.92-.049.538-.272 1.462-.79 3.273-.332 1.165-.385 1.419-.392 1.906-.007.494.02.646.222 1.25.126.378.238.758.248.844.017.14 0 .154-.168.137a10.729 10.729 0 0 1-.821-.172c-.349-.084-.694-.153-.769-.153-.21 0-.416.257-.503.629a2.962 2.962 0 0 1-.118.412c-.025.044-.335-.163-.82-.546-.43-.34-.804-.618-.83-.619-.027 0-.62.291-1.318.649-1.52.778-2.364 1.073-3.43 1.198-.404.047-.816.129-.918.18-.105.056-.258.233-.36.42-.205.38-.29.426-.417.228z"
     id="path6" />
  <path
     fill="#cd1442"
     d="M17.104 42.368c-.776-.203-.905-.596-.5-1.517.12-.274.219-.582.219-.685v-.187l-.455.041c-.441.04-.46.038-.65-.142a1.088 1.088 0 0 1-.264-.431c-.155-.577.228-1.063 1.255-1.59.574-.295.777-.498.498-.498-.418 0-.432-.774-.02-1.208.474-.503 1.125-.505 1.792-.008.848.632 1.835.772 2.901.411.995-.337 2.156-1.015 2.416-1.41.248-.38-.144-.699-1.504-1.229-1.504-.585-2.277-1.084-2.815-1.814-.66-.898-.752-1.916-.264-2.929.308-.638 1.25-1.262 2.272-1.505.461-.11.663-.124 1.241-.091.388.023.728.015.775-.019.279-.19-.204-.565-1.709-1.33-1.878-.956-2.927-1.62-3.076-1.947-.3-.659.916-1.433 2.763-1.759.31-.054 1.125-.17 1.813-.259a34.094 34.094 0 0 0 1.87-.285c.611-.124.624-.124.782-.008.235.174.445.519.81 1.326a9.39 9.39 0 0 0 1.266 2.101c.773.973 1.783 1.829 2.388 2.024.32.102.775.053 1.111-.121 1.409-.73 2.617-3.101 2.232-4.383-.147-.494-.66-.919-1.318-1.094-.44-.117-.798-.113-1.351.015-.45.105-.463.105-.552-.015-.115-.154-.063-.537.11-.819.178-.286.754-.797 1.073-.952a3.15 3.15 0 0 1 1.138-.258c.109 0 .25-.038.314-.085.111-.081.099-.125-.263-.922-.479-1.053-.792-1.952-.963-2.765-.171-.811-.184-2.089-.027-2.811.482-2.23 2.181-4.8 3.9-5.9.56-.36 1.58-.823 2.099-.954.695-.176 1.554-.167 2.474.026.396.083 1.605.417 2.688.743 1.948.585 3.357.966 4.105 1.109.437.083.77.26.77.407 0 .137-.69.846-1.188 1.22-.684.516-1.523.902-2.437 1.12-.155.038-.875.091-1.602.12-.76.03-1.376.084-1.453.125-.187.1-.168.235.117.824.261.54.309.804.165.923-.12.1-.449-.027-1.133-.442-.91-.551-1.614-.783-2.563-.844-1.153-.074-2.04.228-2.67.91-.642.694-1.24 1.92-1.453 2.977-.118.587-.113 2.099.007 2.139.039.01.199-.169.355-.403.528-.794 1.77-2.017 2.048-2.017.191 0 .593.411.744.762.105.246.13.391.101.6-.05.366-.307.825-.645 1.153-.151.146-.35.393-.444.547-.166.278-.168.295-.15 1.25.009.533-.014 1.236-.05 1.563-.09.775-.45 2.552-.679 3.344-.405 1.399-.705 1.968-1.443 2.741-.761.797-1.42 1.186-2.33 1.374-.857.178-1.153.409-1.588 1.24a3.625 3.625 0 0 1-1.59 1.542c-.642.314-1.082.39-1.753.302-.463-.062-.505-.057-.623.061-.367.366.217 1.21 1.9 2.744l.612.558-1.227.648c-.675.357-1.513.837-1.862 1.067-1.383.912-2.714 2.133-3.887 3.566-.784.959-.89 1.061-.97.935a.567.567 0 0 1-.058-.249.634.634 0 0 0-.104-.304c-.087-.125-.14-.141-.374-.115-.351.04-.587.224-1.162.905-.264.314-.576.61-.73.696-.288.16-.888.229-1.225.14z"
     id="path8" />
  <path
     fill="#cd1442"
     d="M13.104 33.068c0-.74-.097-.948-.488-1.047-.357-.09-.668.04-1.15.482-.545.5-.78.643-1.27.768-.441.113-.817.089-1.164-.077-.46-.218-.536-.67-.21-1.25.256-.453.236-.61-.082-.635-.279-.023-.542.121-.542.297 0 .168-.168.316-.359.316-.232 0-.672-.277-.818-.515-.208-.34-.274-.689-.192-1.015.212-.843 1.137-1.355 2.028-1.123.653.17.68.1.179-.477-.483-.556-.67-.89-.676-1.216-.012-.554.498-.909 1.376-.955 1.09-.057 1.47.302 1.986 1.877.32.979.637 1.403 1.257 1.685.25.114.423.142.875.141.31 0 .67-.037.803-.083.364-.126.422-.328.485-1.694.03-.636.078-1.255.107-1.375.092-.373.299-.71.62-1.01.432-.404.771-.603 1.233-.725.516-.135 1.034-.055 1.705.263.544.258 1.858 1.158 1.784 1.222-.028.022-.298.248-.6.5-1.486 1.235-2.07 2.83-1.628 4.45.016.058-.03.164-.1.234-.109.109-.207.128-.65.128-1.117 0-2.303.338-3.697 1.053l-.812.416zM9.67 22.15c-.088-.088-.16-.219-.16-.29 0-.19-.262-.423-.53-.473-.318-.06-.708.065-.794.254-.116.255-.753.468-1.395.468-.714 0-.896-.762-.426-1.787.086-.188.143-.377.127-.42-.016-.042-.198-.112-.403-.154-.413-.085-1.085-.479-1.206-.706-.107-.2-.031-.538.196-.87.233-.341.499-.533.815-.589.34-.06.39-.155.34-.647-.123-1.203-.125-1.12.029-1.203.225-.12 1.098-.05 1.417.116.573.295.9.697 1.236 1.515.173.422.28.585.538.82.573.522 1.63.979 2.888 1.249.866.185 2.48.201 3.146.03.552-.141.722-.123.779.083.108.391.014 2.064-.135 2.39-.206.45-1.013.461-3.071.044-1.49-.302-1.656-.299-2.146.04-.282.193-.415.242-.715.264-.331.023-.385.011-.53-.134zm5.106-4.539c-.078-.034-.345-.265-.595-.515a4.55 4.55 0 0 0-1.063-.796c-1.015-.568-1.52-1.063-1.997-1.958-.298-.559-.748-.994-1.205-1.165-.528-.197-.593-.27-.593-.673 0-.446-.17-.766-.656-1.244-.425-.417-1.06-.776-1.374-.776-.33 0-.737-.174-1.097-.47a4.595 4.595 0 0 0-.681-.454c-.187-.095-.35-.206-.364-.246-.039-.117.465-.62.93-.93.236-.156.43-.318.43-.359 0-.112-.168-.338-.579-.782-.202-.218-.414-.493-.47-.61-.095-.2-.094-.22.026-.383.158-.215.817-.552 1.185-.607.72-.108 1.416.271 1.497.815.053.35.33.772.654.996.289.2.36.175.251-.088-.144-.349.119-1.007.563-1.407.22-.2.292-.231.452-.2.296.06.566.304.778.704.28.529.36 1.01.273 1.661-.283 2.128 1.352 4.524 4.12 6.035.257.141.83.4 1.272.575.877.347 1.387.588 1.552.733.099.087.094.107-.076.288a3.61 3.61 0 0 0-.387.558c-.664 1.175-.866 1.312-1.984 1.34-.397.011-.785-.008-.862-.042zm3.453-5.235c-.243-.034-.406-.185-.406-.373 0-.158.251-.455.387-.457.538-.008 1.238-.142 1.583-.303.471-.22.663-.473.816-1.071.215-.841.007-1.638-.57-2.185-.436-.412-.569-.421-1.704-.12-.389.103-.796.179-.906.168-.192-.019-.2-.03-.195-.288.005-.222.047-.31.244-.512.285-.292 1.053-.677 2.231-1.118 1.54-.577 2.238-.67 3.829-.505.83.085 1.571.015 1.97-.188.365-.187.532-.167.644.076.247.534.211.88-.146 1.403-.345.504-.493 1.026-.556 1.957-.1 1.497-.497 2.18-1.58 2.726-.813.41-2.084.652-4.047.772-1.047.065-1.258.067-1.594.02zm4.21-5.168c.316-.164.225-.452-.199-.63-.414-.172-.858-.078-1.234.262-.277.25-.317.433-.105.48.299.066 1.34-.008 1.537-.112z"
     id="path10" />
  <path
     fill="#cd1442"
     d="M15.041 10.96c-.448-.14-1.154-.684-1.34-1.03-.06-.115-.043-.134.168-.19.408-.11 1.443-.248 2.692-.36 1.73-.154 1.923-.095 2.876.872l.395.401-.802.109c-2.23.301-3.465.363-3.989.198zm46.532 14.938c-1.54-.545-2.375-.979-3.523-1.833-.63-.469-1.46-.91-1.852-.987-.571-.11-.938-.423-.938-.8 0-.398-.464-.647-1.082-.583-.581.061-.97.276-1.624.9-.569.541-1.113.89-1.391.89-.55 0-.853-1.16-.502-1.916.107-.228.247-.394.484-.57.446-.331.567-.476.542-.65-.023-.159.035-.153-1.191-.116-.522.015-.947-.118-1.28-.404-.455-.389-.5-.802-.163-1.462.25-.487.584-.712 1.109-.746.54-.034.915.1 1.648.59.328.22.604.399.615.399.01 0-.155-.354-.368-.788-.485-.99-.534-1.353-.264-1.956.717-1.597 1.93-.782 2.874 1.931.438 1.26.676 1.712 1.153 2.194.468.472 1.009.761 1.909 1.022.51.148 2.618.589 3.768.789.318.055.447.102.426.157a9.864 9.864 0 0 0-.138.74c-.1.617-.101.705-.008 1.277.056.338.19.836.3 1.108.292.728.335.907.235.97-.112.072-.071.08-.74-.156zm-1.5-9.652c-.87-.59-1.521-.874-2.173-.947-.496-.056-.685-.173-.605-.375.02-.053.053-.24.072-.416.03-.273.007-.37-.146-.653-.174-.323-1.54-1.808-1.66-1.808-.034 0-.302.214-.596.475-.682.607-1.028.774-1.611.774-.547 0-.884-.09-.976-.262-.11-.206-.028-.798.165-1.193.095-.193.337-.52.538-.726.43-.439.467-.598.15-.65-.47-.076-1.173-.754-1.259-1.213a.724.724 0 0 1 .364-.75c.166-.09.352-.112.964-.112 1.016 0 1.019-.002 1.243-1.156.108-.558.224-.812.37-.812.149 0 1.08.504 1.336.723.385.33.5.683.567 1.725.112 1.772.388 2.104 3.475 4.176.963.646 1.872 1.283 2.02 1.416l.27.24-.452.563c-.52.648-1.248 1.47-1.301 1.469-.02 0-.36-.22-.755-.488zm.5-5.805a2.385 2.385 0 0 1-.912-.365c-.393-.25-1.15-.95-1.15-1.064 0-.166.474-.23 1.944-.26 1.634-.035 2.422.033 2.851.247.343.17.532.372.48.51-.06.156-.545.38-1.35.624-.563.17-1.637.388-1.696.343a1.76 1.76 0 0 0-.167-.034z"
     id="path12" />
  <path
     fill="#cd1442"
     d="M62.792 12.199c-.496-.099-.75-.256-.75-.464 0-.228.256-.36 1.117-.572.612-.151.867-.245 1.06-.392.648-.495.782-1.552.316-2.484-.231-.461-.456-.585-1.056-.58-.408.004-.621.047-1.159.235-.362.127-.72.23-.796.23-.124 0-.139-.03-.137-.297.002-.383.179-.769.447-.974.117-.089.507-.264.866-.389.36-.125.977-.376 1.373-.558.91-.42 1.094-.469 1.772-.47.626 0 .965.077 2.165.487 1.072.366 1.543.388 2.4.11.684-.22.749-.195.775.304.024.448-.174.91-.587 1.37-.391.434-.622.85-.81 1.457-.32 1.041-.972 1.742-2.184 2.35-.547.275-1.318.52-2.013.642-.667.116-2.2.113-2.799-.004zm3.05-5c.458-.12.703-.239.752-.369.107-.278-.26-.47-.893-.47-.467 0-.77.102-.84.284-.064.167-.043.498.037.578.103.104.49.094.944-.023zM63.321 20.39c-.394-.19-.956-.437-1.248-.548-1.177-.447-1.342-1.094-.584-2.285.846-1.33 2.342-2.624 4.459-3.855 2.76-1.605 3.648-2.327 4.349-3.535.288-.497.562-.852.723-.938.253-.135.456.223.702 1.241.35 1.442.263 2.756-.373 5.668-.276 1.265-.397 2.068-.445 2.957-.022.406-.071.75-.116.811-.084.115-.115.11-.997-.16-.486-.148-2.467-.142-3.125.012-.585.136-1.026.31-1.375.543-.81.543-1.009.552-1.97.09z"
     id="path14" />
  <path
     fill="#cd1442"
     d="M70.363 46.614c-.233-.048-.35-.146-.352-.296 0-.04.041-.293.093-.562.192-1.002.147-1.07-.621-.956-.725.108-.751.084-.704-.636.059-.913.27-1.171 1.16-1.42.497-.139.575-.178.44-.222l-.431-.135c-.785-.245-.985-.451-.79-.817.141-.27.618-.786.91-.988.24-.166.275-.173.503-.105.498.149 1.249 1.032 1.251 1.472.001.229.26.662.455.763.247.128.66.084.915-.098.256-.182.55-.62.713-1.056.105-.285.132-.501.134-1.105.003-.716-.006-.765-.182-1.082-.293-.53-.78-.851-1.649-1.087-.42-.114-.728-.135-2.51-.171-2.37-.048-2.354-.044-2.92-.653-.744-.798-.886-1.114-.89-1.975-.003-.858.145-1.743.371-2.217.34-.712 1.507-1.596 2.107-1.596.222 0 .454-.092.534-.212.096-.145.042-.554-.115-.868-.433-.865-1.79-2.315-3.681-3.934-1.34-1.147-2.05-1.866-2.217-2.247-.374-.85-.285-2.296.172-2.817.152-.174.283-.132.73.234.627.515.72.497 1.596-.303 1.3-1.188 2.47-1.505 3.932-1.068.404.12.659.355.749.69.036.135.125.836.196 1.557.316 3.174 1.022 5.266 2.438 7.218.654.903 1.186 1.739 1.402 2.205.187.404.26.495.534.662.517.315 1.278.101 1.87-.525.798-.844 1.018-2.248.604-3.863-.276-1.074-.618-1.643-1.08-1.796-.177-.058-.252-.048-.493.069-.31.15-.585.48-1.032 1.243l-.272.465-.172-.371a9.456 9.456 0 0 1-.332-.864c-.348-1.074-.266-1.617.337-2.228.457-.464.812-.606 1.31-.523.581.096.668.038.568-.389-.244-1.036-.624-3.681-.664-4.617-.044-1.049.045-1.688.636-4.53.734-3.535.87-4.497.722-5.116-.126-.525-.548-.782-1.295-.788-.731-.008-.869.306-.962 2.184-.088 1.78-.276 3.157-.431 3.157-.076 0-.213-.441-.47-1.51-.602-2.507-.713-4.38-.342-5.735.357-1.299 1.206-2.155 2.605-2.625.505-.17.737-.165 1.319.03 1.414.473 2.204 1.308 2.394 2.533.13.842-.103 1.989-.675 3.307-.156.361-.425.98-.598 1.375-.75 1.724-1.384 3.75-1.348 4.312.016.234.042.285.154.3.108.016.173-.052.329-.343.217-.406.8-1.207.878-1.207.028 0 .073.05.1.11.085.19.104 2.68.033 4.47-.099 2.48-.221 3.22-.73 4.42-.228.536-.23 1.156-.005 2 .813 3.062 1.012 4.068.958 4.844-.097 1.422-.91 2.708-2.079 3.29-.437.217-.577.256-1.031.282-.634.038-.86.115-.94.322-.08.211-.077 1.257.005 1.56.136.506.28.634 2.802 2.503l.142.106-.537 1.53c-.685 1.95-1.12 3.396-1.216 4.032a5.475 5.475 0 0 1-.273 1c-.233.588-.644 1.344-.732 1.344-.033 0-.155-.208-.27-.46-.24-.528-.398-.665-.761-.665-.295 0-.567.16-1.06.622a2.2 2.2 0 0 1-.66.425c-.387.145-1.212.22-1.579.145z"
     id="path16" />
  <path
     fill="#cd1442"
     d="M59.439 36.577a1.871 1.871 0 0 0-1.28-.467c-.462 0-.643.082-.69.313-.075.378-.533.4-.938.044-.405-.356-.501-.838-.27-1.349.172-.377.166-.536-.016-.48a3.04 3.04 0 0 1-.422.072c-.71.074-1.412-.86-1.1-1.463.14-.27.494-.602.876-.817.334-.189.518-.36.454-.423a.82.82 0 0 0-.242-.08c-.436-.088-.45-.593-.033-1.14.424-.556 1.193-.766 1.775-.485.42.204.727.625 1.3 1.787.768 1.554 1.244 2.029 2.13 2.12 1.036.108 1.485-.408 1.692-1.944.229-1.704.482-2.508.96-3.053.305-.346.519-.437.945-.398.81.073 1.882.834 2.262 1.604.283.574.273.598-.632 1.493-.64.632-.84.874-.995 1.198-.243.505-.393 1.217-.393 1.865 0 .649-.05.874-.218.985-.098.064-.468.108-1.257.15-1.2.065-1.824.186-2.837.555-.292.106-.578.193-.636.194-.057 0-.253-.126-.435-.282zm-20.352 25.56c-.315-.22-.11-.597.404-.747.292-.085.43-.178.775-.523.501-.502.602-.764.505-1.314-.091-.513-.319-1.074-.516-1.27-.227-.228-.603-.231-1.262-.012-.268.089-.528.146-.579.127-.29-.111.149-.888.68-1.208.596-.357 2.971-1.586 3.26-1.686.45-.155 1.104-.133 2.156.074 1.178.232 2.092.25 2.688.051.539-.179.73-.205.85-.118.088.065.09.097.009.289-.05.118-.266.482-.481.809-.495.752-.642 1.042-.847 1.676-.324 1.002-.756 1.418-2.276 2.191-2.586 1.317-4.855 2.019-5.366 1.66zm4.463-5.096c.384-.19.44-.383.14-.488-.587-.204-1.26-.131-1.489.16-.16.204-.16.24.004.404.118.118.185.13.587.104a1.95 1.95 0 0 0 .758-.18z"
     id="path18" />
  <path
     fill="#cd1442"
     d="M45.543 71.354c-.431-.273-1.588-1.45-1.9-1.932a3.99 3.99 0 0 1-.389-.822c-.07-.23-.183-.466-.25-.528-.118-.106-.136-.105-.449.034-.799.353-1.046.44-1.537.539-.562.113-1.128.1-1.285-.03-.079-.066-.09-.164-.057-.51.045-.492-.016-.62-.3-.62-.25 0-.501.115-1.076.49-.27.177-.52.304-.555.283-.038-.023-.05-.2-.031-.435.066-.825 1.327-2.994 2.325-4 .44-.443.592-.549 1.221-.853a22.954 22.954 0 0 1 1.688-.705c2.416-.89 3.557-1.749 4.437-3.34.565-1.022.604-1.048.939-.625.497.628.513 1.12.187 5.623-.211 2.91-.256 3.82-.236 4.782.022 1.06.04 1.224.168 1.53.322.778.336.833.223.915-.123.09-.285.048-.843-.22-.586-.28-.665-.266-1.14.212-.485.487-.658.52-1.14.213zm-9.141-10.868a5.832 5.832 0 0 1-.832-.74l-.443-.48 1.395-.143c2.456-.253 3.555-.086 3.627.55.016.137-.035.173-.513.362-.591.235-2.014.616-2.518.674-.308.034-.35.023-.716-.222zm-2.165 6.617c-.066-.095-.102-.274-.102-.51 0-.952-.455-1.156-1.309-.588-.819.544-1.207.654-1.912.542-.798-.128-.904-.264-.904-1.161 0-.971.097-1.092 1.067-1.34.29-.074.536-.144.548-.155.011-.012-.313-.191-.72-.399-.41-.208-.836-.476-.955-.599-.417-.43-.242-.843.596-1.404.748-.5.877-.458 1.933.618.697.712 1.031.914 1.031.626 0-.07-.084-.294-.187-.498-.223-.442-.236-.707-.061-1.272.155-.502.38-.791.616-.791.4 0 1.267.803 1.597 1.478.1.203.198.539.228.782.128 1.02.883 1.752 1.911 1.854.377.038.43.058.447.18.01.077-.148.466-.36.883-.578 1.133-.919 1.394-2.217 1.697-.278.065-.649.137-.825.16-.289.038-.33.03-.422-.104zm2.836 6.324a89.182 89.182 0 0 1-2.625-.945c-2.237-.851-2.16-.828-2.656-.794-.338.022-.644.11-1.34.384-.497.195-.934.343-.971.328-.038-.015-.164-.275-.28-.58-.332-.877-.591-1.208-.875-1.118-.155.05-.272.239-.409.658-.296.911-.717 1.327-1.344 1.327-.361 0-.599-.12-.898-.452-.279-.308-.352-.483-.352-.838 0-.331-.139-.412-.706-.413-.505 0-.837-.096-.93-.268-.105-.194-.1-1.14.007-1.51.18-.624.81-1.033 1.593-1.034.456-.001.786-.067.786-.156 0-.043-.155-.267-.344-.497-.198-.242-.344-.481-.344-.565 0-.16.44-.59.968-.946.396-.268.663-.274 1.18-.027.735.352 1.09.766 1.376 1.608.209.614.302.773.632 1.077.776.715 1.849.904 5.678 1.004 1.198.03 2.194.072 2.213.092.02.019.085.443.147.941.163 1.336.356 1.97.747 2.47.217.277.279.48.182.597-.042.05-.093.09-.115.09-.022 0-.616-.194-1.32-.433z"
     id="path20" />
  <path
     fill="#cd1442"
     d="M41.005 92.406c-.108-.172-.124-.282-.105-.735.03-.713.246-1.179.86-1.848.513-.562.622-.742.511-.853-.056-.055-.187-.026-.558.124-.266.108-.56.214-.652.237-.293.07-1.216-.262-1.608-.58-.114-.092-.14-.158-.11-.28.062-.242.86-1.06 1.239-1.268.303-.167.4-.186 1.038-.208.685-.022.703-.026.703-.168 0-.079-.085-.322-.188-.54-.103-.218-.187-.47-.187-.56 0-.442.507-.656 1.43-.602.611.034.948.154 1.24.437.228.22.3.412.362.953.05.444.236.832.587 1.23.269.305.691.552.943.552.36 0 1.523-1.626 1.692-2.363.04-.177.02-.238-.134-.414-.25-.284-.902-.721-2.15-1.44-2.783-1.603-3.713-2.34-4.222-3.348-.467-.926-.551-1.586-.272-2.138.203-.4 1.201-1.413 1.585-1.609.263-.134.32-.139 1.17-.097.795.04.898.034.933-.058.102-.267-.625-.745-2.784-1.83-.908-.456-1.924-1.01-2.258-1.233-1.342-.893-1.805-1.782-1.68-3.226.072-.842.206-.942 1.407-1.054.816-.076 1.432-.198 1.787-.354.441-.193.662-.03 1.789 1.313 1.431 1.709 2.12 2.351 2.516 2.351.224 0 .39-.14.87-.739.46-.571.415-.583.695.185.25.685.361 1.39.432 2.742.086 1.658.301 2.563.84 3.534.3.54 1.127 1.385 1.579 1.613.718.363 2.395.388 3.098.046.584-.284 1.91-1.684 2.251-2.38.187-.379.2-.446.192-1.031-.013-1.068-.17-1.403-.722-1.535-.624-.15-1.126.039-1.822.684-.616.572-.752.582-.78.06-.038-.736.434-2.04.92-2.54.34-.352.538-.44 1.126-.506.582-.065.817-.186.817-.422 0-.243-.16-.463-.564-.773-.201-.155-.367-.307-.37-.337-.002-.03.17-.038.387-.015.215.022.705.058 1.09.08l.699.04.181-.182c.346-.346.701-1.768.701-2.806 0-1.025-.335-2.394-.784-3.198-.498-.892-1.248-1.45-2.022-1.505-.359-.027-.427-.012-.528.1-.192.212-.087.401.484.878.852.712 1.31 1.46 1.31 2.142 0 .307-.033.408-.22.69-.12.182-.301.373-.401.425-.27.139-.315.218-.553.968-.254.804-.588 1.378-1.238 2.132l-.453.525-.015-.36c-.069-1.665-.43-2.679-1.815-5.096-.628-1.098-.73-1.407-.687-2.077.037-.588.25-1.031.748-1.565.643-.686 1.432-.932 2.44-.758 1.671.288 3.044 1.408 3.92 3.2.81 1.652 1.123 3.267.911 4.702-.137.933-.09 1.001.4.588.486-.409.646-.466 1.218-.431.278.015.71.078.96.138l.456.107-.415.44c-.533.565-.927 1.177-1.171 1.82-.181.475-.195.567-.197 1.334-.003.974-.004.976-.779 1.393-.791.425-1.423 1.162-2.292 2.673-1.341 2.33-2.213 3.228-3.445 3.549-.68.177-2.424.082-3.66-.2a4.612 4.612 0 0 0-.702-.108c-.249-.004-.25-.004-.269.25-.016.22.028.325.31.75.527.795 1.505 1.725 2.639 2.51.16.112.31.249.331.304.093.242-.466 1.058-1.914 2.791-1.874 2.242-2.937 3.08-4.009 3.157-.556.04-.643-.023-.588-.426.05-.367-.058-.498-.413-.498-.578 0-1.247.576-1.688 1.453-.286.567-.47.71-.989.765-.564.06-.805.147-.953.347-.175.238-.272.233-.43-.019z"
     id="path22" />
  <path
     fill="#cd1442"
     d="M29.556 84.063c-.333-.348-.478-.969-.36-1.538.061-.296.057-.38-.03-.564-.197-.416-.802-.468-1.288-.11-.379.278-.43.208-.43-.583 0-1.014.206-1.497.722-1.694.251-.096.331-.1.71-.027.467.088.72.056.78-.097.091-.24-.179-.426-.706-.486-.54-.062-.666-.45-.338-1.052.314-.577.832-.856 1.454-.782.364.043.768.236.907.433.054.078.155.327.222.554.232.776.849 1.335 1.833 1.66.466.155.594.17 1.51.173 1.481.004 1.968-.158 1.968-.652 0-.186-.065-.333-.279-.636-.46-.65-.615-.93-.701-1.263-.15-.58.069-1.134.692-1.747 1.037-1.02 1.916-.977 4.494.223.844.393 1.42.719 1.42.805 0 .034-.128.12-.284.188-.526.233-.915.705-1.102 1.336-.226.762-.174 1.835.137 2.804.097.305.163.59.145.636-.052.135-.2.165-1.084.217-1.38.082-1.922.249-3.877 1.194-.775.374-1.44.68-1.48.68-.042 0-.088-.186-.114-.465-.06-.652-.115-.692-.927-.684-1.12.011-1.836.283-2.725 1.033-.495.418-.823.617-1.02.617-.046 0-.158-.077-.248-.172z"
     id="path24" />
  <path
     d="M39.244 97.432c-3.76-2-6.339-3.573-8.82-5.381-10.426-7.595-17.251-16.868-22.737-30.89C3.27 49.87 1.413 39.206.533 20.062.307 15.148.004 5.104.002 2.427L0 .44h85.078l-.118 4.729c-.641 25.694-1.77 36.739-4.898 47.904-2.671 9.535-7.407 19.487-12.578 26.428-4.284 5.75-11.235 11.87-18.465 16.259-1.902 1.154-6.168 3.323-6.53 3.32-.083-.001-1.543-.742-3.245-1.647zm5.14-1.107c7.56-3.68 15.518-9.998 20.616-16.366 2.784-3.478 5.72-8.078 5.705-8.936-.004-.205-2.958-2.578-8.425-6.768-12.088-9.263-19.19-14.666-19.533-14.859-.234-.132-.668.122-2.033 1.188-2.533 1.979-26.013 21.084-26.116 21.25-.194.314 3.748 6.158 5.799 8.596 4.82 5.73 9.705 9.843 16.373 13.787 2.133 1.262 5.392 2.919 5.742 2.919.113 0 .955-.365 1.871-.811zm-21.98-36.87c15.788-12.924 19.673-16.06 19.898-16.057.51.007 16.626 12.076 27.303 20.45 1.774 1.39 3.332 2.528 3.463 2.528.131 0 .446-.382.7-.85.621-1.14 2.07-4.864 2.07-5.32 0-.247-.524-.779-1.636-1.661C72.835 57.46 56.63 45.05 45.557 36.61c-1.633-1.244-3.065-2.219-3.182-2.165-.118.053-7.532 5.967-16.477 13.142C12.28 58.509 9.625 60.709 9.578 61.112c-.094.82 2.41 6.602 2.803 6.47.092-.03 4.602-3.688 10.024-8.126zm.41-15.373c15.56-12.368 19.407-15.359 19.75-15.359.282 0 6.17 4.455 18.68 14.131 11.655 9.017 14.594 11.238 15.658 11.836l.71.4.242-.588c.364-.884 1.611-5.896 2.214-8.897 1.828-9.1 2.71-19.842 3.126-38.051l.122-5.347H1.57L1.664 3.4c.052.656.14 3.182.193 5.612.279 12.573 1.017 23.682 2.045 30.76.537 3.692 1.133 6.61 2.295 11.225 1.323 5.254 1.232 4.95 1.48 4.95.115 0 6.927-5.34 15.137-11.865zm342.848 27.582c-6.782-1.665-12.398-6.711-14.688-13.198-1.12-3.174-1.376-8.514-.567-11.868 1.815-7.529 7.568-13.358 15.08-15.279 3.349-.856 8.42-.856 11.77 0 7.664 1.96 13.65 8.23 15.08 15.797.946 5.006.396 9.159-1.809 13.652-2.65 5.402-8.32 9.81-14.197 11.04-3.027.634-7.763.57-10.669-.144zm10.565-8.726a11.98 11.98 0 0 0 5.784-5.644c.991-2.013 1.04-2.286 1.04-5.799 0-3.323-.084-3.866-.851-5.503-1.138-2.427-3.038-4.42-5.468-5.739-1.914-1.037-2.148-1.085-5.366-1.085-3.158 0-3.496.065-5.506 1.054-2.429 1.194-4.099 2.91-5.265 5.411-3.363 7.21.045 15.506 7.348 17.89 2.143.7 6.09.42 8.284-.585zm35.304 8.897c-7.639-1.763-13.326-6.973-15.572-14.267-.605-1.964-.736-3.097-.72-6.24.014-3.327.136-4.181.899-6.397 2.232-6.48 6.995-11.197 13.473-13.341 1.942-.643 2.879-.742 7.04-.742 4.404 0 5.012.073 7.365.881 6.155 2.115 11.064 7.037 13.005 13.04.94 2.905 1.173 8.7.465 11.527-.744 2.976-2.777 6.904-4.664 9.014-2.174 2.43-5.566 4.633-8.933 5.799-2.341.81-3.338.971-6.598 1.062-2.501.07-4.51-.047-5.76-.336zm10.162-8.964c7.59-3.59 9.288-14.375 3.22-20.444-.837-.836-2.317-1.91-3.291-2.39-1.585-.778-2.123-.869-5.13-.869-2.785 0-3.622.12-4.881.702-2.268 1.048-4.8 3.608-5.88 5.947-.837 1.811-.92 2.31-.92 5.511 0 3.152.09 3.712.86 5.356 1.636 3.49 3.678 5.416 7.085 6.686 2.425.904 6.447.68 8.937-.499zM106.251 51.794c-3.696-10.923-6.766-20.069-6.823-20.323-.087-.388.677-.463 4.706-.463h4.81l.65 2.16c.358 1.188 2.21 7.242 4.113 13.453l3.462 11.292 4.477-13.532 4.477-13.533 3.825-.089 3.826-.09 4.471 13.441c2.46 7.392 4.563 13.337 4.674 13.21.11-.128 1.984-6.1 4.163-13.272l3.962-13.04h4.724c2.598 0 4.721.038 4.719.08-.002.044-3.082 9.152-6.844 20.24l-6.84 20.16-3.956.09h-3.956l-4.467-12.867c-2.456-7.126-4.51-12.913-4.562-12.86-.052.052-2.085 5.842-4.517 12.866l-4.42 12.771-3.977.084-3.977-.05zm50.842 19.597c.132-.215 16.387-38.296 17.066-39.983.117-.292 1.297-.398 4.366-.395l4.206.004 8.387 19.755c4.612 10.865 8.481 20.011 8.597 20.324.198.531-.1.563-4.526.48l-4.738-.089-1.78-4.394-1.78-4.394-8.483-.004-8.482-.008-1.78 4.4-1.779 4.4-4.722.09c-2.597.048-4.646-.035-4.552-.187zm26.385-16.996c-.81-2.232-4.948-12.177-5.067-12.178-.12-.002-4.346 10.154-5.066 12.172-.064.178 1.999.3 5.066.3 3.004 0 5.129-.124 5.067-.294zm25.973 1.253v-16h-12.16v-8.32h33.28v8.32h-12.16v32h-8.96zm27.84-4.16v-20.16h30.4v8h-21.44v8h18.88v8h-18.88v8.32h21.76v8h-30.72zm40-.022V31.284l11.76.108c11.388.105 11.818.132 13.596.843 4.005 1.602 6.677 4.234 7.815 7.699.866 2.634.773 7.564-.188 10.044-.918 2.369-3.55 5.244-5.88 6.423l-1.749.885 4.908 7.188 4.909 7.188-5.333-.088-5.334-.087-4.27-6.32-4.27-6.32h-6.684v12.8h-9.28V51.465zm20.675-1.092c2.583-.767 3.965-2.608 3.965-5.282 0-2.86-1.605-4.799-4.486-5.417-.894-.191-3.706-.348-6.25-.348h-4.624v11.52h4.902c3.391 0 5.392-.146 6.493-.473zm22.845 1.113v-20.16h8.96v32h18.88v8.32h-27.84zM125.676 18.339c-3.354-1.671-3.905-3.32-3.905-11.692V.287h4.16v5.77c0 6.34.212 7.353 1.801 8.608 1.208.953 3.591.799 4.77-.308 1.192-1.12 1.425-2.516 1.427-8.55l.002-5.52h4.16v6.022c0 7.25-.337 8.8-2.356 10.818-1.559 1.56-2.994 2.035-6.14 2.038-1.79.001-2.603-.17-3.919-.826zm69.399-7.564a2221.157 2221.157 0 0 0-3.764-9.448l-.428-1.04h4.712l2.332 6.32c1.282 3.476 2.358 6.354 2.39 6.395.032.042 1.123-2.802 2.424-6.32l2.366-6.395h4.606l-3.748 9.36-3.747 9.36-1.904.088-1.903.088zm78.15 7.928c-1.465-.458-4.252-2.102-4.253-2.509 0-.138.54-.83 1.2-1.537l1.2-1.284 1.76.971c2.945 1.626 6.4 1.24 6.4-.715 0-.764-1.19-1.43-3.877-2.17-1.3-.36-2.959-1-3.685-1.423-3.314-1.933-3.016-7.144.521-9.11 1.981-1.1 5.765-1.112 8.23-.026 2.496 1.1 2.61 1.363 1.38 3.166l-1.041 1.525-1.77-.892c-2.476-1.25-4.788-1.144-5.32.242-.409 1.065.416 1.717 3.248 2.569 4.943 1.486 6.473 2.867 6.473 5.844 0 3.675-2.542 5.812-6.88 5.784-1.232-.008-2.846-.204-3.587-.435zm106.57-.042c-2.954-1.087-5.56-4.477-6.036-7.85-.272-1.938.524-5.03 1.757-6.822 3.268-4.75 10.955-5.376 15.216-1.239 2.895 2.812 3.618 7.476 1.74 11.233-1.043 2.088-2.144 3.198-4.264 4.298-1.731.9-6.426 1.111-8.413.38zm5.875-3.675c3.085-1.169 4.369-5.193 2.64-8.27-2.58-4.59-9.284-3.225-10.075 2.05-.64 4.266 3.485 7.716 7.435 6.22zm-237.019-5.42V.287h4.029l4.146 5.486 4.145 5.485.088-5.485.087-5.485h4.145v18.56l-1.84-.008-1.84-.007-4.124-5.44c-2.269-2.993-4.249-5.517-4.4-5.611-.152-.094-.276 2.358-.276 5.448v5.62h-4.16zm28.16 0V.287h4.16v18.56h-4.16zm42.56 0V.287h14.08v3.84h-9.92v3.52h8.64v3.84h-8.64v3.84h10.24v3.52h-14.4zm24.64-.026V.234l5.68.106c5.522.103 5.722.13 7.17.982 3.766 2.214 3.784 8.366.03 10.39-.572.308-1.04.61-1.04.67 0 .06.936 1.452 2.08 3.092 1.144 1.641 2.08 3.071 2.08 3.178 0 .107-1.076.194-2.392.194h-2.391l-1.937-2.88-1.936-2.88h-3.184v5.76h-4.16V9.54zm10.436-1.043c.622-.536.87-1.052.87-1.81 0-.76-.248-1.276-.87-1.811-.765-.658-1.201-.75-3.574-.75h-2.702v5.12h2.702c2.373 0 2.809-.091 3.574-.75zm39.804 1.07V.286h4.16v18.56h-4.16zm20.16 1.92v-7.36h-5.76V.286h15.68v3.84h-5.76v14.72h-4.16zm24.96 3.787v-3.572l-3.52-5.538c-1.936-3.046-3.52-5.615-3.52-5.708 0-.093 1.073-.17 2.383-.17h2.383l2.19 3.653 2.191 3.652 2.209-3.652 2.209-3.653h2.338c1.285 0 2.337.07 2.337.157 0 .086-1.584 2.634-3.52 5.66l-3.52 5.505v7.239h-4.16zm62.72-5.708V.286h14.4v3.84h-9.92v3.84h8.64v3.84h-8.64v7.04h-4.48z"
     id="path26" />
  <path
     style="fill:#ffffff;fill-opacity:1;stroke:none;stroke-width:0.09246178"
     d="M 12.194828,67.341021 C 11.765926,66.855879 10.114845,63.097848 9.754351,61.786243 9.6131128,61.272368 9.6097015,61.175052 9.7262782,60.985401 9.9088834,60.688333 10.982544,59.740061 13.326297,57.805816 17.6827,54.210577 41.826243,34.858188 42.338572,34.550868 c 0.249542,-0.149688 0.562562,0.08194 14.167376,10.483596 18.062155,13.809547 18.931983,14.488096 19.175265,14.958552 0.120858,0.233712 0.109897,0.326759 -0.122509,1.040044 -0.6495,1.993392 -1.852059,4.69393 -2.259293,5.073597 L 73.061392,66.328566 72.666036,66.06789 C 72.126338,65.712039 70.417953,64.420992 68.202363,62.694637 56.956829,53.932279 42.803865,43.370305 42.30791,43.370305 c -0.252767,0 -2.749815,2.004219 -16.591734,13.317112 -9.12724,7.459623 -13.259176,10.813526 -13.323281,10.814541 -0.03026,4.62e-4 -0.119389,-0.07194 -0.198067,-0.160937 z"
     id="path841"
     inkscape:connector-curvature="0" />
</svg>
