<svg xmlns="http://www.w3.org/2000/svg" width="800" height="300"><path fill="#fff" fill-rule="evenodd" stroke="#000" d="M81.1 79.7h640.1v132.1H81.1z"/><path fill="#2e2925" fill-rule="evenodd" d="M0 150V0h800v300H0zm464.5 51a166 166 0 0 0 11.8-2.1l4.7-1.1V152h-16v16.4c0 18.6.6 17.4-9.2 18.2-23.7 2-36.3-11.9-34.5-38 1.8-25.1 16.9-34.5 47.2-29.3 10.6 1.9 9.3 2.7 9.7-6.3l.3-7.5-6.5-1.1c-43.6-7.7-68 9.5-68 47.8 0 37.4 21 54.3 60.5 48.8zm103-2c17.6-6.6 19.9-13.3 20.3-59.3l.3-35.7H571v31c0 46.7-2 51.5-22.5 51.5-20.2 0-22.5-5.3-22.5-53.3V104h-17.2l.4 34.8c.5 42.4 1.8 48.1 12.9 56.1 10 7.3 31.6 9.2 45.4 4zM181 192.5V185h-45v-81h-17v96h62zm93 .5v-7h-50v-27h44v-14h-44v-26h50v-15h-67v96h67zm46-5l4.2-12h38.6l4.2 12 4.3 12H389l-3.4-9.3-17.2-48-13.9-38.8-11 .3-11 .3-16.7 46.5c-19.8 55.2-18.7 49-8.4 49h8.3zm9-25.7l6-17.2a442 442 0 0 0 7-21.1l1.3-4.5 1.7 6c1 3.3 4.2 12.9 7.4 21.3a452 452 0 0 1 5.6 15.7c0 .3-6.5.5-14.5.5s-14.5-.3-14.5-.7zM683 193v-7h-50v-27l21.8-.2 21.7-.3.3-6.8.3-6.7H633v-26h50v-15h-68v96h68z"/><path fill="#c3d600" fill-rule="evenodd" d="M515 221.5h67.5v15.2H515z"/></svg>