<svg xmlns="http://www.w3.org/2000/svg" xmlns:xlink="http://www.w3.org/1999/xlink" width="310.7" height="74.7" viewBox="0 0 310.7 74.7"><path fill="#231F20" d="M80.8 61h3.7l2.2 12.5h-3.6l-.3-2.2h-5l-1.3 2.2h-3.8L80.8 61zm-1.5 7.8h3.2l-.6-4.5-2.6 4.5zm21.3-.7c-.8 3.4-2 5.7-7 5.7-3.6 0-5.6-1.6-5.6-3.6 0-1.1.2-1.9.4-2.7L90 61h3.6L92 67.7c-.1.6-.4 1.2-.4 1.9 0 1 .8 1.5 2.1 1.5 2.5 0 2.9-1.7 3.4-3.7l1.5-6.5h3.6l-1.6 7.2zm14.8-4.4h-4.1l-2.3 9.8h-3.6l2.3-9.8h-4.1l.6-2.8H116l-.6 2.8zm8-3c2.4 0 6.2.8 6.2 5.3 0 4.4-2.9 7.8-7.9 7.8-3.8 0-6-2-6-5.6 0-4.2 3-7.5 7.7-7.5zM122 71c2.6 0 4-2.8 4-4.8 0-1.9-.8-3-2.7-3-2.8 0-4 2.8-4 5 0 1.6.8 2.8 2.7 2.8zm11-10h5l.6 9 4.8-9h5l-2.9 12.5H142l2.6-10-5.5 10h-2.8l-.8-10-2.1 10H130l3-12.5zm23.5-.3c2.4 0 6.2.8 6.2 5.3 0 4.4-2.9 7.8-7.9 7.8-3.8 0-6-2-6-5.6 0-4.2 3-7.5 7.7-7.5zM155.1 71c2.6 0 4-2.8 4-4.8 0-1.9-.8-3-2.7-3-2.8 0-4 2.8-4 5 0 1.6.8 2.8 2.7 2.8zm19.9-7.3h-4l-2.3 9.8H165l2.3-9.8h-4l.6-2.8h11.7l-.6 2.8zm2.7-2.7h3.6l-2.9 12.5h-3.6l2.9-12.6zm5.5 0h3.7l.5 9.3 4.7-9.4h3.8l-7.2 12.6h-4L183.1 61zm13.8 0h11.2l-.7 2.7H200l-.4 2h6.9l-.6 2.6H199l-.5 2.4h7.5l-.7 2.8h-11L197 61zm29.4 4.2c0-1.2-1-1.8-2.3-1.8-3 0-4.2 2.6-4.2 4.9 0 1.8 1 2.8 2.8 2.8 1.7 0 2.7-.5 3.2-2h-2.5l.5-2.5h5.8l-1.6 7h-2.3v-1.3c-.8 1-1.8 1.5-4 1.5-2.7 0-5.5-1.3-5.5-5.5 0-1 .5-7.6 7.8-7.6 3.5 0 5.8 1.4 5.7 4.5h-3.4zm6.9-4.2h6.8c2.5 0 4.5.5 4.5 3.2 0 1.9-1 3.2-3.2 3.5 1 .3 1.4 1 1.4 2.1v2.4c0 .4 0 1 .2 1.3h-3.7v-2.9c0-1-.5-1.7-1.8-1.7h-2.4l-1 4.6h-3.7l3-12.6zm2.4 5.5h2.8c1.3 0 2.5-.4 2.5-1.7 0-1.1-1-1.3-2-1.3h-2.6l-.7 3zm17.6-5.8c2.4 0 6.1.8 6.1 5.3 0 4.4-2.8 7.8-7.8 7.8-3.9 0-6.1-2-6.1-5.6 0-4.2 3-7.5 7.8-7.5zM251.9 71c2.6 0 4-2.8 4-4.8 0-1.9-.8-3-2.7-3-2.8 0-4 2.8-4 5 0 1.6.8 2.8 2.7 2.8zm21.3-2.9c-.8 3.4-2 5.7-7 5.7-3.5 0-5.5-1.6-5.5-3.6 0-1.1.2-1.9.4-2.7l1.5-6.6h3.6l-1.6 6.8c-.1.6-.3 1.2-.3 1.9 0 1 .8 1.5 2 1.5 2.5 0 3-1.7 3.4-3.7l1.5-6.5h3.6l-1.6 7.2zm3.9-7.1h6.8c2.5 0 4 1.4 4 3.7 0 3.2-2.5 4.8-6 4.8h-3.1l-1 4h-3.6l3-12.6zm2.3 5.7h2.5c1.7 0 2.4-.7 2.4-1.7 0-1.2-1-1.4-2.1-1.4h-2l-.8 3.1z"/><defs><path id="a" d="M0 0h310.7v84.4H0z"/></defs><clipPath id="b"><use overflow="visible" xlink:href="#a"/></clipPath><g clip-path="url(#b)"><path fill="#0066E9" d="M12.8 47.5L10.3 49a16 16 0 0 1-5.7 1.1c-1.4 0-2.4-.2-2.8-.8-.4-.3-.5-.7-.5-1 .4-1.6 3-2.6 7-2.6a17.3 17.3 0 0 1 6 1l-1.5 1m33.8-34.4a23 23 0 0 1 6-6A31 31 0 0 1 63 2c.5 0 .8.1 1 .4.2.3-.2 1.5-.5 2-2.5 4-6.3 7.8-10 9.8l-2.8 1.7c-1.2.7-4.4 2.5-8.6 3.9l4.4-6.5m-9.4 40.6h.4l1.4-.3c3.1-.6 4.8-1 5-1.5v-.2a.6.6 0 0 0-.5-.2l-2 .1-2.3.2c-2.2 0-4-.2-5.6-.6-1.5-.4-8-2.3-11.1-3.6l-1.1-.5-.8-.4 2.9-1.9.5-.3a47.8 47.8 0 0 0 13.5-16.9l.2-.3a190 190 0 0 1 3.4-5.8c3.3-1 7.8-2.4 10.7-4.3l.2-.1c3.5-2 11.7-7.2 13.8-12.8.5-1.4.4-2.7-.4-3.5C64.8.3 64 0 63 0c-5.5 0-16.5 10-18.3 11.8a182 182 0 0 0-8.5 9.5l-2.7.4h-1.1a29.6 29.6 0 0 1-13.6-1.3c-2.4-1-5.7-2.5-7-4.8-.3-.7-.7-2-.8-2.8-.5-4.4 5.1-6.4 9.9-7.3a62.4 62.4 0 0 1 8.7-.2l1.1.1 1.7.2.4-.2.1-.3c-.2-.6-3.3-1.3-3.6-1.4-1.4-.3-3-.4-4.5-.4-5.5 0-10.6 1.8-13.7 5a6 6 0 0 0-1.5 3v1.4c0 .7.1 1.5.4 2.2 2.2 5.5 9 7.4 13.8 8.3a61.5 61.5 0 0 0 6.2.2h1.6l3.4-.5-1 1.4-1 1.3-.2.2-.6.7-.5.6c-2 2.7-8.5 10.9-12.7 15.2-1.1 1.1-2 2-2.9 2.7a15.6 15.6 0 0 0-3.4-.8 25 25 0 0 0-4-.3c-2.4 0-6.7.4-8.3 3v.2c-.3.3-.5.6-.4 1-.2.5 0 1 .3 1.6 0 .3.2.4.4.6l.2.2a8 8 0 0 0 4.5 1.2A35.7 35.7 0 0 0 18.3 48a73 73 0 0 1 2.9 1.2l.7.3 2 1 .7.3c2.2.9 4.4 1.8 6.6 2.5 1.1.4 4.6.5 6 .5"/></g><g clip-path="url(#b)"><path fill="#0066E9" d="M228 30a36 36 0 0 1-7.4 2.2l1-1.9.4-.7a61.7 61.7 0 0 1 17.5-20c.4.8.5 1.5.5 2.2a16 16 0 0 1-.9 5.4c-2 4.8-6.6 10.8-11 12.8m12-7.4a19 19 0 0 0 2.4-6.4 10 10 0 0 0-.7-6l-.2-.6c0-.3-.2-.6-.5-1 2.5-1.3 5.7-2.3 7.9-3 .7-.1 1-.3 1-.6 0-.2-.2-.4-1.2-.5-2.3-.2-6.5 2-6.6 2l-.3.1-1.6 1-2-2.1a12 12 0 0 0-4.2-2.7 15.7 15.7 0 0 0-6.4-1c-7 .3-12 2-17 5.4-2.3 1.5-5 4.6-6.3 6.5a12 12 0 0 0-2.2 7c.2 2.2 2.6 4.7 4.9 5.2 1.8.4 3.7.3 5.6-.4a30.8 30.8 0 0 0 14.7-11.4c.3-.5.6-2 .3-2.6-.2-.3-.5-.3-1 0v.1c-1.1 5-11.3 13-17.8 13-1.8 0-3.3-.6-4.3-1.8-.6-.8-.6-1.8-.6-2.9a9 9 0 0 1 1.5-3.5 31.6 31.6 0 0 1 22.8-12.8l1.7.1c3 .4 5 .8 7.2 2.8a7 7 0 0 1 1.6 1.9l-2 1.3-1.3.8-.2.2a52.3 52.3 0 0 0-7.7 6.2l-4 4.8-1.7 2a58.5 58.5 0 0 1-4.4 5l-2.9 3.2-.2.3-2-.6-1.2-.5c-.2 0-.2.1-.3.2 0 .4 1 1.2 1.4 1.5l1 .5a32.9 32.9 0 0 0-1.8 2.3l-2.2 2.2-2 2a43.4 43.4 0 0 1-6.5 5.7 27 27 0 0 1-14.2 4.9c-2 0-4-.4-5.7-1a9 9 0 0 1-4.3-3.4c-1.7-3-1.6-6 0-8.8 3.6-6.2 14-10.3 21.5-10.3 2 0 3.7.3 5 .8 1.6.5 3.4 2 3.6 4 .4 3-2.7 6-5 7.3-2.8 1.5-6 2.9-10.1 3.2h-2.5c-.6-.2-1.3-.2-2-.2h-.1c-.2 0-.3.1-.3.3l.1.6c.7.8 2.1.9 3.4.9h.3a24 24 0 0 0 15.7-6.6c1.5-1.9 2.5-5.1 1.4-7.3-.5-1-1.1-1.7-1.9-2.3-2.4-2-6.2-2.5-8.9-2.5a27 27 0 0 0-9.1 1.6c-4.2 1.6-11.4 6.2-13.4 11-1.4 3.3-.3 9.2 3.1 11.2s6.8 3 10.3 3a34 34 0 0 0 31.8-18h1.5c7.7-.7 14.8-4.9 19-11.3"/></g><g clip-path="url(#b)"><path fill="#0066E9" d="M240.7 46.8h-.2c-1 .7-1.8 1-2.2 1h-.2v-.4A42.8 42.8 0 0 1 255 32.2c.3 0 .5 0 .6.3.2.3-.3.9-.5 1.2l-.1.1c-.9 1.2-2.4 2.5-3.8 3.8l-2.3 2.1a45.3 45.3 0 0 1-8.1 7.1m.1-18.3l1.4-1.3c3-3.1 6.2-5.9 9.6-8.8l1.8-1.6c1.6-1.4 3.4-3 5.1-4h.1c.6-.3 1-.5 1.3-.5 0 1-9.3 9.3-11.8 11.3l-1.5 1.2-3.2 2.6a52.1 52.1 0 0 1-5.8 4.3l3-3.2m52.3-7.5c0-.1-.2-.2-.5-.2h-3.2c-.3 0-.6 0-.9.2l-2.9 3-.1.2-6 6.6h-3.2c-.3 0-.8.1-1 .4l-1 .9c-.2.2-.2.4-.2.5 0 0 .2.2.5.2h3a96.2 96.2 0 0 1-14 13.2 16.7 16.7 0 0 1-5.6 2.4c-.2 0-.3 0-.4-.2A117 117 0 0 1 271 32.8h1c.3 0 .8-.2 1-.4l1-1 .2-.4c0-.1-.1-.2-.4-.2h-1l1.2-1.3c3.7-4 6.7-7 7.2-7.8l.2-.3.2-.4c0-.1-.2-.2-.5-.2h-3.2c-.3 0-.6 0-.9.2a61 61 0 0 0-2.8 3l-.2.2-6 6.6h-2.7c-.3 0-.7.1-1 .4l-1 .9c-.2.2-.2.4-.1.5 0 0 0 .2.4.2h2.6a81.2 81.2 0 0 1-14.5 13.4l-.6.3a49 49 0 0 1-3 1.4h-.1c0-.2 0-.7 1-2.3a82.2 82.2 0 0 1 12-12.4c1.4-1.2 2-1.9 1.9-2.3-.1-.3-.5-.3-.8-.3a12.4 12.4 0 0 0-3.1.1c-.3 0-.6.2-.8.4a3 3 0 0 1-.8.4l-.5-.3c-.6-.4-1.4-1-2.5-1a31.3 31.3 0 0 0-13.7 7.8l-1.2 1.1-.7.7-.6.7c-.8.5-1.5 1-2.2 1.7-2.4 2-5 4-7.8 5.2-.4.2-1.2.6-1.8.6-.3 0-.4-.1-.4-.3-.1-.8 1-2.6 1.6-3.5l.3-.5c1.3-2.1 2.9-4.2 4.2-5.6 2.1-2.1 4.8-4 7.4-5.8l2.7-1.9c5.2-3.8 22-16.4 20.7-19.8-.3-.7-.9-1.1-1.8-1.1-2.4 0-6.4 2.8-7.9 4h-.2c-9.1 6.5-24.7 21.3-29.4 30.9-.7 1.4-.9 3.4.3 4.6.5.6 1.1.9 2 .9 2.2 0 5.2-2.2 7.3-3.8l1-.6v-.1l1.3-1a11.1 11.1 0 0 0-.4 2.7c0 1.6.5 2.5 1.6 2.8l1 .1c1.9 0 3.7-1.5 5.3-2.8l.6-.4.2-.2 1.3-1a16.3 16.3 0 0 0-.2 1.4v1.4c.3.9 1.3 1.6 2.2 1.7h.1c.8 0 2-.5 3.5-1.4.9-.4 1.7-1 2.4-1.5l.8-.4 1.1-.7v1.4c.2.9.5 1.6 1 2 .5.5 1.1.7 1.9.7 2.2 0 5.1-1.8 7.1-3.2l.5-.2 1.1-.7v1.4c.2.9.5 1.6 1 2 1 1 2.7 1 5-.2.5-.2 1-.5 1.6-1 2.5-1.4 6.9-4.2 7.3-5.5 0-.3.2-.6 0-1a.5.5 0 0 0-.7 0c-.7.3-1.5 1-2.4 1.6a30.3 30.3 0 0 1-6.6 4.4c-1.4.6-2.3.8-2.5.5-.3-1 9.5-11.5 13.2-15.5h3.7c.4 0 .8-.2 1-.4l1-1c.3-.2.2-.3.2-.4 0 0-.1-.2-.4-.2h-3.6l1.2-1.2c3.7-4 6.7-7.2 7.2-8l.2-.2.2-.4"/></g><g clip-path="url(#b)"><path fill="#0066E9" d="M67.8 48h-.3l-.1-.2c0-.4.6-1.4 1.7-2.6 7-7.4 12.2-11.8 14.3-12.1h.2c.3 0 .7 0 .8.3 0 .3 0 .9-.7 2-3 4.4-13.3 12.6-16 12.6m-2.5 10a55.4 55.4 0 0 0-2.6 3.1c-2.4 2.8-7.5 8.5-9.3 8.5H53v-.3c-.2-1.1 3-5 3.9-6A73 73 0 0 1 67.6 55c-.6 1-1.5 2-2.4 3M54.7 43.3l-1.6 1.2c-1.7 1.3-4.6 3.5-5.8 3.5h-.2l-.1-.3c-.2-.8 2-3.3 2.7-4l.3-.4C51.3 41.7 60 33 62.8 33l.5.2c.2.3.2.7 0 1.3l-1 1.5c-.8 1.3-6.3 6.5-7.6 7.3m-15 20.3L38.4 65c-1 1-4.7 4.3-6 4.3l-.2-.1c0-.4.4-1.4.6-1.8a32 32 0 0 1 8.3-8.4l2.3-1.8c.8-.7 3.1-2.4 3.8-2.5-.5 1.1-5.5 6.6-7.5 8.8m1-26.2l.4-.3c3.7-3.8 6.5-6 7.8-6l.4.1v.1c-.1 1.5-4.8 5.3-7.6 6.5l-2 .7 1-1.1m57.5.3c1.8-2 6.2-6 8-6h.4c0 1.2-4 4.7-7 6.1l-.8.4-1.6.5 1-1m36.1-6.8h-3.5l1-1.2c3.8-4 6.8-7.2 7.3-8l.2-.2.2-.4-.4-.2h-3.3c-.2 0-.6 0-.9.2l-2.8 3-.2.2-6 6.6h-3.2c-.3 0-.7.1-1 .4l-1 .9c-.2.2-.2.4-.1.5 0 0 0 .2.4.2h3A101 101 0 0 1 110 46a17.2 17.2 0 0 1-5.5 2.4c-.3 0-.4 0-.5-.2-.3-1 9.9-11.8 13.3-15.4h1c.4 0 .8-.2 1-.4l1-1c.3-.2.2-.3.2-.4 0-.1-.1-.2-.4-.2h-1l1.2-1.2c3.7-4 6.7-7.2 7.2-8l.2-.2.2-.4c0-.1-.1-.2-.4-.2h-3.3c-.2 0-.6 0-.8.2l-3 3-.1.2-6 6.6h-2.7c-.3 0-.7.1-1 .4l-1 .9c-.2.2-.2.4-.1.4 0 .1.1.3.4.3h2.6A81.3 81.3 0 0 1 98 46l-1.3.7-.3.2a10 10 0 0 1-3.7 1.4c-.9 0-1.4-.2-1.6-.6-.6-1.5 2.5-5.4 3.6-6.6l.4-.4c.4 0 2.6-.4 4.8-1a17.2 17.2 0 0 0 8.4-6l.5-1v-1a3 3 0 0 0-.2-.7c-.4-1-1.2-1.5-2.5-1.5-2.6 0-6 2-7 2.7a46.4 46.4 0 0 0-8.2 7l-.2.2-1.4 1-1.7 1-1.5 1a12.9 12.9 0 0 1-2.3 1.2L81.6 45a4 4 0 0 1-2.3 1C82 42.5 85 39 88 35.9l2.7-2.9c.3-.3.7-.8.6-1.1 0-.4-.6-.5-1.4-.5-.8 0-1.8.1-2 .3l-.7.5a4 4 0 0 1-1 .8l-.3-.5c-.3-.5-.6-1.2-1.6-1.3h-.6c-3.6 0-9 3.3-11.6 5.6L70.8 38l-2.7 2.4a37.7 37.7 0 0 1-9.6 5.5c.7-1.2 4.2-5.3 6-7.3l.9-1 1.6-1.8c1.8-1.8 3.1-3.3 3.3-3.8v-.5c-.1-.3-.5-.4-1.1-.4l-1.2.1h-.4c-.7 0-1.3.6-1.8 1.1l-.7.5-.1-.2-.8-1.3c-.4-.3-.8-.4-1.4-.4-3 0-8.5 3.2-8.7 3.4a28.7 28.7 0 0 0-7.2 6.7c-.6.7-1.3 1.6-2 2l-1.2.8-1.8 1.3c-3 2-5.2 3-6.6 3-.7 0-1.1-.3-1.4-.7-.7-.8.6-3.2 2.1-5 0-.2.2-.3.3-.4a11.4 11.4 0 0 1 1-1l.5-.6a21.4 21.4 0 0 0 1.6-.2h.3c3.4-.9 6-2 8-3.4 1.4-1 4.7-3.6 3.8-6-.3-1-1.3-1.5-2.6-1.5h-.4a26.8 26.8 0 0 0-15.3 10.5l-1 1.7-.5.9c-.6 1-.8 2.7-.7 3.2 0 1 .3 1.8 1 2.6a4 4 0 0 0 3.2 1.5c1.6 0 3.6-.6 6-2l1.3-1 1.7-1.1h.1v1.1c0 .8.3 1.9.9 2.5.6.6 1.3.9 2 .7 1.7-.3 3.5-1.7 5.2-3l1.8-1.3h.2c-.9 1.4-1.8 2.7-3 3.8-1.8 1.9-4 3.3-6 4.5l-.4.3-1.2.8-.7.4c-4 2.8-13.5 9.4-12.5 14.3a3 3 0 0 0 1.4 1.5l.9.1c1.4 0 3-.8 3.7-1.2a47 47 0 0 0 12-11.5l2-2.8a39.8 39.8 0 0 1 5.7-6.7l7.9-4.4 1.1-.6-.2.9c-.4 1-.8 2.2-.4 3.3.4 1 1.4 2 2.5 2 2-.2 3.8-1.6 5.5-2.9a22 22 0 0 1 2.5-1.7c-.6 1.4-2.7 3.8-3.8 4.9-.8.7-2.3 1.5-3.7 2.4L65 54.5l-1.5 1A58 58 0 0 0 59 59a28.9 28.9 0 0 0-7.1 7.6c-1 1.7-1.2 3.7.4 4.6.3.2.8.3 1.3.3.9 0 2-.3 3.3-1 4.7-2.5 10.7-10 14.6-14.9l2-2.3.9-1.2a12 12 0 0 1 2.6-2.9l3.3-1.8a39 39 0 0 0 5.1-2.8l3.5-1.9-.1.6-.1.4c-.7 1.5-.6 3.1.2 4.4a4.7 4.7 0 0 0 4 2.1c.5 0 1 0 1.5-.2a14 14 0 0 0 2.7-1.3l2.4-1.5.7-.4 1.2-.7-.1.5v.9c.2.9.6 1.6 1 2 .6.5 1.2.7 2 .7 2.1 0 5-1.8 7-3.2l.5-.2c.3-.3.8-.5 1.2-.7l-.1.5v.9c.2.9.6 1.6 1 2 1 1 2.7 1 5-.2l1.7-1c2.5-1.4 6.8-4.2 7.2-5.5 0-.3.2-.6 0-1-.1-.2-.4-.2-.7 0-.7.3-1.5 1-2.3 1.6l-1.2 1c-.3.2-3 2.2-5.5 3.4-1.4.6-2.3.8-2.5.4-.3-1 9.8-11.8 13.3-15.4h3.7c.3 0 .7-.2 1-.4l1-1c.2-.2.2-.3.1-.4 0-.1-.1-.2-.4-.2"/></g><g clip-path="url(#b)"><path fill="#0066E9" d="M164.4 37.3c-1.7 0-2.8.9-2.8 2.2 0 .6.2 1.1.5 1.5a2 2 0 0 0 2.8-.3c.3-.3.6-.9.4-1.8.9-.2 1.6.3 1.7 1.2 0 .7-.5 1.8-2.3 2a9 9 0 0 1-1.6.2c-1.5 0-3.2-.4-4.8-.7-1.9-.4-3.8-.8-5.6-.7-2.1.1-4.9 1-5.5 3-.4 1.1-.4 2.6.3 3.5.5.8 1.4 1 2.5.7.4-.2 1.5-.6 1.5-1.6 0-.7-.1-1-.3-1.2a1 1 0 0 0-.7-.3c-.5 0-1 .2-1.3.7a1 1 0 0 0 0 1 1 1 0 0 1-.4-.1c-.4-.4-.5-1-.3-1.5.3-.6.8-1 1.4-1h1c1.5 0 2.8.2 4 .7a9 9 0 0 1-1.2 2.6c-1.1 1.6-4.5 3.2-7 3.2-1 0-1.7-.2-2.2-.6-1-.8-1.5-1.9-1.4-3.3a14 14 0 0 1 5.5-9c.7-.4 1.5-.6 2.4-.6 1 0 1.9.2 2.7.4 1.1.3 2 .4 2.4 0v-.1c.3-1.2-.7-1.6-1.6-2-1-.4-2-.7-1.5-2.1.8-2.4 5-5.4 7.7-5.4 1 0 1.6.4 1.9 1.1v.1c-.1.3-.7.5-1.4.8-1 .3-2 .7-2.3 1.5-.2.4-.1.8.1 1.3.4.7 1 1 1.8 1 1.6 0 3.2-1.5 3.6-2.8.2-.9-.2-2.1-.7-2.7a5.3 5.3 0 0 0-4.5-2 14 14 0 0 0-3.7.6c-2.8.8-6.7 3.3-6.7 6.3l.2 1.4.2.6-1.6.5h-.3c-4.7 1.2-7.8 3.8-9.1 7.8a6.7 6.7 0 0 0 0 5.3 7.9 7.9 0 0 0 5.9 4.6h.9c4.6 0 9.4-3 12-5.9.5-.4.8-1 1-1.4l.3-.6c1 .3 2.2.5 3.3.5 3 0 5.2-1.2 6.4-3.4.3-.5.6-1.1.6-1.8s-.2-1.4-.7-2a4.8 4.8 0 0 0-3.5-1.4"/></g><g clip-path="url(#b)"><path fill="#0066E9" d="M287.2 47.5a3.3 3.3 0 0 1-3.2-3.3c0-1.8 1.4-3.3 3.3-3.3 1.7 0 3.1 1.5 3.1 3.3 0 1.8-1.4 3.3-3.2 3.3m0-7.7c-2.4 0-4.3 2-4.3 4.4a4.4 4.4 0 1 0 4.4-4.4"/></g><g clip-path="url(#b)"><path fill="#0066E9" d="M287 43.8h-.2v-1h.3c.5 0 .6.1.6.4 0 .4-.2.6-.6.6m1.8-.6c0-.5-.3-1-.7-1.2l-1-.1h-1.5v4.6h1v-1.8h.3l1 1.8h1.3l-1.2-2c.5-.4.8-.8.8-1.3"/></g></svg>