<svg xmlns="http://www.w3.org/2000/svg" width="1323.4" height="649.8"><path fill="#231f20" fill-rule="evenodd" d="M405.8 646.5c-11.2-3.7-16.9-7.9-45.4-34a30064.7 30064.7 0 0 0-109.7-100.3C231 494.2 227 488 234.8 488c4.4 0 8 2.8 72.1 55.6 76.7 63.1 80.3 65.5 89.4 58.3 6.7-5.3 3.8-14.1-15-45.4-128.2-214.9-117.3-197.2-137.1-222-33.5-41.7-59.1-59.7-120.3-84.3l-45-18.2c-26-10.8-41.1-5.4-37.6 13.5 1.2 6.1 47 64.7 107.7 137.5 32.7 39.3 34.9 42.2 34.9 46.2 0 10.5-13.7-3.5-96.5-98.7l-43.5-50c-64.4-73.7-58.6-113.9 21.5-148.8a75831.5 75831.5 0 0 1 123.5-54c21.6-9.5 29.4-11.6 30.6-8.2 1.6 4-6.2 8.9-71.6 44.5a4752 4752 0 0 0-69.5 38.3c-22.6 14.3-24 29.5-3.2 36 78.3 24.8 120.4 35.5 134.2 34.2 34.4-3.2 37.8-5.2 131.1-78l90.9-71c41.4-32 51.4-46 36.4-50.6-8-2.4-24.8-.4-148.4 17.7-17.7 2.6-23.8 2.6-28-.2-5.7-3.8-1.6-7.5 10.8-10 4-.7 16-3.1 26.6-5.4A2399 2399 0 0 1 447 2.8c41-6.7 67.8-1.5 91.8 17.7 27.5 22.1 36.6 43.7 59.2 140.3 5.2 22.3 3.2 31.5-5.2 23.5-4.4-4.1-4.9-5.4-17.2-41.7-28.7-84-44.2-91.3-93.3-44L360 215.8c-73.1 70-73.6 71.8-41 140.6a18496.7 18496.7 0 0 1 41.3 87c15.2 31.8 60.9 123 63.6 126.9 20 29 42.6 23.4 73.2-18.1 30.2-41 35-47.2 38.4-49.3 10.4-6.5 7.4 3.4-25.7 84-19.3 47-63.8 72.4-103.9 59.5zm34.4-163.6c-6-1-10-3.5-12.3-7.2-3.1-5-2.7-5.7 4-5.7 4.6 0 6 .3 6 1.5 0 3.5 8.5 4.8 11.3 1.7 3.3-3.6.6-8.2-4.6-8.2-4.4 0-4-6.2.6-7.6 4.4-1.3 5.2-5.9 1.1-7.4-2.8-1-7.4.8-7.4 3 0 .6-2.5 1-5.5 1-6 0-6.3-.5-4-5.1 4.3-8.2 23.6-9.4 28.9-1.8 2 3 2 9.7 0 12l-1.7 1.9 2.2 1.7c10.4 8.4-3 22.9-18.6 20.2zm495.7.3c-30.4-3.3-29.8-39 .7-41 9.4-.6 15.2 1 20.6 5.8l4.2 3.8-3.6 1.5c-6 2.5-7.9 2.9-7.9 1.7 0-8.6-20.9-5.5-23.8 3.6-3.6 11.2 10.1 21.4 19.8 14.7 5.7-3.9 5.2-5.3-1.6-5.3h-5.5l.3-3.8.3-3.7 11.9-.3 11.9-.3-.5 5c-1.1 11.7-13 19.9-26.8 18.3zm88.7-.4c-5.8-1.2-14.4-6.7-12.6-8.1l3.7-2.6 3.2-2.3 3 2.6c5 4.1 13 2.9 13-2 0-1.7-3.5-4-7.5-5-11.2-2.6-15.8-9-12-16.4 3.8-7.4 20.1-9.5 28-3.6l2 1.5-2.7 2.7-2.6 2.7-3.9-1.5c-4.3-1.6-7.6-1.4-9.3.8-1.7 2 0 3.8 5.2 5.3 23.1 7 16.2 30.9-7.5 25.9zm98-.2c-11.2-2.4-13.7-7-13.7-26V443h11v10.2c.1 18 1.7 21.8 9.2 21.8 7 0 7.8-1.8 7.8-18v-14h12v14.2c0 20.3-2.2 23.6-17.5 26-1.6.3-5.6 0-8.7-.6zm157.3.6c-14.9-1.7-24-9.7-24-20.8 0-25.2 47.8-27.8 52.5-2.8 2.4 12.8-12.9 25.5-28.5 23.6zm7-9.7c9.3-2.6 12.4-14 5.3-19.5-12.5-9.8-31.4 3.2-21.5 14.8 2.7 3.3 9.4 6.4 12.2 5.7l4-1zm-554.7-3.1l-13.3-12.6V482h-12v-40h9.5l12.7 12.8 12.8 12.8V443h12v40h-8.5l-13.2-12.6zm142-.5l-13.3-13V482h-11v-40h8.5l12.7 12.7 12.8 12.8V443h12v40h-8.5l-13.2-13zm-393.3-7.4V443h11.5c29.7 0 42 24 18.3 36l-6.1 3h-23.7zm22.3 10.1c12.8-5.4 7.8-21.6-6.8-21.6H493v23h3.5c2 0 5-.6 6.8-1.4zm69.7-10.2v-19.6l12.8.3c26.2.8 30.6 24.9 4.5 24.9h-5.3v14h-12zm20.8-3.6c3.3-3.3.7-7.5-5.2-8.5l-3.6-.6V460h3.8c2 0 4.3-.4 5-1.1zm30.2 3.7V443h10.5c21.9 0 30.3 13.4 14.1 22.5-1.6 1-1.1 1.8 4.8 8.2 8 8.7 8 8.3-.1 8.3h-6.8l-5.7-7.2-5.8-7.1V482h-11v-19.5zm19.4-4.4c3.3-3.6-.4-8.1-6.5-8.1-1.6 0-1.9.7-1.9 5v5h3.3c2 0 4-.8 5.1-2zm32.6 4.4V443h12v39h-12zm104 4V451h-10v-8h32v8h-10v31h-12zm38-4V443h12v39h-12zm253 4V451h-10v-8h32v8h-10v31h-12zm97-4v-19.7l12.8.4c20 .5 28.2 6 28.2 19.3 0 13.2-8.1 18.8-28.2 19.3l-12.8.4zm25.4 9c9-6 3.9-19-8-20.2l-5.4-.6v23.6l5.4-.6c3-.3 6.6-1.3 8-2.2zm33.6-9V443h12v39h-12zm-816-78.5v-48h912v96h-912zm112.5 22.6c10-4.7 11.4-8.3 11.5-30.9V359h-12v14.2c-.1 23.8-2.4 28.8-13.3 28.8-12 0-13.7-3.5-13.7-26.3V359h-13.2l.4 17.2c.4 19.8 1.8 24.8 8.4 28.8a40.6 40.6 0 0 0 31.9 1.6zM647.9 384v-25h-13v17c0 9.3-.3 17-.6 17-.4 0-5-4.2-10.3-9.3l-18.2-17.5-8.5-8.2H588l-.3 25-.3 25h12.5v-17c0-9.4.4-17 .8-17 .8 0 11.6 10 31.7 29.2 5.6 5.3 6.3 5.8 10.8 5.8h4.7zm240.7 9c9.3-19 9.4-19 11.7-5.3 1 6 2.2 13 2.8 15.5l1 4.8h5.9c3.2 0 5.9-.4 5.9-1a36108.2 36108.2 0 0 1-7.5-37.5c-2.4-12.1-2-11.5-7-11.5h-4.5l-8.2 16.5c-9.7 19.4-8.3 18.5-13.7 8.2l-8.8-16.5-4.5-8.2h-4.4c-3.7 0-4.4.3-5 2.2l-5.8 25-5.2 22.8h6.3c3.5 0 6.3-.3 6.3-.6 0-.8 3.8-20 5.1-25.7 1.5-6.7 1.7-6.5 10.3 11.3 10 20.5 9.2 20.5 19.3 0zm-155.7 11.5V401h-20v-42h-12.5v49h32.5zm59-21V359h-12v49h12zm186 0V359h-12v49h12zm74.2 3.5l-.3-21h15.1v-7h-41v7h14v42h12.5zm97.8 17.5V401h-23v-15h22v-7l-10.7-.3-10.8-.3-.3-6.3-.3-6.2h23.1v-7h-35v49h35zm84.8 1.6c37.1-11.5 22.8-47-19-47.1h-13.8v49h13.4c10.3 0 14.8-.4 19.4-1.9zm-19.8-22.6V366h4.8c13 0 21.3 6 22 15.8.9 11.9-7.5 19.2-22 19.2h-4.8zM481.4 321c-93.9-7.5-93.4-111.7.6-120 91-8 142.4 19.7 130.5 70.3-9.3 39.9-52 56-131.1 49.7zm63.5-33c35.3-6.7 34.6-46.3-1-53.9-8.4-1.8-56.9-1.5-64.3.5-33.6 8.7-34.6 44-1.5 52.8 6.4 1.8 58.4 2.2 66.8.6zm275 17.6V289l40.8-.3c64-.6 61.1 1.8 61.2-53V200H965l-.3 38.7c-.5 47.5-1 50-13.9 63-15.8 16-36.9 20.2-101.6 20.3h-29.3zm155-44.6v-61h73c40.2 0 73 .3 73 .7 0 .5-6 7.9-13.5 16.5l-13.6 15.8H1018v11h48c26.4 0 48 .4 48 .8 0 .5-5.9 7.7-13 16l-13 15.2h-70v13h51.5c28.3 0 51.5.3 51.5.6s-6.1 7.7-13.6 16.5l-13.7 15.9H975zm151 60.2c0-.4 14-13.7 31-29.6a619 619 0 0 0 30.8-29.7 1590 1590 0 0 0-32.3-30.4 1116 1116 0 0 1-32.3-30.6c-.2-.5 10.3-1 26.8-1h27.2l7.2 6.8c15 14.3 24.4 23 32.2 30.4l8 7.6 24-22.3 23.8-22.4h26.3c32 0 31.2-1.8 8 19.6a10022.5 10022.5 0 0 0-37.7 35 65 65 0 0 0-7.5 7.5 679 679 0 0 0 25.5 24.4l30.8 28.7c7.5 7 8.2 6.8-21.3 6.8H1270l-11.8-11.2-22.6-21.5-10.9-10.3-22.8 21.5-22.8 21.5h-26.6a237 237 0 0 1-26.6-.8zM627 283v-38h61.3c67.6 0 68.2 0 68.2-6 0-5.5-.3-5.5-67.7-5.8l-61.8-.3V200h58.3c62.2 0 72.5.6 85.7 5 31.1 10.4 43 34.5 26.2 52.8l-3.8 4.1 3.4 3.3c18.7 18 4.2 43.5-30.3 53l-8 2.2-65.7.4-65.8.3zm131.3 3.8c2-1 3.7-2.4 3.7-3.3 0-4.5-5-5-50.2-5.3l-42.8-.3V289l42.8-.3c37.6-.3 43.2-.5 46.5-2z"/></svg>