<?xml version="1.0" encoding="UTF-8" standalone="no"?>
<svg
   xmlns:dc="http://purl.org/dc/elements/1.1/"
   xmlns:cc="http://creativecommons.org/ns#"
   xmlns:rdf="http://www.w3.org/1999/02/22-rdf-syntax-ns#"
   xmlns:svg="http://www.w3.org/2000/svg"
   xmlns="http://www.w3.org/2000/svg"
   viewBox="0 0 319.89334 54.946667"
   height="54.946667"
   width="319.89334"
   xml:space="preserve"
   id="svg2"
   version="1.1"><metadata
     id="metadata8"><rdf:RDF><cc:Work
         rdf:about=""><dc:format>image/svg+xml</dc:format><dc:type
           rdf:resource="http://purl.org/dc/dcmitype/StillImage" /></cc:Work></rdf:RDF></metadata><defs
     id="defs6" /><g
     transform="matrix(1.3333333,0,0,-1.3333333,0,54.946667)"
     id="g10"><g
       transform="scale(0.1)"
       id="g12"><path
         id="path14"
         style="fill:#231f20;fill-opacity:1;fill-rule:nonzero;stroke:none"
         d="m 629.188,230.824 c 1.085,12.082 -2.333,22.828 -9.879,31.094 -10.121,11.07 -27.192,17.164 -48.059,17.164 -27.117,0 -45.059,-7.383 -51.516,-10.559 l -3.894,-1.914 9.68,-29.621 5.144,2.469 c 6.672,3.199 18.945,6.621 33.379,6.621 8.32,0 14.824,-2.094 18.312,-5.898 2.645,-2.891 3.758,-6.989 3.309,-12.157 -1.406,-15.496 -17.285,-26.05 -42.488,-28.238 l -4.172,-0.359 -2.461,-27.196 8.27,0.172 c 11.093,0 25.941,-1.761 33.632,-10.172 4.114,-4.496 5.774,-10.464 5.078,-18.23 -1.589,-17.52 -14.668,-27.98 -34.968,-27.98 -18.282,0 -29.309,4.949 -33.196,7.078 l -4.546,2.484 -15.293,-30.5312 4.109,-2.3555 c 12.773,-7.3125 29.512,-10.7226 52.695,-10.7226 41.875,0 73.367,25.1363 76.582,61.1253 2.024,22.554 -7.617,39.285 -28.008,48.933 13.985,7.715 26.692,20.758 28.29,38.793" /><path
         id="path16"
         style="fill:#231f20;fill-opacity:1;fill-rule:nonzero;stroke:none"
         d="m 703.137,115.242 c -4.809,0 -9.242,0.606 -12.657,1.363 l 11.61,129.102 c 3.75,0.988 7.898,1.422 13.281,1.422 10.93,0 18.914,-2.93 24.426,-8.961 8.855,-9.691 11.961,-27.797 9.48,-55.352 -4.304,-47.996 -17.675,-67.574 -46.14,-67.574 z m 72.359,141.649 c -13.465,14.726 -33.308,22.191 -58.992,22.191 -26.016,0 -43.836,-5.875 -54.207,-10.801 l -2.578,-1.226 -15.539,-172.4573 2.734,-1.6055 c 12.102,-7.1016 31.524,-11.0195 54.688,-11.0195 53.996,0 86.933,35.3083 92.734,99.4293 2.969,33.176 -3.367,58.575 -18.84,75.489" /><path
         id="path18"
         style="fill:#231f20;fill-opacity:1;fill-rule:nonzero;stroke:none"
         d="m 894.395,81.1406 c -44.356,0 -73.536,35.8554 -67.95,97.8474 5.657,62.344 42.696,96.782 85.957,96.782 23.809,0 37.239,-6.926 43.914,-12.864 l -11.55,-24.035 c -5.047,4.184 -12.598,8.024 -25.246,8.024 -29.918,0 -44.903,-26.129 -48.641,-67.2 -3.762,-41.472 8.641,-67.898 35.676,-67.898 11.922,0 20.496,3.473 27.078,8.355 l 7.734,-26.1286 C 932.813,87.0469 917.852,81.1406 894.395,81.1406 v 0" /><path
         id="path20"
         style="fill:#231f20;fill-opacity:1;fill-rule:nonzero;stroke:none"
         d="m 1063.59,248.965 c -30.99,0 -40.26,-34.469 -43.49,-70.317 -3.23,-35.519 0.62,-68.597 30.93,-68.597 31.35,0 40.13,33.078 43.35,68.597 3.26,35.848 0.61,70.317 -30.79,70.317 z m -15.2,-167.8244 c -54.437,0 -76.995,41.7814 -71.964,97.1644 5.078,56.05 35.154,97.465 89.604,97.465 54.81,0 77.01,-41.415 71.96,-97.465 -5.02,-55.383 -35.14,-97.1644 -89.6,-97.1644 v 0" /><path
         id="path22"
         style="fill:#231f20;fill-opacity:1;fill-rule:nonzero;stroke:none"
         d="m 1278.46,84.5938 12.04,133.0512 c 1.39,15.328 -4.37,31.32 -32.15,31.32 -14.4,0 -22.15,-2.07 -30.77,-5.215 L 1213.17,84.5938 h -44.02 l 16.09,177.6362 c 19.15,8.356 44.53,13.54 77.36,13.54 58.06,0 74.69,-27.149 71.96,-57.442 L 1322.44,84.5938 h -43.98 v 0" /><path
         id="path24"
         style="fill:#231f20;fill-opacity:1;fill-rule:nonzero;stroke:none"
         d="m 1478.59,84.5938 12.06,133.0512 c 1.4,15.328 -4.37,31.32 -32.15,31.32 -14.41,0 -22.16,-2.07 -30.79,-5.215 l -14.4,-159.1562 h -44 l 16.07,177.6362 c 19.14,8.356 44.52,13.54 77.38,13.54 58.04,0 74.7,-27.149 71.94,-57.442 L 1522.58,84.5938 h -43.99 v 0" /><path
         id="path26"
         style="fill:#231f20;fill-opacity:1;fill-rule:nonzero;stroke:none"
         d="m 1651.52,249.668 c -25.61,0 -45.08,-20.199 -48.09,-65.113 l 81.48,11.836 c 3.45,37.964 -9.25,53.277 -33.39,53.277 z m -47.53,-86.695 c 0.46,-34.852 16.19,-52.215 48.3,-52.215 22.33,0 39.03,5.219 49.98,10.453 l 8.03,-26.8516 c -14.36,-7.3125 -35.87,-13.2188 -65.41,-13.2188 -55.21,0 -87.02,34.4804 -81.29,97.8474 5.54,61.293 40.87,96.782 91.75,96.782 51.54,0 76.67,-33.071 69.16,-96.075 l -120.52,-16.722 v 0" /><path
         id="path28"
         style="fill:#231f20;fill-opacity:1;fill-rule:nonzero;stroke:none"
         d="m 1947.22,84.5938 16.99,187.7152 h 44 L 1991.19,84.5938 h -43.97 v 0" /><path
         id="path30"
         style="fill:#231f20;fill-opacity:1;fill-rule:nonzero;stroke:none"
         d="m 2127.99,248.965 c -31.02,0 -40.25,-34.469 -43.55,-70.317 -3.18,-35.519 0.66,-68.597 30.96,-68.597 31.39,0 40.16,33.078 43.37,68.597 3.26,35.848 0.61,70.317 -30.78,70.317 z m -15.2,-167.8244 c -54.47,0 -76.97,41.7814 -71.98,97.1644 5.09,56.05 35.16,97.465 89.59,97.465 54.85,0 77.05,-41.415 72,-97.465 -5.04,-55.383 -35.15,-97.1644 -89.61,-97.1644 v 0" /><path
         id="path32"
         style="fill:#231f20;fill-opacity:1;fill-rule:nonzero;stroke:none"
         d="m 2342.84,84.5938 12.06,133.0512 c 1.36,15.328 -4.34,31.32 -32.18,31.32 -14.42,0 -22.13,-2.07 -30.75,-5.215 L 2277.58,84.5938 h -44.03 l 16.1,177.6362 c 19.15,8.356 44.48,13.54 77.32,13.54 58.07,0 74.74,-27.149 71.98,-57.442 L 2386.8,84.5938 h -43.96 v 0" /><path
         id="path34"
         style="fill:#231f20;fill-opacity:1;fill-rule:nonzero;stroke:none"
         d="m 1923.75,272.309 h -41.5 l -46.62,-71.543 -3.6,-39.871 32.11,-76.3012 h 48.36 l -51.9,99.9612 63.15,87.754 v 0" /><path
         id="path36"
         style="fill:#231f20;fill-opacity:1;fill-rule:nonzero;stroke:none"
         d="m 1826.5,202.23 -32.96,70.079 h -41.47 l 47.23,-87.754 -70.03,-99.9612 h 48.35 l 45.01,74.7542 3.87,42.882 v 0" /><path
         id="path38"
         style="fill:#231f20;fill-opacity:1;fill-rule:nonzero;stroke:none"
         d="m 403.75,256.91 c -3.574,4.824 -9.109,6.356 -15.52,4.32 -13.984,-4.41 -88.726,-58.015 -88.726,-58.015 L 280.43,137.617 240.422,0 c 0,0 90.516,63.3945 126.109,118.09 12.336,18.918 22.903,41.746 30.317,63.586 11.226,33.203 15.172,64.078 6.902,75.234" /><path
         id="path40"
         style="fill:#231f20;fill-opacity:1;fill-rule:nonzero;stroke:none"
         d="m 205.535,412.117 -89.558,-54.945 c -3.75,-2.25 -3.821,-5.395 -2.391,-8.125 1.316,-2.621 4.676,-3.621 8.25,-1.93 3.594,1.676 6.902,3.219 6.902,3.219 13.852,7.422 46.282,24.781 82.27,19.777 24.219,-3.347 49.273,-12.664 76.504,-28.457 25.086,-14.543 38.933,-29.363 40.125,-42.906 0.019,-0.574 0.078,-1.223 0.078,-1.793 0,-7.238 -3.809,-14.16 -11.328,-20.504 -18.614,-15.691 -44.141,-27.961 -52.871,-32.101 -15.664,7.988 -113.02,57.601 -116.153,59.109 -4.133,1.953 -7.234,0.527 -8.711,-1.473 -0.175,-0.226 -0.246,-0.496 -0.382,-0.726 -1.329,-2.391 -1.043,-5.547 0.968,-7.973 0.965,-1.121 2.45,-2.16 10.586,-7.367 10.711,-6.828 28.574,-18.317 43.313,-30.223 21.609,-17.535 35.371,-39.914 37.593,-61.48 1.743,-16.344 1.387,-39.871 -8.601,-64.024 -1.445,-3.535 -3.113,-7.082 -4.988,-10.617 C 193.855,76.1914 158.098,66.5313 110.852,91.0156 72.2773,110.969 36.9141,133.09 27.168,139.297 c 0.4687,1.695 3.3203,12.09 7.2656,26.348 10.8008,39.152 29.7266,107.757 29.7266,107.757 0.2461,0.653 0.2734,1.328 0.2734,1.993 0,2.902 -1.7109,5.484 -4.4336,6.363 -3.0859,0.937 -6.1602,-0.738 -7.1758,-3.899 L 17.9492,173.879 0,120.281 218.223,0 l 38.797,133.551 25.293,87.035 v 0.035 l 131.71,86.438 -208.488,105.058" /></g></g></svg>