<svg xmlns="http://www.w3.org/2000/svg" width="292.2" height="200.2"><g fill="none" fill-rule="evenodd"><path fill="#01fe01" d="M0 182.5v-17.6h7v35.2H0zm15 0V165h5.3l14.4 12.6L49 190v-25.1h6.9v35.2h-5.4l-14.3-12.5-14.5-12.4V200h-6.8zm47.6 0V165h7v14.9a713.7 713.7 0 0 0 18.2-14.7l.4-.3h9.7A1636.3 1636.3 0 0 1 76 182.8l10.8 8.7 10.9 8.6h-11l-8-6.3a24890.2 24890.2 0 0 1-9.2-7.3v13.7h-7zm79.5-46.7c-3.7-6.7-4.3-7.7-4.2-7.8.1-.4 8.5-15.3 8.5-15.3l8.7 15.4-8.6 15.4z"/><path fill="#191919" d="M146.2 182.5V165h6.3l17.4 26.9.3-.3 17-26.6h5.9v35h-6.8v-21.8l-7 10.9-7 10.8H167l-7-10.8-7-10.9V200h-6.8zm53.9 0v-17.6h6.9v35.2h-6.9zm27.8 6.4v-11.2h7v22.4h-7zm27.2-6.4v-17.6h7v13.4h23.1V165h7v35.2h-7v-15.4h-23.1v15.4h-7zm-152.4 17.4v-6.5h13.9l14.3-.1c1.6-.1 2.3-.6 2.4-1.5v-6.4h-11.1c-12.2 0-11.4 0-12.8-.3-3.8-.5-6.1-2.1-7-5a8 8 0 0 1-.4-1.4h29c5.8.1 8.4 1.8 9 5.7v7.9c-.4 4.5-3 7-8 7.6zm-.6-28.7l.5-1.4c1-2.6 3.3-4.2 7.1-4.7 1.4-.2.5-.2 15.6-.2H139v6.3h-37zm110.1 0V165h37.9v6.2zm-58.2-72L175.8 60H132l-16.6-30L98.7 0h128l-9.5 17.3-9.6 17.3h-17.2l11.5-21.2h-78L133 30l9.3 16.6h29l29.2.1-8.4 15-29.7 52.7-8.4-15.2zm-24 14.9L66.3.1l16.5.2 56 99-8.8 14.8z"/></g></svg>