<?xml version="1.0" encoding="UTF-8" standalone="no"?>
<svg
   xmlns:dc="http://purl.org/dc/elements/1.1/"
   xmlns:cc="http://creativecommons.org/ns#"
   xmlns:rdf="http://www.w3.org/1999/02/22-rdf-syntax-ns#"
   xmlns:svg="http://www.w3.org/2000/svg"
   xmlns="http://www.w3.org/2000/svg"
   xmlns:sodipodi="http://sodipodi.sourceforge.net/DTD/sodipodi-0.dtd"
   xmlns:inkscape="http://www.inkscape.org/namespaces/inkscape"
   viewBox="0 0 558.33081 152.62652"
   height="152.62653"
   width="558.33081"
   xml:space="preserve"
   id="svg2"
   version="1.1"
   inkscape:version="0.91 r13725"
   sodipodi:docname="Mitutoyo company logo.svg"><sodipodi:namedview
     pagecolor="#ffffff"
     bordercolor="#666666"
     borderopacity="1"
     objecttolerance="10"
     gridtolerance="10"
     guidetolerance="10"
     inkscape:pageopacity="0"
     inkscape:pageshadow="2"
     inkscape:window-width="1366"
     inkscape:window-height="716"
     id="namedview19"
     showgrid="false"
     fit-margin-top="5"
     fit-margin-bottom="5"
     fit-margin-right="5"
     fit-margin-left="5"
     inkscape:zoom="1"
     inkscape:cx="476.32813"
     inkscape:cy="122.69507"
     inkscape:window-x="-8"
     inkscape:window-y="-8"
     inkscape:window-maximized="1"
     inkscape:current-layer="g12" /><metadata
     id="metadata8"><rdf:RDF><cc:Work
         rdf:about=""><dc:format>image/svg+xml</dc:format><dc:type
           rdf:resource="http://purl.org/dc/dcmitype/StillImage" /><dc:title></dc:title></cc:Work></rdf:RDF></metadata><defs
     id="defs6" /><g
     transform="matrix(1.3333333,0,0,-1.3333333,347.66146,80.979995)"
     id="g10"><g
       transform="scale(0.1,0.1)"
       id="g12"><path
         id="path16"
         style="fill:#eb5c02;fill-opacity:1;fill-rule:evenodd;stroke:none"
         d="m -2569.961,-276.35218 175.728,0 0,510.10995 214.9675,-510.10995 39.2323,0 347.186,831.71765 -74.2126,0 -238.8447,-556.19364584 -240.56,556.19364584 -223.4965,0 0,-831.71765"
         inkscape:connector-curvature="0" /><path
         id="path18"
         style="fill:#eb5c02;fill-opacity:1;fill-rule:evenodd;stroke:none"
         d="m -1733.9825,555.36547 116.8613,0 0,-831.71765 -175.726,0 0,518.6275 -208.1417,-518.6275 -74.2103,0 341.2167,831.71765"
         inkscape:connector-curvature="0" /><path
         id="path20"
         style="fill:#eb5c02;fill-opacity:1;fill-rule:evenodd;stroke:none"
         d="m -1517.3138,412.04132 134.7778,0 0,143.31502 -134.7778,0 z"
         inkscape:connector-curvature="0" /><path
         id="path22"
         style="fill:#eb5c02;fill-opacity:1;fill-rule:evenodd;stroke:none"
         d="m -1517.3138,-276.35218 134.7778,0 0,618.45131 -134.7778,0 z"
         inkscape:connector-curvature="0" /><path
         id="path24"
         style="fill:#eb5c02;fill-opacity:1;fill-rule:evenodd;stroke:none"
         d="m 431.02651,357.44944 145.00894,0 L 699.72712,7.6987336 843.02787,357.44944 l 69.94218,0 -347.18374,-857.29838 -60.55884,0 121.14108,319.03371 -195.34204,538.26467"
         inkscape:connector-curvature="0" /><path
         id="path26"
         style="fill:#eb5c02;fill-opacity:1;fill-rule:evenodd;stroke:none"
         d="m 692.05196,-499.84894 344.60974,857.29838 -69.94217,0 -339.50858,-857.29838 64.84101,0"
         inkscape:connector-curvature="0" /><path
         id="path28"
         style="fill:#eb5c02;fill-opacity:1;fill-rule:evenodd;stroke:none"
         d="m -711.19794,-170.57779 c -50.32842,0 -78.47143,34.97109 -78.47143,69.95155 l 0,446.98415 -130.51975,0 0,-462.33914 c 0,-84.4501 61.41528,-156.11218 143.30543,-160.37095 l 284.91203,0 0,622.71009 -134.77618,0 0,-516.9357 -84.4501,0"
         inkscape:connector-curvature="0" /><path
         id="path30"
         style="fill:#eb5c02;fill-opacity:1;fill-rule:evenodd;stroke:none"
         d="m -207.9067,-161.18976 c -29.85822,0 -60.55884,34.12167 -60.55884,67.382236 l 0,331.824074 160.35925,0 0,119.43289 -160.35925,0 0,212.40054 -134.7832,0 0,-657.67884 c 0,-106.63317 64.84101,-188.52332 143.30075,-188.52332 l 161.225041,0 0,115.16242 -109.183751,0"
         inkscape:connector-curvature="0" /><path
         id="path32"
         style="fill:#eb5c02;fill-opacity:1;fill-rule:evenodd;stroke:none"
         d="m -1093.3575,-161.18976 c -30.7123,0 -57.1541,34.12167 -57.1541,67.382236 l 0,331.824074 156.96158,0 0,119.43289 -156.96158,0 0,212.40054 -133.9291,0 0,-657.67884 c 0,-106.63317 64.834,-188.52332 143.3148,-188.52332 l 156.10279,0 0,115.16242 -108.33439,0"
         inkscape:connector-curvature="0" /><path
         id="path34"
         style="fill:#eb5c02;fill-opacity:1;fill-rule:evenodd;stroke:none"
         d="m 187.90195,372.79975 c -228.616643,0 -248.225726,-223.49208 -248.225726,-338.647473 0,-110.903643 19.609083,-328.421737 248.225726,-325.861787 0,1.70117 1.70819,0 1.70819,1.70117 227.75085,-4.26112 241.41637,232.882438 241.41637,324.160617 0,101.513273 -9.40674,338.647473 -241.41637,338.647473 z m 0,-543.37754 c -2.55058,0 -2.55058,0 -2.55058,0 -108.341361,9.38803 -110.915345,143.305431 -110.915345,204.730067 0,73.363243 2.573984,203.864273 110.915345,208.123043 0,0 0,-1.68479 2.55058,-1.68479 125.39986,-2.57398 112.60013,-206.438253 112.60013,-206.438253 0,0 8.54095,-197.901987 -112.60013,-204.730067"
         inkscape:connector-curvature="0" /><path
         id="path36"
         style="fill:#eb5c02;fill-opacity:1;fill-rule:evenodd;stroke:none"
         d="m 1296.8448,357.44944 c -225.2003,6.83276 -243.1246,-214.97453 -243.1246,-327.565298 0,-117.713002 22.1831,-332.689872 241.4165,-328.421732 0,0 0,0 1.7081,0 232.8755,-4.26814 245.6752,228.614304 245.6752,328.421732 0,99.814448 -12.7997,331.824068 -243.1246,327.565298 z m 0,-536.55648 c -1.7081,0 -4.2587,0 -4.2587,0 -106.6332,8.52925 -112.6002,143.305432 -112.6002,208.991182 0,69.09277 5.967,197.040868 112.6002,197.040868 0,0 2.5506,0 4.2587,0 127.9505,-4.25877 115.1742,-197.040868 115.1742,-197.040868 0,0 12.7763,-197.901982 -115.1742,-208.991182"
         inkscape:connector-curvature="0" /></g></g></svg>