<svg xmlns="http://www.w3.org/2000/svg" width="2360.9" height="367.6"><path fill="#0b9444" fill-rule="evenodd" d="M2149.4 313.1l-52-54.5-.2 52-.3 52h-19v-74.5c0-42 .4-74.5 1-74.5.4 0 24.4 24.7 53.2 55l52.3 54.8.3-51.9.3-51.9h18v74c0 40.7-.4 74-.8 74s-24.2-24.5-52.8-54.5zm-1842 51a74.1 74.1 0 0 1-44-116 76.8 76.8 0 0 1 85.8-27c12 4.2 11.7 3.8 11.7 16.6v11.1l-3.1-2.6c-23.2-19.6-61.6-13.7-79.2 12.1-36 52.8 27.5 117.1 77.7 78.8l4.6-3.6v22.9l-7.2 3a83 83 0 0 1-46.3 4.7zm500 .1a72.6 72.6 0 0 1-58.2-75.6 75 75 0 0 1 105.5-65l6.2 3v22l-6.3-4.3c-37.2-25.5-86.7 1.6-86.7 47.3a54.8 54.8 0 0 0 86.6 46.4l6.4-4.4v22l-4.7 2.4a83 83 0 0 1-48.8 6.2zm203.3-.1c-16-4-28-15-34.7-32.3l-2.5-6.7-.4-52.7-.3-52.8h18l.4 48.3c.5 50 .7 52.8 5 62.8 8.3 19.4 37.7 23.7 52.4 7.7 9.3-10 10.3-17.5 10.3-74v-44.8h18v50.6c0 55.7 0 56.7-6.2 69.2-9.9 20.2-35.3 30.7-60 24.7zm673.6.1a48 48 0 0 1-31.9-25.8c-6.2-13-6.4-15.8-6.4-70v-48.8h18.9V267c0 58.5 1.1 64.6 12.4 74.3 12.5 10.7 36.5 8.5 46.3-4.4 7.5-9.8 7.8-11.7 8.1-67.4l.3-49.8h18.9v47.8c0 53.6-.5 58.5-6.4 70.9-10 21.2-35.2 32-60.2 26zm594.6-.1c-32.1-7-56.3-38-56.3-72.5A74 74 0 0 1 2345 235c10.5 8.7 10.7 9.7 3 16.6l-6.4 5.8-6.2-6.2a54 54 0 0 0-84.4 8c-35.8 53.6 34 119.7 78 73.9a42 42 0 0 0 11.7-21.5l.5-4H2305v-17h56v9.8c0 43-38.6 73-82 63.7zM0 361.4c0-.7 14.8-33.4 32.9-72.8l32.8-71.5-8.5-1.2c-18.6-2.7-43-12.3-53-21l-2-1.8L13 172.6c6-11.2 11.4-20.9 11.8-21.3.5-.6 3.8 1.3 7.7 4.2 28 21.2 61.5 20.6 65-1.1 2-12.3-5.8-17.9-39.2-28.3C21.2 114.5 11 102.5 11 70.7c0-53 42.6-80 102.4-65 9 2.3 26.8 9 30.3 11.5l2.3 1.6-10.7 20.7-10.9 21c-.1.1-2.6-1.4-5.4-3.4-21.2-15.2-52-11.9-52 5.7 0 10 4.7 13.2 32.5 22.4 43.4 14.2 55.9 28.8 54.1 63.3-2 41.8-25.4 64.2-71.4 68.4-8 .7-12.2 1.5-11.9 2.2a32726 32726 0 0 0 64.3 140.3l1.4 3.2h-20.6l-7.8-17.5-8-17.5H35.4l-7.9 17.5-7.9 17.5H9.7c-7.2 0-9.7-.3-9.7-1.2zm91-52.5c0-1-22.2-51.5-23-52.6-.6-.6-19.5 41-23.7 51.8-.5 1.4 2 1.5 23 1.5 13 0 23.6-.3 23.6-.7zm60-18v-71.6l20.6.7c22.8.8 28.2 1.6 36.3 5.4 31 14.6 26.4 66.2-6.7 74.5l-5.2 1.3 22 30.3c12 16.6 22 30.5 22 30.7 0 .2-5.1.4-11.3.4h-11.3l-20.9-30c-19.1-27.5-21-30-23.7-30H170v60h-19zm41.4-5.9c12.6-3 19-10.7 19-22.9-.1-15.8-9.8-23.4-32.4-25l-9-.8v51.5l8.2-.7c4.5-.3 11-1.3 14.2-2zm191.5 6.1v-71.5h19v58h66v-58h19v143h-19v-68h-66v68h-19zm132 0v-71.5h19v143h-19zm69 9v-62.5h-34v-18h86v18h-33v125h-19zm70-9v-71.5h77v18h-59v38h57v17h-57v53h59v17h-77zm251 9v-62.5h-34v-18h86v18h-34v125h-18zm199-9.1v-71.7l20.5.7c23.8.8 28.8 1.6 37.2 5.6 31 15.2 26 65.7-7.3 74.3l-5 1.3 21.8 30a895 895 0 0 1 21.8 30.7c0 .4-5 .7-11.2.7h-11.3l-20.5-29.8c-19-27.5-20.8-29.7-23.8-30l-3.2-.3v60.1h-19V291zm43.5-6.5c14-4.1 20.5-15.9 16.5-30.2-3-10.8-17.3-17.7-37-17.7h-4v51.1l8.8-.6a92 92 0 0 0 15.7-2.6zm62.5 6.6v-71.5h78v18h-59v38h57v17h-57v53h59v17h-78zm194 51.5v-20h-40v-17h40v-40h17v40h40v17h-40v40h-17zm137-51.6v-71.7l16.3.7c25.1 1 34.6 3.7 43.6 12.1 13 12.2 14 37.3 1.7 50l-4.3 4.4 4.1 1.5c22.6 8.7 29.3 44.4 11.5 61.7-10.3 10-22 12.9-51.6 13h-21.3zm50.8 51.7c14.4-6.3 18.7-23.9 8.7-35-6-6.6-17.5-10-33.7-10h-6.8v48.2l13.3-.5c11-.3 14.1-.8 18.5-2.7zm-10.3-62.5c8.9-3.7 13.4-12.4 12.1-23.3-1.5-13.5-7.9-18.4-25.8-19.9l-7.8-.7V283l8.8-.5c4.8-.3 10.5-1.3 12.7-2.2zm195.5 11v-71.6h19v143h-19zm48 0v-71.6h19v126h43v17h-62zm76 0v-71.6h14.3c64.3.2 94.6 23 94.7 71.2.1 48.2-29.6 71.8-90 71.8h-19v-71.5zm41.1 53c33-5 49.6-23.3 49.2-54-.4-33.4-23.6-52.6-63.4-52.6h-8.9v108h6.8c3.7 0 11-.6 16.3-1.4zm89-53v-71.6h18v143h-18zm188.4-73.6c-96.8-12.8-131.6-136.5-54.4-194 77.1-57.4 189.5-3.5 184.6 88.5-3.7 69.1-60 114.7-130.2 105.5zm30-53.2a58.5 58.5 0 0 0 44-57.3c.2-42.4-50.8-69.1-87.2-45.6-53.3 34.5-18.8 116.6 43.2 103zM252 216.5c-38.3-4-63.9-23-71-53.1-3.3-14.5-4-29.4-4-94V6.6h54v58.8c0 76 .9 83.3 10.6 94 13.3 14.9 42.4 13.3 52.6-2.7 7.4-11.6 7.3-10 7.6-83.8l.4-66.3H356v65.6c0 80-.8 89-8.8 105.4-13.8 28.2-51 43.4-95.3 38.9zm191 .5a133 133 0 0 1-45.5-12.6c-10.3-5.1-17.5-9.7-17.5-11.2 0-1.2 20.6-40.3 22-42 .5-.4 4 1.5 7.7 4.3 25.3 19.1 54.4 21 63.2 4.1 6.2-12-1.9-22.6-21.8-28.6-54-16-64.2-26.3-62.8-64C390 14.7 435-10.4 495.5 7.1c8.9 2.5 27.4 10.1 27.4 11.2 0 .5-20.8 41.3-21.4 42-.1.1-3.2-1.7-6.8-4.1-21.5-14.4-48.9-11.2-50.5 5.9-.9 10 4.9 14.1 31.2 22.5 48.2 15.3 62.4 36.2 53.6 78.8-7.3 35.5-44 58.3-86 53.5zm1477.4-.4c-24.2-5-33.5-36.2-16.2-54 16.1-16.6 46.3-10.3 53.4 11.1a32.6 32.6 0 0 1-37.2 43zM582.9 132.1V52.6h-43v-46h141v46h-44v159h-54zm82.4 77.8l39.4-102.5L743.4 6.6l29.4.3 29.5.2L840 107.5l38.4 102.3c.6 1.8-.6 1.8-28.3 1.8h-29l-6.3-17.5-6.5-17.5h-72.2l-7 17.3-6.9 17.2-28.8.3c-27.1.3-28.7.2-28.2-1.5zm127.6-76c0-.4-4.6-14.6-10.2-31.5l-10.3-30.6-10.6 31.4-10.7 31.4h21c11.4 0 20.8-.3 20.8-.7zM895 109V6.6h54v205h-54zm87 0V6.6l27.3.3 27.2.2 48 61.7 48 61.8.3-62 .3-62h54v205h-54.6l-48-61.9-48-61.9-.2 62-.3 61.8h-54V109.1zm220.2 101.6l39.3-102.5 39-101.5h59l38 101a14894 14894 0 0 1 38.4 102.5c.2 1.2-3.9 1.4-28.5 1.4h-28.9l-6.4-17.5-6.5-17.5h-72.2l-7 17.5-6.9 17.5h-28.8a187 187 0 0 1-28.5-.9zm118.6-106.3a715.3 715.3 0 0 0-10.7-31 941 941 0 0 0-21 60.5c0 .4 9.4.7 20.9.7h20.9zM1432 109V6.5l45.8.4c56.4.5 64 2 77.3 14.4 20.6 19.2 18.4 64.8-3.8 78.5l-3.6 2.2 5.6 1.3c41 9.3 48.5 72.3 11.5 96.4-16.2 10.5-26.3 12-85.4 12H1432zm86.6 58.4c13.7-4.2 18.8-15.8 12.8-28.6-3.4-7.1-16-11.2-34.6-11.2H1486v43.2l13.2-.7c8.3-.5 15.4-1.4 19.4-2.7zm-8.6-83.9c6.7-3.7 9-7.8 9-16 0-12.5-6.7-17.9-23.5-18.7l-9.5-.5v38.5l9.8-.4c8-.4 10.5-.9 14.2-2.9zm105 25.5V6.6h54v159h64v46h-118zm134 0V6.6h117v46h-63v33h60v46h-60v34h63v46h-117zm270 23V52.6h-44v-46h141v46h-43v159h-54z"/></svg>